SplineFontDB: 3.0
FontName: Eadui
FullName: Eadui
FamilyName: Eadui
Weight: Medium
Copyright: Copyright (c) 2011-2016 by Peter S. Baker
UComments: "2008-5-6: Created.+AAoACgAA-To do: longs b? longs h?+AAoACgAA-Both PostScript hinting (for CFF font) and TTF instructions seem to make this font look worse. Best, probably, to leave it unhinted.+AAoA"
Version: 2.0
ItalicAngle: 0
UnderlinePosition: -99
UnderlineWidth: 49
Ascent: 653
Descent: 347
InvalidEm: 0
LayerCount: 3
Layer: 0 1 "Back" 1
Layer: 1 1 "Fore" 0
Layer: 2 0 "Trace" 1
PreferredKerning: 4
XUID: [1021 762 1371532084 11357298]
FSType: 8
OS2Version: 0
OS2_WeightWidthSlopeOnly: 0
OS2_UseTypoMetrics: 1
CreationTime: 1210090339
ModificationTime: 1451516749
PfmFamily: 65
TTFWeight: 500
TTFWidth: 5
LineGap: 90
VLineGap: 0
Panose: 3 2 6 2 4 6 4 3 8 4
OS2TypoAscent: 653
OS2TypoAOffset: 0
OS2TypoDescent: -347
OS2TypoDOffset: 0
OS2TypoLinegap: 90
OS2WinAscent: 880
OS2WinAOffset: 0
OS2WinDescent: 537
OS2WinDOffset: 0
HheadAscent: 653
HheadAOffset: 0
HheadDescent: -347
HheadDOffset: 0
OS2CapHeight: 0
OS2XHeight: 0
OS2FamilyClass: 2565
OS2Vendor: 'PSBa'
Lookup: 5 0 0 "'ccmp' Sub dotlessi before diacritic" { "'ccmp' Sub dotlessi before diacritic-1"  } ['ccmp' ('DFLT' <'dflt' > 'latn' <'dflt' > ) ]
Lookup: 2 0 0 "'ccmp' Glyph Composition/Decomposition in Latin lookup 14" { "'ccmp' Glyph Composition/Decomposition in Latin lookup 14-1"  } ['ccmp' ('DFLT' <'dflt' > 'latn' <'dflt' > ) ]
Lookup: 4 0 0 "'ccmp' Medieval combos" { "'ccmp' Medieval combos-1"  } ['ccmp' ('DFLT' <'dflt' > 'latn' <'dflt' > ) ]
Lookup: 1 0 0 "'smcp' Lowercase to Small Capitals in Latin lookup 8" { "'smcp' Lowercase to Small Capitals in Latin lookup 8-1"  } ['smcp' ('DFLT' <'dflt' > 'latn' <'dflt' > ) ]
Lookup: 1 0 0 "'titl' Titling caps from lc" { "'titl' Titling caps from lc-1"  } ['titl' ('DFLT' <'dflt' > 'latn' <'dflt' > ) ]
Lookup: 1 0 0 "'hist' Medievalize" { "'hist' Medievalize-1"  } ['hist' ('DFLT' <'dflt' > 'latn' <'dflt' > ) ]

StartChar: a
Encoding: 97 97 0
GlifName: a
Width: 325
Flags: MW
LayerCount: 3
Back
Fore
SplineSet
12 66 m 256,0,1
 12 79 12 79 22.5 96 c 128,-1,2
 33 113 33 113 44 123 c 128,-1,3
 55 133 55 133 79.5 142.5 c 128,-1,4
 104 152 104 152 131.5 162.5 c 128,-1,5
 159 173 159 173 176 178 c 128,-1,6
 193 183 193 183 196.5 189.5 c 128,-1,7
 200 196 200 196 200 212 c 128,-1,8
 200 228 200 228 194.5 249 c 128,-1,9
 189 270 189 270 178 291.5 c 128,-1,10
 167 313 167 313 158.5 318.5 c 128,-1,11
 150 324 150 324 141 324 c 128,-1,12
 132 324 132 324 119.5 319.5 c 128,-1,13
 107 315 107 315 86 303.5 c 128,-1,14
 65 292 65 292 60 292 c 128,-1,15
 55 292 55 292 55 294.5 c 128,-1,16
 55 297 55 297 115 329 c 128,-1,17
 175 361 175 361 201 361 c 0,18,19
 218 361 218 361 234.5 339 c 128,-1,20
 251 317 251 317 256.5 284.5 c 128,-1,21
 262 252 262 252 262 218.5 c 128,-1,22
 262 185 262 185 262 163 c 2,23,-1
 259 70 l 1,24,25
 264 64 264 64 283.5 45.5 c 128,-1,26
 303 27 303 27 318 27 c 0,27,28
 334 27 334 27 344.5 33.5 c 128,-1,29
 355 40 355 40 356.5 40 c 128,-1,30
 358 40 358 40 358 38.5 c 128,-1,31
 358 37 358 37 351 29.5 c 128,-1,32
 344 22 344 22 312 7 c 128,-1,33
 280 -8 280 -8 253 -8 c 256,34,35
 226 -8 226 -8 211 16 c 128,-1,36
 196 40 196 40 191 40 c 128,-1,37
 186 40 186 40 156.5 18 c 128,-1,38
 127 -4 127 -4 107 -4 c 256,39,40
 87 -4 87 -4 64.5 7.5 c 128,-1,41
 42 19 42 19 27 36 c 128,-1,42
 12 53 12 53 12 66 c 256,0,1
73 97 m 0,43,44
 73 77 73 77 86 63 c 128,-1,45
 99 49 99 49 119.5 40 c 128,-1,46
 140 31 140 31 147 31 c 128,-1,47
 154 31 154 31 166 38 c 128,-1,48
 178 45 178 45 188.5 74 c 128,-1,49
 199 103 199 103 199 127 c 128,-1,50
 199 151 199 151 192.5 153.5 c 128,-1,51
 186 156 186 156 180 156 c 128,-1,52
 174 156 174 156 138 146.5 c 128,-1,53
 102 137 102 137 87.5 126 c 128,-1,54
 73 115 73 115 73 97 c 0,43,44
EndSplineSet
Validated: 3073
Layer: 2
Substitution2: "'ss14' Enlarged minuscules-1" a.enlarged
Substitution2: "'swsh' Swash in Latin lookup 22-1" a.swash
Substitution2: "'ss07' Underdotted-1" uni1EA1
AlternateSubs2: "'salt' Stylistic Alternatives in Latin lookup 26-1" a.alt01 a.alt02 a.enlarged
Substitution2: "Single Substitution no tag - 2-1" a.alt02
Substitution2: "Single Substitution no tag-1" a.alt01
Substitution2: "'titl' Titling caps from lc-1" A.titling
Substitution2: "'smcp' Lowercase to Small Capitals in Latin lookup 8-1" a.sc
EndChar

StartChar: b
Encoding: 98 98 1
GlifName: b
Width: 391
Flags: MW
LayerCount: 3
Back
Fore
SplineSet
12 582 m 0,0,1
 12 596 12 596 47 619 c 128,-1,2
 82 642 82 642 111 642 c 0,3,4
 129 642 129 642 137.5 636.5 c 128,-1,5
 146 631 146 631 146 621 c 128,-1,6
 146 611 146 611 139.5 591 c 128,-1,7
 133 571 133 571 121 512 c 128,-1,8
 109 453 109 453 105 417 c 128,-1,9
 101 381 101 381 101 355 c 128,-1,10
 101 329 101 329 103 322 c 128,-1,11
 105 315 105 315 112 315 c 0,12,13
 117 315 117 315 136 328.5 c 128,-1,14
 155 342 155 342 184 355 c 128,-1,15
 213 368 213 368 235 368 c 128,-1,16
 257 368 257 368 287.5 352.5 c 128,-1,17
 318 337 318 337 341.5 298.5 c 128,-1,18
 365 260 365 260 365 231 c 0,19,20
 365 169 365 169 351.5 131.5 c 128,-1,21
 338 94 338 94 304 59.5 c 128,-1,22
 270 25 270 25 228 9 c 128,-1,23
 186 -7 186 -7 129 -7 c 0,24,25
 103 -7 103 -7 73.5 9 c 128,-1,26
 44 25 44 25 37 43.5 c 128,-1,27
 30 62 30 62 30 106 c 128,-1,28
 30 150 30 150 33 221 c 128,-1,29
 36 292 36 292 37 346.5 c 128,-1,30
 38 401 38 401 38 427 c 128,-1,31
 38 453 38 453 33.5 498.5 c 128,-1,32
 29 544 29 544 20.5 558 c 128,-1,33
 12 572 12 572 12 582 c 0,0,1
96 211 m 256,34,35
 96 169 96 169 98 124 c 128,-1,36
 100 79 100 79 126.5 56.5 c 128,-1,37
 153 34 153 34 190.5 34 c 128,-1,38
 228 34 228 34 246 46.5 c 128,-1,39
 264 59 264 59 279.5 93.5 c 128,-1,40
 295 128 295 128 295 151 c 0,41,42
 295 203 295 203 285 235.5 c 128,-1,43
 275 268 275 268 248.5 296.5 c 128,-1,44
 222 325 222 325 197 325 c 128,-1,45
 172 325 172 325 153 312 c 128,-1,46
 134 299 134 299 115 276 c 128,-1,47
 96 253 96 253 96 211 c 256,34,35
EndSplineSet
Validated: 3073
Layer: 2
Substitution2: "'ss07' Underdotted-1" uni1E05
Substitution2: "'titl' Titling caps from lc-1" B.titling
Substitution2: "'smcp' Lowercase to Small Capitals in Latin lookup 8-1" b.sc
EndChar

StartChar: c
Encoding: 99 99 2
GlifName: c
Width: 312
Flags: MW
LayerCount: 3
Back
Fore
SplineSet
19 121 m 0,0,1
 19 188 19 188 37 234 c 128,-1,2
 55 280 55 280 79.5 304.5 c 128,-1,3
 104 329 104 329 143.5 345 c 128,-1,4
 183 361 183 361 214 361 c 256,5,6
 245 361 245 361 265.5 338.5 c 128,-1,7
 286 316 286 316 286 311.5 c 128,-1,8
 286 307 286 307 256.5 288.5 c 128,-1,9
 227 270 227 270 223.5 270 c 128,-1,10
 220 270 220 270 200.5 294.5 c 128,-1,11
 181 319 181 319 155 319 c 128,-1,12
 129 319 129 319 106 290 c 128,-1,13
 83 261 83 261 83 204 c 0,14,15
 83 187 83 187 85.5 151 c 128,-1,16
 88 115 88 115 107.5 84 c 128,-1,17
 127 53 127 53 147.5 40.5 c 128,-1,18
 168 28 168 28 201.5 28 c 128,-1,19
 235 28 235 28 259.5 39.5 c 128,-1,20
 284 51 284 51 294.5 72 c 128,-1,21
 305 93 305 93 309.5 113.5 c 128,-1,22
 314 134 314 134 321.5 140 c 128,-1,23
 329 146 329 146 334 146 c 128,-1,24
 339 146 339 146 340.5 144 c 128,-1,25
 342 142 342 142 342 134 c 0,26,27
 342 88 342 88 312.5 61 c 128,-1,28
 283 34 283 34 243 13 c 128,-1,29
 203 -8 203 -8 135 -8 c 0,30,31
 92 -8 92 -8 55.5 21 c 128,-1,32
 19 50 19 50 19 121 c 0,0,1
EndSplineSet
Validated: 3073
Layer: 2
AlternateSubs2: "'salt' Stylistic Alternatives in Latin lookup 26-1" c.enlarged
Substitution2: "'ss14' Enlarged minuscules-1" c.enlarged
Substitution2: "'ss07' Underdotted-1" uni00630323
Substitution2: "'titl' Titling caps from lc-1" C.titling
Substitution2: "'smcp' Lowercase to Small Capitals in Latin lookup 8-1" c.sc
Substitution2: "Single Substitution no tag-1" c.alt
EndChar

StartChar: g
Encoding: 103 103 3
GlifName: g
Width: 459
Flags: MW
LayerCount: 3
Back
Fore
SplineSet
-29 -370 m 0,0,1
 -29 -356 -29 -356 10 -331 c 128,-1,2
 49 -306 49 -306 59 -299.5 c 128,-1,3
 69 -293 69 -293 71 -293 c 128,-1,4
 73 -293 73 -293 73 -295 c 128,-1,5
 73 -297 73 -297 65.5 -307 c 128,-1,6
 58 -317 58 -317 58 -322 c 128,-1,7
 58 -327 58 -327 72.5 -332 c 128,-1,8
 87 -337 87 -337 137 -337 c 0,9,10
 229 -337 229 -337 259 -327.5 c 128,-1,11
 289 -318 289 -318 330.5 -292 c 128,-1,12
 372 -266 372 -266 384 -244 c 128,-1,13
 396 -222 396 -222 396 -182 c 0,14,15
 396 -130 396 -130 360.5 -98 c 128,-1,16
 325 -66 325 -66 256 -43.5 c 128,-1,17
 187 -21 187 -21 170.5 -12.5 c 128,-1,18
 154 -4 154 -4 154 2.5 c 128,-1,19
 154 9 154 9 157.5 15.5 c 128,-1,20
 161 22 161 22 161 26 c 128,-1,21
 161 30 161 30 151.5 30.5 c 128,-1,22
 142 31 142 31 134 31 c 0,23,24
 30 31 30 31 30 155 c 0,25,26
 30 194 30 194 44 225.5 c 128,-1,27
 58 257 58 257 79.5 281.5 c 128,-1,28
 101 306 101 306 124.5 319.5 c 128,-1,29
 148 333 148 333 191.5 348 c 128,-1,30
 235 363 235 363 257 363 c 0,31,32
 270 363 270 363 279.5 359.5 c 128,-1,33
 289 356 289 356 301 346 c 128,-1,34
 313 336 313 336 322 336 c 128,-1,35
 331 336 331 336 345 339 c 128,-1,36
 359 342 359 342 392 345 c 128,-1,37
 425 348 425 348 449.5 349 c 128,-1,38
 474 350 474 350 479 350 c 128,-1,39
 484 350 484 350 487 344 c 0,40,41
 499 314 499 314 499 310 c 0,42,43
 499 307 499 307 457 306 c 128,-1,44
 415 305 415 305 389 301 c 128,-1,45
 363 297 363 297 356 293.5 c 128,-1,46
 349 290 349 290 349 282.5 c 128,-1,47
 349 275 349 275 351.5 265 c 128,-1,48
 354 255 354 255 354 240 c 0,49,50
 354 189 354 189 340 162 c 128,-1,51
 326 135 326 135 301.5 108 c 128,-1,52
 277 81 277 81 257.5 64.5 c 128,-1,53
 238 48 238 48 238 40.5 c 128,-1,54
 238 33 238 33 253.5 24 c 128,-1,55
 269 15 269 15 301.5 7 c 128,-1,56
 334 -1 334 -1 371.5 -13.5 c 128,-1,57
 409 -26 409 -26 436.5 -51.5 c 128,-1,58
 464 -77 464 -77 464 -142 c 0,59,60
 464 -201 464 -201 427 -241 c 128,-1,61
 390 -281 390 -281 341 -309.5 c 128,-1,62
 292 -338 292 -338 257 -356.5 c 128,-1,63
 222 -375 222 -375 161.5 -383.5 c 128,-1,64
 101 -392 101 -392 69 -392 c 0,65,66
 -29 -392 -29 -392 -29 -370 c 0,0,1
98 187 m 0,67,68
 98 137 98 137 115 107.5 c 128,-1,69
 132 78 132 78 142.5 72.5 c 128,-1,70
 153 67 153 67 166 67 c 256,71,72
 179 67 179 67 198 68 c 128,-1,73
 217 69 217 69 227 74 c 128,-1,74
 237 79 237 79 252.5 100 c 128,-1,75
 268 121 268 121 275.5 143 c 128,-1,76
 283 165 283 165 283 189 c 0,77,78
 283 228 283 228 269 257 c 128,-1,79
 255 286 255 286 227.5 304 c 128,-1,80
 200 322 200 322 186 322 c 0,81,82
 159 322 159 322 140.5 304.5 c 128,-1,83
 122 287 122 287 110 255.5 c 128,-1,84
 98 224 98 224 98 187 c 0,67,68
EndSplineSet
Validated: 3073
Layer: 2
Substitution2: "Single Substitution no tag - 3-1" g.alt1
Substitution2: "'ss07' Underdotted-1" uni00670323
Substitution2: "'titl' Titling caps from lc-1" G.titling
Substitution2: "'smcp' Lowercase to Small Capitals in Latin lookup 8-1" g.sc
Substitution2: "Single Substitution no tag - 2-1" g.alt2
Substitution2: "Single Substitution no tag-1" g.alt1
EndChar

StartChar: d
Encoding: 100 100 4
GlifName: d
Width: 430
Flags: MW
LayerCount: 3
Back
Fore
SplineSet
13 145 m 256,0,1
 13 171 13 171 17 193.5 c 128,-1,2
 21 216 21 216 47 260 c 128,-1,3
 73 304 73 304 93.5 321 c 128,-1,4
 114 338 114 338 164 353 c 128,-1,5
 214 368 214 368 255 368 c 0,6,7
 270 368 270 368 282.5 365 c 128,-1,8
 295 362 295 362 303 362 c 128,-1,9
 311 362 311 362 311 387 c 128,-1,10
 311 412 311 412 308 436.5 c 128,-1,11
 305 461 305 461 297 503 c 128,-1,12
 289 545 289 545 277.5 565 c 128,-1,13
 266 585 266 585 266 600 c 128,-1,14
 266 615 266 615 298.5 627.5 c 128,-1,15
 331 640 331 640 351 640 c 128,-1,16
 371 640 371 640 386.5 635 c 128,-1,17
 402 630 402 630 402 619 c 0,18,19
 402 614 402 614 395 600.5 c 128,-1,20
 388 587 388 587 382.5 535.5 c 128,-1,21
 377 484 377 484 374 414.5 c 128,-1,22
 371 345 371 345 366 297 c 128,-1,23
 361 249 361 249 360 145 c 2,24,-1
 358 35 l 1,25,26
 367 26 367 26 379.5 21 c 128,-1,27
 392 16 392 16 402 16 c 128,-1,28
 412 16 412 16 418.5 17.5 c 128,-1,29
 425 19 425 19 428 19 c 128,-1,30
 431 19 431 19 431 17 c 0,31,32
 431 11 431 11 401.5 -4 c 128,-1,33
 372 -19 372 -19 322 -19 c 0,34,35
 307 -19 307 -19 301 -15 c 128,-1,36
 295 -11 295 -11 295 -4.5 c 128,-1,37
 295 2 295 2 297 11 c 128,-1,38
 299 20 299 20 299 28 c 128,-1,39
 299 36 299 36 290 36 c 128,-1,40
 281 36 281 36 247.5 19 c 128,-1,41
 214 2 214 2 198.5 -2 c 128,-1,42
 183 -6 183 -6 168 -6 c 0,43,44
 83 -6 83 -6 50 21 c 128,-1,45
 17 48 17 48 15 83.5 c 128,-1,46
 13 119 13 119 13 145 c 256,0,1
81 192 m 0,47,48
 81 175 81 175 86 139 c 128,-1,49
 91 103 91 103 107.5 81 c 128,-1,50
 124 59 124 59 152 45 c 128,-1,51
 180 31 180 31 212 31 c 0,52,53
 246 31 246 31 264 56 c 128,-1,54
 282 81 282 81 290.5 129 c 128,-1,55
 299 177 299 177 299 204 c 0,56,57
 299 246 299 246 283.5 273 c 128,-1,58
 268 300 268 300 242.5 316 c 128,-1,59
 217 332 217 332 199 332 c 0,60,61
 164 332 164 332 140 309.5 c 128,-1,62
 116 287 116 287 98.5 255.5 c 128,-1,63
 81 224 81 224 81 192 c 0,47,48
EndSplineSet
Validated: 3073
Layer: 2
AlternateSubs2: "'salt' Stylistic Alternatives in Latin lookup 26-1" d.enlarged
Substitution2: "'ss14' Enlarged minuscules-1" d.enlarged
Substitution2: "'ss07' Underdotted-1" uni1E0D
Substitution2: "'titl' Titling caps from lc-1" D.titling
Substitution2: "'smcp' Lowercase to Small Capitals in Latin lookup 8-1" d.sc
EndChar

StartChar: e
Encoding: 101 101 5
GlifName: e
Width: 295
Flags: MW
LayerCount: 3
Back
Fore
SplineSet
13 165 m 0,0,1
 13 250 13 250 44 290 c 128,-1,2
 75 330 75 330 119 345 c 128,-1,3
 163 360 163 360 188 360 c 256,4,5
 213 360 213 360 222.5 356.5 c 128,-1,6
 232 353 232 353 246 327 c 128,-1,7
 260 301 260 301 265 301 c 128,-1,8
 270 301 270 301 280.5 302 c 128,-1,9
 291 303 291 303 296 303 c 0,10,11
 312 303 312 303 312 296 c 0,12,13
 312 290 312 290 294.5 284 c 128,-1,14
 277 278 277 278 244.5 273 c 128,-1,15
 212 268 212 268 174 263 c 128,-1,16
 136 258 136 258 113 254 c 128,-1,17
 90 250 90 250 84.5 243 c 128,-1,18
 79 236 79 236 79 204 c 0,19,20
 79 104 79 104 119 66 c 128,-1,21
 159 28 159 28 191 28 c 0,22,23
 255 28 255 28 278.5 64 c 128,-1,24
 302 100 302 100 309 100 c 128,-1,25
 316 100 316 100 316 86 c 0,26,27
 316 80 316 80 301.5 58 c 128,-1,28
 287 36 287 36 242.5 15.5 c 128,-1,29
 198 -5 198 -5 144 -5 c 0,30,31
 104 -5 104 -5 72 12 c 128,-1,32
 40 29 40 29 26.5 58 c 128,-1,33
 13 87 13 87 13 165 c 0,0,1
90 282 m 0,34,35
 90 278 90 278 93.5 276.5 c 128,-1,36
 97 275 97 275 101.5 275 c 128,-1,37
 106 275 106 275 128.5 278.5 c 128,-1,38
 151 282 151 282 169 284.5 c 128,-1,39
 187 287 187 287 190.5 290.5 c 128,-1,40
 194 294 194 294 194 306 c 128,-1,41
 194 318 194 318 181.5 327.5 c 128,-1,42
 169 337 169 337 155 337 c 0,43,44
 135 337 135 337 116.5 321 c 128,-1,45
 98 305 98 305 94 294.5 c 128,-1,46
 90 284 90 284 90 282 c 0,34,35
EndSplineSet
Validated: 3073
Layer: 2
Substitution2: "'ss07' Underdotted-1" uni1EB9
AlternateSubs2: "'salt' Stylistic Alternatives in Latin lookup 26-1" e.alt02 e.alt04
Substitution2: "Single subsitution no tag - 4-1" e.alt04
Substitution2: "'swsh' Swash in Latin lookup 22-1" e.swash
Substitution2: "Single Substitution no tag - 3-1" e.alt03
Substitution2: "Single Substitution no tag - 2-1" e.alt02
Substitution2: "'titl' Titling caps from lc-1" E.titling
Substitution2: "'smcp' Lowercase to Small Capitals in Latin lookup 8-1" e.sc
Substitution2: "Single Substitution no tag-1" e.alt01
EndChar

StartChar: f
Encoding: 102 102 6
GlifName: f
Width: 280
Flags: MW
LayerCount: 3
Back
Fore
SplineSet
18 300 m 0,0,1
 18 314 18 314 30 325 c 2,2,-1
 57 347 l 2,3,4
 69 357 69 357 70 389.5 c 128,-1,5
 71 422 71 422 71.5 475.5 c 128,-1,6
 72 529 72 529 73 544.5 c 128,-1,7
 74 560 74 560 77.5 567 c 128,-1,8
 81 574 81 574 94 585 c 128,-1,9
 107 596 107 596 142 613 c 128,-1,10
 177 630 177 630 207 638.5 c 128,-1,11
 237 647 237 647 269 647 c 256,12,13
 301 647 301 647 310.5 643.5 c 128,-1,14
 320 640 320 640 337.5 623 c 128,-1,15
 355 606 355 606 355 601 c 0,16,17
 355 587 355 587 346 581.5 c 128,-1,18
 337 576 337 576 311 564.5 c 128,-1,19
 285 553 285 553 280 553 c 128,-1,20
 275 553 275 553 269 567.5 c 128,-1,21
 263 582 263 582 243.5 596 c 128,-1,22
 224 610 224 610 200 610 c 0,23,24
 184 610 184 610 163 598 c 128,-1,25
 142 586 142 586 139 572 c 128,-1,26
 136 558 136 558 135 511 c 128,-1,27
 134 464 134 464 134 407.5 c 128,-1,28
 134 351 134 351 138 346.5 c 128,-1,29
 142 342 142 342 173.5 342 c 128,-1,30
 205 342 205 342 218 342 c 2,31,-1
 281 344 l 2,32,33
 292 344 292 344 292 330 c 256,34,35
 292 316 292 316 285.5 313 c 128,-1,36
 279 310 279 310 211 303 c 128,-1,37
 143 296 143 296 143 291 c 128,-1,38
 143 286 143 286 141.5 107 c 128,-1,39
 140 -72 140 -72 134.5 -83 c 128,-1,40
 129 -94 129 -94 107.5 -106.5 c 128,-1,41
 86 -119 86 -119 82 -119 c 0,42,43
 75 -119 75 -119 75 -108 c 2,44,-1
 75 134 l 2,45,46
 75 235 75 235 69 251 c 128,-1,47
 63 267 63 267 48 270 c 128,-1,48
 33 273 33 273 25.5 280.5 c 128,-1,49
 18 288 18 288 18 300 c 0,0,1
EndSplineSet
Validated: 3073
Layer: 2
AlternateSubs2: "'salt' Stylistic Alternatives in Latin lookup 26-1" f.enlarged
Substitution2: "'ss14' Enlarged minuscules-1" f.enlarged
Substitution2: "'ss07' Underdotted-1" uni00660323
Substitution2: "Single Substitution no tag - 2-1" f.alt2
Substitution2: "'titl' Titling caps from lc-1" F.titling
Substitution2: "'smcp' Lowercase to Small Capitals in Latin lookup 8-1" f.sc
Substitution2: "Single Substitution no tag-1" f.alt1
EndChar

StartChar: h
Encoding: 104 104 7
GlifName: h
Width: 405
Flags: MW
LayerCount: 3
Back
Fore
SplineSet
101 640 m 0,0,1
 115 640 115 640 115 626 c 0,2,3
 115 594 115 594 110 543 c 128,-1,4
 105 492 105 492 97.5 423.5 c 128,-1,5
 90 355 90 355 90 331 c 128,-1,6
 90 307 90 307 95 307 c 0,7,8
 103 307 103 307 160.5 337 c 128,-1,9
 218 367 218 367 262 367 c 0,10,11
 291 367 291 367 312 351 c 128,-1,12
 333 335 333 335 350 302.5 c 128,-1,13
 367 270 367 270 372.5 238 c 128,-1,14
 378 206 378 206 378 190 c 0,15,16
 378 154 378 154 364.5 122.5 c 128,-1,17
 351 91 351 91 316.5 53 c 128,-1,18
 282 15 282 15 251 -2.5 c 128,-1,19
 220 -20 220 -20 216 -20 c 256,20,21
 212 -20 212 -20 212 -17.5 c 128,-1,22
 212 -15 212 -15 229.5 -1 c 128,-1,23
 247 13 247 13 265 37.5 c 128,-1,24
 283 62 283 62 294 98 c 128,-1,25
 305 134 305 134 305 171 c 0,26,27
 305 213 305 213 289.5 245.5 c 128,-1,28
 274 278 274 278 257.5 294.5 c 128,-1,29
 241 311 241 311 224.5 320.5 c 128,-1,30
 208 330 208 330 193 330 c 0,31,32
 166 330 166 330 142.5 304 c 128,-1,33
 119 278 119 278 111 260.5 c 128,-1,34
 103 243 103 243 98 234 c 0,35,36
 90 218 90 218 87 171.5 c 128,-1,37
 84 125 84 125 83 86.5 c 128,-1,38
 82 48 82 48 82 41 c 128,-1,39
 82 34 82 34 107 32.5 c 128,-1,40
 132 31 132 31 132 26.5 c 128,-1,41
 132 22 132 22 106 9.5 c 128,-1,42
 80 -3 80 -3 33 -5 c 0,43,44
 21 -5 21 -5 21 9 c 0,45,46
 18 93 18 93 18 146 c 128,-1,47
 18 199 18 199 23 273.5 c 128,-1,48
 28 348 28 348 28 383 c 128,-1,49
 28 418 28 418 24.5 467.5 c 128,-1,50
 21 517 21 517 11.5 547 c 128,-1,51
 2 577 2 577 2 587.5 c 128,-1,52
 2 598 2 598 8 604.5 c 128,-1,53
 14 611 14 611 44.5 625.5 c 128,-1,54
 75 640 75 640 101 640 c 0,0,1
EndSplineSet
Validated: 3073
Layer: 2
Substitution2: "'ss07' Underdotted-1" uni1E25
Substitution2: "'titl' Titling caps from lc-1" H.titling
Substitution2: "'smcp' Lowercase to Small Capitals in Latin lookup 8-1" h.sc
EndChar

StartChar: i
Encoding: 105 105 8
GlifName: i
Width: 207
VWidth: 0
Flags: MW
AnchorPoint: "std below anchor" 86 -49 basechar 0
AnchorPoint: "std above anchor" 101 586 basechar 0
LayerCount: 3
Back
Fore
SplineSet
76 525 m 128,-1,1
 76 541 76 541 85.5 550.5 c 128,-1,2
 95 560 95 560 111 560 c 128,-1,3
 127 560 127 560 136.5 550.5 c 128,-1,4
 146 541 146 541 146 525 c 128,-1,5
 146 509 146 509 136.5 499 c 128,-1,6
 127 489 127 489 111 489 c 128,-1,7
 95 489 95 489 85.5 499 c 128,-1,0
 76 509 76 509 76 525 c 128,-1,1
7 296 m 259,8,9
 7 313 7 313 16 321.5 c 128,-1,10
 25 330 25 330 58 345.5 c 128,-1,11
 91 361 91 361 123 361 c 256,12,13
 139 361 139 361 139 341 c 3,14,15
 139 296 139 296 131.5 271.5 c 128,-1,16
 124 247 124 247 121.5 188.5 c 128,-1,17
 119 130 119 130 119 95.5 c 128,-1,18
 119 61 119 61 124.5 46.5 c 128,-1,19
 130 32 130 32 146 32 c 0,20,21
 164 32 164 32 184 41.5 c 128,-1,22
 204 51 204 51 209 51 c 3,23,24
 211 51 211 51 211 49 c 3,25,26
 211 45 211 45 174 26.5 c 128,-1,27
 137 8 137 8 121 4 c 128,-1,28
 105 0 105 0 80 -0 c 256,29,30
 55 0 55 0 48 0 c 0,31,32
 42 1 42 1 42 7 c 0,33,34
 42 12 42 12 47 33.5 c 128,-1,35
 52 55 52 55 55.5 110.5 c 128,-1,36
 59 166 59 166 63.5 201 c 128,-1,37
 68 236 68 236 68 251.5 c 128,-1,38
 68 267 68 267 37.5 275 c 128,-1,39
 7 283 7 283 7 296 c 259,8,9
EndSplineSet
Validated: 3073
Layer: 2
Substitution2: "'ss07' Underdotted-1" uni1ECB
Substitution2: "'swsh' Swash in Latin lookup 22-1" i.swash
Substitution2: "Single subsitution no tag - 4-1" dotlessi
Substitution2: "Single Substitution no tag-1" i.alt
Substitution2: "'titl' Titling caps from lc-1" I.titling
Substitution2: "'smcp' Lowercase to Small Capitals in Latin lookup 8-1" i.sc
Substitution2: "'hist' Medievalize-1" dotlessi
EndChar

StartChar: l
Encoding: 108 108 9
GlifName: l
Width: 235
Flags: MW
LayerCount: 3
Back
Fore
SplineSet
20 596 m 256,0,1
 20 604 20 604 58 623 c 128,-1,2
 96 642 96 642 124 642 c 0,3,4
 147 642 147 642 152 634 c 128,-1,5
 157 626 157 626 157 616 c 128,-1,6
 157 606 157 606 142.5 563.5 c 128,-1,7
 128 521 128 521 118 438.5 c 128,-1,8
 108 356 108 356 107.5 310 c 128,-1,9
 107 264 107 264 104.5 230 c 128,-1,10
 102 196 102 196 102 171.5 c 128,-1,11
 102 147 102 147 106.5 105 c 128,-1,12
 111 63 111 63 128.5 49 c 128,-1,13
 146 35 146 35 184 35 c 0,14,15
 216 35 216 35 240 45 c 128,-1,16
 264 55 264 55 274.5 75 c 128,-1,17
 285 95 285 95 293.5 95 c 128,-1,18
 302 95 302 95 302 81 c 0,19,20
 302 66 302 66 280 49 c 128,-1,21
 258 32 258 32 216 14.5 c 128,-1,22
 174 -3 174 -3 152.5 -4 c 128,-1,23
 131 -5 131 -5 113 -5 c 0,24,25
 72 -5 72 -5 51.5 15 c 128,-1,26
 31 35 31 35 31 44.5 c 128,-1,27
 31 54 31 54 39 194.5 c 128,-1,28
 47 335 47 335 47 400.5 c 128,-1,29
 47 466 47 466 43.5 495.5 c 128,-1,30
 40 525 40 525 30 556.5 c 128,-1,31
 20 588 20 588 20 596 c 256,0,1
EndSplineSet
Validated: 3073
Layer: 2
Substitution2: "'ss07' Underdotted-1" uni1E37
Substitution2: "'titl' Titling caps from lc-1" L.titling
Substitution2: "'smcp' Lowercase to Small Capitals in Latin lookup 8-1" l.sc
EndChar

StartChar: m
Encoding: 109 109 10
GlifName: m
Width: 629
Flags: MW
LayerCount: 3
Back
Fore
SplineSet
4 304 m 0,0,1
 4 317 4 317 34.5 336 c 128,-1,2
 65 355 65 355 91.5 365 c 128,-1,3
 118 375 118 375 122 375 c 0,4,5
 129 375 129 375 134.5 362.5 c 128,-1,6
 140 350 140 350 142 330 c 128,-1,7
 144 310 144 310 147.5 310 c 128,-1,8
 151 310 151 310 157 315 c 128,-1,9
 163 320 163 320 204 340 c 128,-1,10
 245 360 245 360 288 360 c 0,11,12
 308 360 308 360 327.5 344 c 128,-1,13
 347 328 347 328 350.5 322.5 c 128,-1,14
 354 317 354 317 357 317 c 128,-1,15
 360 317 360 317 370.5 323.5 c 128,-1,16
 381 330 381 330 416.5 345 c 128,-1,17
 452 360 452 360 485 360 c 0,18,19
 504 360 504 360 528.5 353.5 c 128,-1,20
 553 347 553 347 564 314 c 128,-1,21
 575 281 575 281 575 264 c 0,22,23
 575 221 575 221 564 156 c 2,24,-1
 555 97 l 2,25,26
 551 69 551 69 551 55.5 c 128,-1,27
 551 42 551 42 557 37 c 128,-1,28
 563 32 563 32 577 27 c 0,29,30
 590 23 590 23 590 18 c 256,31,32
 590 13 590 13 568 3 c 256,33,34
 546 -7 546 -7 517 -7 c 128,-1,35
 488 -7 488 -7 485 -3 c 128,-1,36
 482 1 482 1 482 7.5 c 128,-1,37
 482 14 482 14 485.5 44.5 c 128,-1,38
 489 75 489 75 496 105.5 c 128,-1,39
 503 136 503 136 503 163 c 128,-1,40
 503 190 503 190 502 224.5 c 128,-1,41
 501 259 501 259 493 278 c 128,-1,42
 485 297 485 297 464 311.5 c 128,-1,43
 443 326 443 326 435 326 c 0,44,45
 415 326 415 326 398 312 c 128,-1,46
 381 298 381 298 370.5 280 c 128,-1,47
 360 262 360 262 357.5 238.5 c 128,-1,48
 355 215 355 215 352 200 c 128,-1,49
 349 185 349 185 346 140 c 128,-1,50
 343 95 343 95 341 82.5 c 128,-1,51
 339 70 339 70 339 62.5 c 128,-1,52
 339 55 339 55 345 46 c 128,-1,53
 351 37 351 37 362 35 c 128,-1,54
 373 33 373 33 373 30.5 c 128,-1,55
 373 28 373 28 363.5 22 c 128,-1,56
 354 16 354 16 335.5 7.5 c 128,-1,57
 317 -1 317 -1 293.5 -1 c 128,-1,58
 270 -1 270 -1 266 2.5 c 128,-1,59
 262 6 262 6 262 21 c 128,-1,60
 262 36 262 36 273.5 99.5 c 128,-1,61
 285 163 285 163 285 216 c 128,-1,62
 285 269 285 269 277 286 c 128,-1,63
 269 303 269 303 255 314.5 c 128,-1,64
 241 326 241 326 228 326 c 0,65,66
 218 326 218 326 198 315.5 c 128,-1,67
 178 305 178 305 164 291 c 128,-1,68
 150 277 150 277 141 261.5 c 128,-1,69
 132 246 132 246 124 168 c 128,-1,70
 116 90 116 90 116 71 c 128,-1,71
 116 52 116 52 120.5 43.5 c 128,-1,72
 125 35 125 35 139 30 c 128,-1,73
 153 25 153 25 153 22 c 128,-1,74
 153 19 153 19 139 10.5 c 128,-1,75
 125 2 125 2 101.5 -2 c 128,-1,76
 78 -6 78 -6 64 -6 c 128,-1,77
 50 -6 50 -6 47 -3.5 c 128,-1,78
 44 -1 44 -1 44 8.5 c 128,-1,79
 44 18 44 18 55.5 88.5 c 128,-1,80
 67 159 67 159 67 230 c 0,81,82
 67 259 67 259 48 264 c 128,-1,83
 29 269 29 269 16.5 281 c 128,-1,84
 4 293 4 293 4 304 c 0,0,1
EndSplineSet
Validated: 3073
Layer: 2
Substitution2: "'ss07' Underdotted-1" uni1E43
Substitution2: "Single Substitution no tag-1" m.alt
Substitution2: "'titl' Titling caps from lc-1" M.titling
Substitution2: "'smcp' Lowercase to Small Capitals in Latin lookup 8-1" m.sc
EndChar

StartChar: n
Encoding: 110 110 11
GlifName: n
Width: 420
Flags: MW
LayerCount: 3
Back
Fore
SplineSet
4 304 m 0,0,1
 4 318 4 318 34.5 336.5 c 128,-1,2
 65 355 65 355 91.5 365 c 128,-1,3
 118 375 118 375 122 375 c 0,4,5
 129 375 129 375 135 362.5 c 128,-1,6
 141 350 141 350 141 327.5 c 128,-1,7
 141 305 141 305 147 305 c 128,-1,8
 153 305 153 305 187 325.5 c 128,-1,9
 221 346 221 346 243 352.5 c 128,-1,10
 265 359 265 359 292 359 c 0,11,12
 311 359 311 359 327 353 c 128,-1,13
 343 347 343 347 354.5 314 c 128,-1,14
 366 281 366 281 366 264 c 0,15,16
 366 221 366 221 355 156 c 2,17,-1
 346 97 l 2,18,19
 342 69 342 69 342 59 c 128,-1,20
 342 49 342 49 347 40.5 c 128,-1,21
 352 32 352 32 366.5 27.5 c 128,-1,22
 381 23 381 23 381 18 c 128,-1,23
 381 13 381 13 358.5 3 c 128,-1,24
 336 -7 336 -7 292 -7 c 0,25,26
 279 -7 279 -7 276 -3 c 128,-1,27
 273 1 273 1 273 7 c 128,-1,28
 273 13 273 13 276.5 44 c 128,-1,29
 280 75 280 75 286.5 105.5 c 128,-1,30
 293 136 293 136 293 163 c 128,-1,31
 293 190 293 190 292.5 224.5 c 128,-1,32
 292 259 292 259 284 278 c 128,-1,33
 276 297 276 297 259.5 311.5 c 128,-1,34
 243 326 243 326 233 326 c 0,35,36
 224 326 224 326 188.5 303.5 c 128,-1,37
 153 281 153 281 143 264.5 c 128,-1,38
 133 248 133 248 124.5 169 c 128,-1,39
 116 90 116 90 116 71 c 128,-1,40
 116 52 116 52 120.5 43.5 c 128,-1,41
 125 35 125 35 139 30 c 128,-1,42
 153 25 153 25 153 22.5 c 128,-1,43
 153 20 153 20 137.5 10.5 c 128,-1,44
 122 1 122 1 93 -2.5 c 128,-1,45
 64 -6 64 -6 57 -6 c 128,-1,46
 50 -6 50 -6 47.5 -3.5 c 128,-1,47
 45 -1 45 -1 45 7 c 128,-1,48
 45 15 45 15 56 87 c 128,-1,49
 67 159 67 159 67 230 c 0,50,51
 67 265 67 265 48 267 c 128,-1,52
 29 269 29 269 16.5 281 c 128,-1,53
 4 293 4 293 4 304 c 0,0,1
EndSplineSet
Validated: 3073
Layer: 2
AlternateSubs2: "'salt' Stylistic Alternatives in Latin lookup 26-1" n.alt2
Substitution2: "'ss07' Underdotted-1" uni1E47
Substitution2: "'swsh' Swash in Latin lookup 22-1" n.swash
Substitution2: "Single Substitution no tag-1" n.alt1
Substitution2: "'titl' Titling caps from lc-1" N.titling
Substitution2: "'smcp' Lowercase to Small Capitals in Latin lookup 8-1" n.sc
EndChar

StartChar: o
Encoding: 111 111 12
GlifName: o
Width: 367
Flags: MW
LayerCount: 3
Back
Fore
SplineSet
7 134 m 256,0,1
 7 177 7 177 14 202.5 c 128,-1,2
 21 228 21 228 31.5 245.5 c 128,-1,3
 42 263 42 263 70.5 293.5 c 128,-1,4
 99 324 99 324 141.5 341.5 c 128,-1,5
 184 359 184 359 224 359 c 0,6,7
 266 359 266 359 282.5 345 c 128,-1,8
 299 331 299 331 316 301 c 128,-1,9
 333 271 333 271 336.5 256 c 128,-1,10
 340 241 340 241 340 201 c 0,11,12
 340 151 340 151 320.5 112 c 128,-1,13
 301 73 301 73 270.5 45.5 c 128,-1,14
 240 18 240 18 205.5 5.5 c 128,-1,15
 171 -7 171 -7 149 -7 c 0,16,17
 139 -7 139 -7 111.5 -4.5 c 128,-1,18
 84 -2 84 -2 56.5 24 c 128,-1,19
 29 50 29 50 18 70.5 c 128,-1,20
 7 91 7 91 7 134 c 256,0,1
76 180 m 0,21,22
 76 127 76 127 94.5 92.5 c 128,-1,23
 113 58 113 58 148 44.5 c 128,-1,24
 183 31 183 31 193 31 c 256,25,26
 203 31 203 31 219 36.5 c 128,-1,27
 235 42 235 42 242.5 49 c 128,-1,28
 250 56 250 56 264 84.5 c 128,-1,29
 278 113 278 113 278 142 c 256,30,31
 278 171 278 171 267.5 211 c 128,-1,32
 257 251 257 251 242.5 274.5 c 128,-1,33
 228 298 228 298 206 307.5 c 128,-1,34
 184 317 184 317 174 317 c 256,35,36
 164 317 164 317 152.5 315 c 128,-1,37
 141 313 141 313 117.5 295 c 128,-1,38
 94 277 94 277 85 254.5 c 128,-1,39
 76 232 76 232 76 180 c 0,21,22
EndSplineSet
Validated: 3073
Layer: 2
Substitution2: "'ss07' Underdotted-1" uni1ECD
Substitution2: "'titl' Titling caps from lc-1" O.titling
Substitution2: "'smcp' Lowercase to Small Capitals in Latin lookup 8-1" o.sc
EndChar

StartChar: p
Encoding: 112 112 13
GlifName: p
Width: 439
Flags: MW
LayerCount: 3
Back
Fore
SplineSet
6 301 m 0,0,1
 6 308 6 308 18 322.5 c 128,-1,2
 30 337 30 337 70 351 c 128,-1,3
 110 365 110 365 118 365 c 0,4,5
 128 365 128 365 132 362 c 128,-1,6
 136 359 136 359 136 354 c 128,-1,7
 136 349 136 349 134.5 339.5 c 128,-1,8
 133 330 133 330 133 327 c 128,-1,9
 133 324 133 324 135 320 c 128,-1,10
 137 316 137 316 141.5 316 c 128,-1,11
 146 316 146 316 157.5 321 c 128,-1,12
 169 326 169 326 207 344 c 128,-1,13
 245 362 245 362 269 362 c 0,14,15
 305 362 305 362 333.5 348.5 c 128,-1,16
 362 335 362 335 382 310.5 c 128,-1,17
 402 286 402 286 407 263 c 128,-1,18
 412 240 412 240 412 189 c 0,19,20
 412 147 412 147 407.5 132 c 128,-1,21
 403 117 403 117 386 91.5 c 128,-1,22
 369 66 369 66 340 43.5 c 128,-1,23
 311 21 311 21 283 6.5 c 128,-1,24
 255 -8 255 -8 208 -8 c 0,25,26
 189 -8 189 -8 159.5 -2.5 c 128,-1,27
 130 3 130 3 125 3 c 0,28,29
 111 3 111 3 109 -11 c 0,30,31
 104 -44 104 -44 101 -126 c 128,-1,32
 98 -208 98 -208 97 -220.5 c 128,-1,33
 96 -233 96 -233 96 -241 c 128,-1,34
 96 -249 96 -249 96.5 -255.5 c 128,-1,35
 97 -262 97 -262 97 -267 c 0,36,37
 97 -274 97 -274 94.5 -279 c 128,-1,38
 92 -284 92 -284 74 -302 c 128,-1,39
 56 -320 56 -320 42 -320 c 0,40,41
 24 -320 24 -320 24 -312 c 128,-1,42
 24 -304 24 -304 32 -254 c 128,-1,43
 40 -204 40 -204 44 -78 c 128,-1,44
 48 48 48 48 55 122 c 128,-1,45
 62 196 62 196 62 218 c 128,-1,46
 62 240 62 240 56 250.5 c 128,-1,47
 50 261 50 261 34.5 266.5 c 128,-1,48
 19 272 19 272 12.5 282 c 128,-1,49
 6 292 6 292 6 301 c 0,0,1
118 181 m 0,50,51
 118 145 118 145 126 115.5 c 128,-1,52
 134 86 134 86 150.5 63 c 128,-1,53
 167 40 167 40 185.5 29.5 c 128,-1,54
 204 19 204 19 239 19 c 0,55,56
 260 19 260 19 285 34.5 c 128,-1,57
 310 50 310 50 321.5 72 c 128,-1,58
 333 94 333 94 338 123.5 c 128,-1,59
 343 153 343 153 343 168 c 0,60,61
 343 184 343 184 333 216 c 128,-1,62
 323 248 323 248 308.5 267 c 128,-1,63
 294 286 294 286 263 307 c 128,-1,64
 232 328 232 328 208 328 c 0,65,66
 187 328 187 328 166 306.5 c 128,-1,67
 145 285 145 285 131.5 255 c 128,-1,68
 118 225 118 225 118 181 c 0,50,51
EndSplineSet
Validated: 3073
Layer: 2
AlternateSubs2: "'salt' Stylistic Alternatives in Latin lookup 26-1" p.enlarged
Substitution2: "'ss14' Enlarged minuscules-1" p.enlarged
Substitution2: "'ss07' Underdotted-1" uni00700323
Substitution2: "Single Substitution no tag-1" p.alt
Substitution2: "'titl' Titling caps from lc-1" P.titling
Substitution2: "'smcp' Lowercase to Small Capitals in Latin lookup 8-1" p.sc
EndChar

StartChar: r
Encoding: 114 114 14
GlifName: r
Width: 286
Flags: MW
LayerCount: 3
Back
Fore
SplineSet
6 307 m 0,0,1
 6 310 6 310 12.5 318 c 128,-1,2
 19 326 19 326 49 339 c 128,-1,3
 79 352 79 352 90.5 355 c 128,-1,4
 102 358 102 358 112 358 c 256,5,6
 122 358 122 358 125.5 355 c 128,-1,7
 129 352 129 352 134 329 c 128,-1,8
 139 306 139 306 144 306 c 128,-1,9
 149 306 149 306 172.5 327 c 128,-1,10
 196 348 196 348 214.5 358 c 128,-1,11
 233 368 233 368 236 368 c 0,12,13
 243 368 243 368 250 355.5 c 128,-1,14
 257 343 257 343 274 335 c 128,-1,15
 291 327 291 327 298.5 327 c 128,-1,16
 306 327 306 327 312 328.5 c 128,-1,17
 318 330 318 330 319.5 330 c 128,-1,18
 321 330 321 330 322.5 328.5 c 128,-1,19
 324 327 324 327 324 323 c 0,20,21
 324 315 324 315 313 310 c 128,-1,22
 302 305 302 305 273.5 299.5 c 128,-1,23
 245 294 245 294 234 294 c 128,-1,24
 223 294 223 294 208 302 c 128,-1,25
 193 310 193 310 187.5 310 c 128,-1,26
 182 310 182 310 171.5 300.5 c 128,-1,27
 161 291 161 291 150.5 272.5 c 128,-1,28
 140 254 140 254 134.5 239.5 c 128,-1,29
 129 225 129 225 126.5 179 c 128,-1,30
 124 133 124 133 120 24 c 0,31,32
 119 2 119 2 105 -5 c 0,33,34
 68 -24 68 -24 60 -24 c 0,35,36
 50 -24 50 -24 50 -9 c 128,-1,37
 50 6 50 6 51 16 c 128,-1,38
 52 26 52 26 57.5 84 c 128,-1,39
 63 142 63 142 63 258 c 0,40,41
 63 271 63 271 50 274 c 128,-1,42
 37 277 37 277 21.5 289 c 128,-1,43
 6 301 6 301 6 307 c 0,0,1
EndSplineSet
Validated: 3073
Layer: 2
Substitution2: "'ss07' Underdotted-1" uni1E5B
AlternateSubs2: "'salt' Stylistic Alternatives in Latin lookup 26-1" uniA75B
Substitution2: "Single Substitution no tag-1" r.alt
Substitution2: "'titl' Titling caps from lc-1" R.titling
Substitution2: "'smcp' Lowercase to Small Capitals in Latin lookup 8-1" r.sc
EndChar

StartChar: q
Encoding: 113 113 15
GlifName: q
Width: 417
Flags: MW
LayerCount: 3
Back
Fore
SplineSet
12 147 m 0,0,1
 12 159 12 159 14.5 192.5 c 128,-1,2
 17 226 17 226 28.5 253 c 128,-1,3
 40 280 40 280 64.5 306 c 128,-1,4
 89 332 89 332 105 340 c 128,-1,5
 121 348 121 348 171 356.5 c 128,-1,6
 221 365 221 365 251 365 c 0,7,8
 270 365 270 365 280.5 363 c 128,-1,9
 291 361 291 361 301 361 c 128,-1,10
 311 361 311 361 335.5 372.5 c 128,-1,11
 360 384 360 384 373 384 c 128,-1,12
 386 384 386 384 386 377 c 0,13,14
 386 375 386 375 383.5 367.5 c 128,-1,15
 381 360 381 360 377 322.5 c 128,-1,16
 373 285 373 285 367.5 240.5 c 128,-1,17
 362 196 362 196 362 101 c 128,-1,18
 362 6 362 6 355 -48 c 128,-1,19
 348 -102 348 -102 348 -164.5 c 128,-1,20
 348 -227 348 -227 351 -238.5 c 128,-1,21
 354 -250 354 -250 354 -258 c 128,-1,22
 354 -266 354 -266 325.5 -285.5 c 128,-1,23
 297 -305 297 -305 276 -305 c 0,24,25
 272 -305 272 -305 272 -301.5 c 128,-1,26
 272 -298 272 -298 279.5 -264 c 128,-1,27
 287 -230 287 -230 291.5 -147 c 128,-1,28
 296 -64 296 -64 296 -44 c 128,-1,29
 296 -24 296 -24 295.5 -1.5 c 128,-1,30
 295 21 295 21 292.5 22.5 c 128,-1,31
 290 24 290 24 283 24 c 128,-1,32
 276 24 276 24 254 14 c 128,-1,33
 232 4 232 4 206.5 -2.5 c 128,-1,34
 181 -9 181 -9 153 -9 c 0,35,36
 97 -9 97 -9 71 16 c 128,-1,37
 45 41 45 41 28.5 83 c 128,-1,38
 12 125 12 125 12 147 c 0,0,1
83 196 m 0,39,40
 83 132 83 132 110 88.5 c 128,-1,41
 137 45 137 45 156 34 c 128,-1,42
 175 23 175 23 208 23 c 0,43,44
 261 23 261 23 278 43 c 128,-1,45
 295 63 295 63 295 123 c 0,46,47
 295 237 295 237 284 261.5 c 128,-1,48
 273 286 273 286 241 313 c 128,-1,49
 209 340 209 340 183 340 c 0,50,51
 167 340 167 340 136.5 322.5 c 128,-1,52
 106 305 106 305 94.5 275.5 c 128,-1,53
 83 246 83 246 83 196 c 0,39,40
EndSplineSet
Validated: 3073
Layer: 2
Substitution2: "'ss07' Underdotted-1" uni00710323
Substitution2: "'titl' Titling caps from lc-1" Q.titling
Substitution2: "'smcp' Lowercase to Small Capitals in Latin lookup 8-1" q.sc
EndChar

StartChar: t
Encoding: 116 116 16
GlifName: t
Width: 321
Flags: MW
LayerCount: 3
Back
Fore
SplineSet
110 173 m 0,0,1
 110 111 110 111 131.5 79.5 c 128,-1,2
 153 48 153 48 181 40.5 c 128,-1,3
 209 33 209 33 243 33 c 0,4,5
 264 33 264 33 278 42 c 128,-1,6
 292 51 292 51 311 81 c 128,-1,7
 330 111 330 111 330 124 c 1,8,9
 337 132 337 132 348 134 c 1,10,11
 351 126 351 126 359.5 126 c 128,-1,12
 368 126 368 126 368 118.5 c 128,-1,13
 368 111 368 111 358.5 92 c 128,-1,14
 349 73 349 73 324 54 c 128,-1,15
 299 35 299 35 259.5 15 c 128,-1,16
 220 -5 220 -5 169 -5 c 0,17,18
 145 -5 145 -5 110 2.5 c 128,-1,19
 75 10 75 10 56 39.5 c 128,-1,20
 37 69 37 69 37 100 c 0,21,22
 37 130 37 130 43.5 182 c 128,-1,23
 50 234 50 234 67 263.5 c 128,-1,24
 84 293 84 293 84 296 c 128,-1,25
 84 299 84 299 37.5 299 c 128,-1,26
 -9 299 -9 299 -9 308 c 0,27,28
 -9 316 -9 316 19.5 330.5 c 128,-1,29
 48 345 48 345 96.5 345 c 128,-1,30
 145 345 145 345 163.5 353 c 128,-1,31
 182 361 182 361 187 361 c 128,-1,32
 192 361 192 361 193.5 358.5 c 128,-1,33
 195 356 195 356 224 356 c 2,34,-1
 312 356 l 2,35,36
 383 356 383 356 383 346 c 0,37,38
 383 340 383 340 361 324.5 c 128,-1,39
 339 309 339 309 335 309 c 128,-1,40
 331 309 331 309 257 308 c 0,41,42
 141 307 141 307 130 285 c 0,43,44
 110 243 110 243 110 173 c 0,0,1
EndSplineSet
Validated: 3073
Layer: 2
Substitution2: "'ss07' Underdotted-1" uni1E6D
Substitution2: "'swsh' Swash in Latin lookup 22-1" t.swash
Substitution2: "Single Substitution no tag - 3-1" t.alt
Substitution2: "'titl' Titling caps from lc-1" T.titling
Substitution2: "'smcp' Lowercase to Small Capitals in Latin lookup 8-1" t.sc
EndChar

StartChar: u
Encoding: 117 117 17
GlifName: u
Width: 437
Flags: MW
LayerCount: 3
Back
Fore
SplineSet
4 301 m 256,0,1
 4 309 4 309 20 320.5 c 128,-1,2
 36 332 36 332 82.5 347.5 c 128,-1,3
 129 363 129 363 148 363 c 0,4,5
 158 363 158 363 165 362 c 128,-1,6
 172 361 172 361 172 355.5 c 128,-1,7
 172 350 172 350 163.5 339.5 c 128,-1,8
 155 329 155 329 151 314.5 c 128,-1,9
 147 300 147 300 130.5 258 c 128,-1,10
 114 216 114 216 114 141 c 0,11,12
 114 104 114 104 122.5 78.5 c 128,-1,13
 131 53 131 53 145.5 43.5 c 128,-1,14
 160 34 160 34 191 34 c 0,15,16
 233 34 233 34 254.5 48.5 c 128,-1,17
 276 63 276 63 282 74.5 c 128,-1,18
 288 86 288 86 290 114 c 128,-1,19
 292 142 292 142 294 171.5 c 128,-1,20
 296 201 296 201 298.5 223.5 c 128,-1,21
 301 246 301 246 301 256 c 128,-1,22
 301 266 301 266 294 269.5 c 128,-1,23
 287 273 287 273 268.5 287.5 c 128,-1,24
 250 302 250 302 250 312 c 0,25,26
 250 328 250 328 276.5 341.5 c 128,-1,27
 303 355 303 355 333.5 364.5 c 128,-1,28
 364 374 364 374 381 374 c 0,29,30
 388 374 388 374 388 359.5 c 128,-1,31
 388 345 388 345 373 278 c 128,-1,32
 358 211 358 211 354.5 150.5 c 128,-1,33
 351 90 351 90 351 81 c 128,-1,34
 351 72 351 72 351.5 57.5 c 128,-1,35
 352 43 352 43 361.5 34.5 c 128,-1,36
 371 26 371 26 381 26 c 0,37,38
 393 26 393 26 406.5 29 c 128,-1,39
 420 32 420 32 430.5 36.5 c 128,-1,40
 441 41 441 41 443.5 41 c 128,-1,41
 446 41 446 41 446 37 c 0,42,43
 446 35 446 35 434 26.5 c 128,-1,44
 422 18 422 18 390.5 4.5 c 128,-1,45
 359 -9 359 -9 312 -9 c 0,46,47
 291 -9 291 -9 286.5 -5.5 c 128,-1,48
 282 -2 282 -2 279.5 6.5 c 128,-1,49
 277 15 277 15 273.5 19.5 c 128,-1,50
 270 24 270 24 264 24 c 128,-1,51
 258 24 258 24 247.5 22 c 128,-1,52
 237 20 237 20 202 7 c 128,-1,53
 167 -6 167 -6 125 -6 c 0,54,55
 106 -6 106 -6 89.5 0.5 c 128,-1,56
 73 7 73 7 64 17 c 128,-1,57
 55 27 55 27 51 38.5 c 128,-1,58
 47 50 47 50 47 115 c 256,59,60
 47 180 47 180 56.5 209.5 c 128,-1,61
 66 239 66 239 66 245 c 128,-1,62
 66 251 66 251 63 254.5 c 128,-1,63
 60 258 60 258 44.5 264 c 128,-1,64
 29 270 29 270 16.5 281.5 c 128,-1,65
 4 293 4 293 4 301 c 256,0,1
EndSplineSet
Validated: 3073
Layer: 2
Substitution2: "'ss07' Underdotted-1" uni1EE5
Substitution2: "Single Substitution no tag-1" u.alt
Substitution2: "'titl' Titling caps from lc-1" U.titling
Substitution2: "'smcp' Lowercase to Small Capitals in Latin lookup 8-1" u.sc
EndChar

StartChar: x
Encoding: 120 120 18
GlifName: x
Width: 447
Flags: MW
LayerCount: 3
Back
Fore
SplineSet
-187 -117 m 0,0,1
 -187 -110 -187 -110 -151.5 -78 c 128,-1,2
 -116 -46 -116 -46 -113 -46 c 128,-1,3
 -110 -46 -110 -46 -110 -48 c 128,-1,4
 -110 -50 -110 -50 -114.5 -60 c 128,-1,5
 -119 -70 -119 -70 -119 -74 c 128,-1,6
 -119 -78 -119 -78 -111 -82 c 128,-1,7
 -103 -86 -103 -86 -93.5 -86 c 128,-1,8
 -84 -86 -84 -86 -51 -71 c 128,-1,9
 -18 -56 -18 -56 28.5 -8 c 128,-1,10
 75 40 75 40 107 94.5 c 128,-1,11
 139 149 139 149 144 169 c 128,-1,12
 149 189 149 189 149 200 c 0,13,14
 149 227 149 227 122 270.5 c 128,-1,15
 95 314 95 314 89 319 c 128,-1,16
 83 324 83 324 75.5 324 c 128,-1,17
 68 324 68 324 54.5 316.5 c 128,-1,18
 41 309 41 309 27 299.5 c 128,-1,19
 13 290 13 290 9 290 c 128,-1,20
 5 290 5 290 5 294 c 128,-1,21
 5 298 5 298 28.5 313.5 c 128,-1,22
 52 329 52 329 79 343.5 c 128,-1,23
 106 358 106 358 121 358 c 256,24,25
 136 358 136 358 155 344 c 128,-1,26
 174 330 174 330 190 305 c 128,-1,27
 206 280 206 280 210.5 280 c 128,-1,28
 215 280 215 280 248 316 c 128,-1,29
 281 352 281 352 300 358.5 c 128,-1,30
 319 365 319 365 332 365 c 0,31,32
 346 365 346 365 359 359.5 c 128,-1,33
 372 354 372 354 383.5 342 c 128,-1,34
 395 330 395 330 395 325 c 0,35,36
 395 318 395 318 389.5 308.5 c 128,-1,37
 384 299 384 299 376 294 c 128,-1,38
 368 289 368 289 357.5 280 c 128,-1,39
 347 271 347 271 341.5 271 c 128,-1,40
 336 271 336 271 331.5 280 c 128,-1,41
 327 289 327 289 313.5 304 c 128,-1,42
 300 319 300 319 296 319 c 0,43,44
 278 319 278 319 266.5 302 c 128,-1,45
 255 285 255 285 243 264 c 128,-1,46
 231 243 231 243 231 218 c 0,47,48
 231 195 231 195 256 141 c 128,-1,49
 281 87 281 87 306.5 59 c 128,-1,50
 332 31 332 31 356.5 31 c 128,-1,51
 381 31 381 31 414.5 68.5 c 128,-1,52
 448 106 448 106 454 106 c 128,-1,53
 460 106 460 106 460 93 c 0,54,55
 460 81 460 81 445.5 72.5 c 128,-1,56
 431 64 431 64 407 40.5 c 128,-1,57
 383 17 383 17 355.5 6 c 128,-1,58
 328 -5 328 -5 313 -5 c 0,59,60
 270 -5 270 -5 242.5 18.5 c 128,-1,61
 215 42 215 42 202 77 c 128,-1,62
 189 112 189 112 184 118.5 c 128,-1,63
 179 125 179 125 174 125 c 0,64,65
 168 125 168 125 129.5 78.5 c 128,-1,66
 91 32 91 32 61.5 2.5 c 128,-1,67
 32 -27 32 -27 -5 -55 c 128,-1,68
 -42 -83 -42 -83 -91.5 -104.5 c 128,-1,69
 -141 -126 -141 -126 -164 -126 c 256,70,71
 -187 -126 -187 -126 -187 -117 c 0,0,1
EndSplineSet
Validated: 3073
Layer: 2
Substitution2: "'ss07' Underdotted-1" xdotbelowcomb
Substitution2: "'titl' Titling caps from lc-1" X.titling
Substitution2: "'smcp' Lowercase to Small Capitals in Latin lookup 8-1" x.sc
EndChar

StartChar: longs
Encoding: 383 383 19
GlifName: longs
Width: 220
VWidth: 0
Flags: MW
AnchorPoint: "std above anchor" 212 571 basechar 0
AnchorPoint: "std below anchor" 130 -49 basechar 0
AnchorPoint: "us anchor" 419 439 basechar 0
LayerCount: 3
Back
Fore
SplineSet
343 507 m 256,0,1
 343 497 343 497 336.5 488 c 128,-1,2
 330 479 330 479 320 468 c 128,-1,3
 310 457 310 457 298 457 c 256,4,5
 291 457 291 457 277 468 c 128,-1,6
 263 479 263 479 245 489 c 128,-1,7
 227 499 227 499 212 499 c 256,8,9
 202 499 202 499 191 490.5 c 128,-1,10
 180 482 180 482 173.5 467.5 c 128,-1,11
 167 453 167 453 162 435 c 128,-1,12
 157 417 157 417 154 402 c 128,-1,13
 151 387 151 387 147 352 c 128,-1,14
 143 317 143 317 141 263.5 c 128,-1,15
 139 210 139 210 138.5 173 c 128,-1,16
 138 136 138 136 137.5 122.5 c 128,-1,17
 137 109 137 109 137 101 c 3,18,19
 137 73 137 73 139 56 c 152,-1,20
 141 39 141 39 141 29 c 3,21,22
 141 3 141 3 128 -10 c 0,23,24
 121 -17 121 -17 110 -23 c 0,25,26
 98 -30 98 -30 82 -30 c 256,27,28
 78 -30 78 -30 73 -17 c 0,29,30
 69 -4 69 -4 69 23 c 259,31,32
 69 50 69 50 69 67 c 128,-1,33
 69 84 69 84 70 109.5 c 128,-1,34
 71 135 71 135 75 189.5 c 128,-1,35
 79 244 79 244 79 261 c 259,36,37
 79 278 79 278 75.5 285.5 c 128,-1,38
 72 293 72 293 44.5 293 c 131,-1,39
 17 293 17 293 17 306 c 256,40,41
 17 322 17 322 30 357 c 128,-1,42
 43 392 43 392 81 436 c 128,-1,43
 119 480 119 480 164 515 c 128,-1,44
 209 550 209 550 264 550 c 256,45,46
 299 550 299 550 321 533.5 c 128,-1,47
 343 517 343 517 343 507 c 256,0,1
EndSplineSet
Validated: 3073
Layer: 2
Substitution2: "'ss07' Underdotted-1" uni017F0323
Substitution2: "'titl' Titling caps from lc-1" S.titling
EndChar

StartChar: ampersand
Encoding: 38 38 20
GlifName: ampersand
Width: 590
VWidth: 0
Flags: MW
AnchorPoint: "std below anchor" 186 -49 basechar 0
LayerCount: 3
Back
Fore
SplineSet
593 472 m 259,0,1
 593 464 593 464 578.5 455.5 c 128,-1,2
 564 447 564 447 560 442 c 128,-1,3
 556 437 556 437 539.5 411.5 c 128,-1,4
 523 386 523 386 502.5 352.5 c 128,-1,5
 482 319 482 319 473 303.5 c 128,-1,6
 464 288 464 288 433 256 c 2,7,-1
 402 224 l 1,8,-1
 417 190 l 2,9,10
 433 156 433 156 447 136 c 0,11,12
 462 115 462 115 470 104 c 128,-1,13
 478 93 478 93 495 78 c 128,-1,14
 512 63 512 63 518.5 58.5 c 128,-1,15
 525 54 525 54 534.5 47 c 128,-1,16
 544 40 544 40 551 38.5 c 128,-1,17
 558 37 558 37 562 37 c 0,18,19
 573 37 573 37 593 41 c 128,-1,20
 613 45 613 45 614 45 c 3,21,22
 616 45 616 45 616 44 c 3,23,24
 616 42 616 42 613 39 c 128,-1,25
 610 36 610 36 605.5 31 c 128,-1,26
 601 26 601 26 593 20.5 c 128,-1,27
 585 15 585 15 571.5 6 c 128,-1,28
 558 -3 558 -3 539.5 -11 c 128,-1,29
 521 -19 521 -19 504 -19 c 256,30,31
 484 -19 484 -19 468.5 -6.5 c 128,-1,32
 453 6 453 6 428.5 31.5 c 128,-1,33
 404 57 404 57 393 73 c 128,-1,34
 382 89 382 89 370 89 c 0,35,36
 359 89 359 89 339.5 66.5 c 128,-1,37
 320 44 320 44 282.5 22 c 128,-1,38
 245 0 245 0 226 -3 c 0,39,40
 208 -7 208 -7 171 -7 c 0,41,42
 104 -7 104 -7 62.5 31 c 128,-1,43
 21 69 21 69 21 142 c 0,44,45
 21 185 21 185 37 217.5 c 128,-1,46
 53 250 53 250 84.5 286 c 128,-1,47
 116 322 116 322 149 346.5 c 128,-1,48
 182 371 182 371 200 371 c 0,49,50
 213 371 213 371 223.5 387.5 c 128,-1,51
 234 404 234 404 259 428 c 0,52,53
 298 465 298 465 320 465 c 0,54,55
 327 465 327 465 333.5 461.5 c 128,-1,56
 340 458 340 458 343.5 451 c 128,-1,57
 347 444 347 444 347 434 c 0,58,59
 347 392 347 392 299 353 c 0,60,61
 294 349 294 349 294 343 c 0,62,63
 294 339 294 339 299 332.5 c 128,-1,64
 304 326 304 326 307 323 c 2,65,-1
 393 237 l 1,66,-1
 409 256 l 2,67,68
 434 287 434 287 453.5 320 c 128,-1,69
 473 353 473 353 483 378.5 c 128,-1,70
 493 404 493 404 493 411 c 131,-1,71
 493 418 493 418 491.5 420 c 128,-1,72
 490 422 490 422 483 425.5 c 128,-1,73
 476 429 476 429 467 431 c 128,-1,74
 458 433 458 433 452 436.5 c 128,-1,75
 446 440 446 440 446 445.5 c 131,-1,76
 446 451 446 451 468.5 473.5 c 128,-1,77
 491 496 491 496 514 497 c 0,78,79
 524 497 524 497 558.5 488.5 c 128,-1,80
 593 480 593 480 593 472 c 259,0,1
293 386 m 0,81,82
 293 396 293 396 288.5 408 c 128,-1,83
 284 420 284 420 274 420 c 0,84,85
 263 420 263 420 246 402.5 c 128,-1,86
 229 385 229 385 229 376.5 c 128,-1,87
 229 368 229 368 231 362.5 c 128,-1,88
 233 357 233 357 243.5 353.5 c 128,-1,89
 254 350 254 350 268 350 c 0,90,91
 277 350 277 350 285 361 c 128,-1,92
 293 372 293 372 293 386 c 0,81,82
332 148 m 0,93,94
 332 187 332 187 246 259 c 0,95,96
 185 310 185 310 154 311 c 256,97,98
 142 311 142 311 130 299.5 c 128,-1,99
 118 288 118 288 108 273.5 c 128,-1,100
 98 259 98 259 92 245.5 c 128,-1,101
 86 232 86 232 86 194 c 256,102,103
 86 148 86 148 103 117 c 128,-1,104
 120 86 120 86 143 70.5 c 128,-1,105
 166 55 166 55 191.5 47.5 c 128,-1,106
 217 40 217 40 241 40 c 256,107,108
 269 40 269 40 285.5 49.5 c 128,-1,109
 302 59 302 59 309 73 c 128,-1,110
 316 87 316 87 324 110 c 128,-1,111
 332 133 332 133 332 148 c 0,93,94
EndSplineSet
Validated: 3073
Layer: 2
EndChar

StartChar: y
Encoding: 121 121 21
GlifName: y
Width: 386
Flags: MW
LayerCount: 3
Back
Fore
SplineSet
-130 -220 m 0,0,1
 -130 -203 -130 -203 -100.5 -174.5 c 128,-1,2
 -71 -146 -71 -146 -56 -146 c 128,-1,3
 -41 -146 -41 -146 -26 -169 c 128,-1,4
 -11 -192 -11 -192 -7.5 -198.5 c 128,-1,5
 -4 -205 -4 -205 9 -205 c 128,-1,6
 22 -205 22 -205 35.5 -192.5 c 128,-1,7
 49 -180 49 -180 63.5 -161.5 c 128,-1,8
 78 -143 78 -143 112.5 -80 c 128,-1,9
 147 -17 147 -17 147 -2 c 128,-1,10
 147 13 147 13 139.5 37.5 c 128,-1,11
 132 62 132 62 112.5 113 c 128,-1,12
 93 164 93 164 81.5 189 c 128,-1,13
 70 214 70 214 52.5 243 c 128,-1,14
 35 272 35 272 21.5 291.5 c 128,-1,15
 8 311 8 311 8 315 c 0,16,17
 8 324 8 324 30.5 343.5 c 128,-1,18
 53 363 53 363 63 363 c 0,19,20
 72 363 72 363 83.5 351 c 128,-1,21
 95 339 95 339 111.5 308.5 c 128,-1,22
 128 278 128 278 152 220 c 128,-1,23
 176 162 176 162 184.5 139.5 c 128,-1,24
 193 117 193 117 197.5 117 c 128,-1,25
 202 117 202 117 217 151.5 c 128,-1,26
 232 186 232 186 251 219.5 c 128,-1,27
 270 253 270 253 274.5 260 c 128,-1,28
 279 267 279 267 279 274 c 128,-1,29
 279 281 279 281 271 283 c 0,30,31
 248 288 248 288 229 299 c 128,-1,32
 210 310 210 310 210 319 c 128,-1,33
 210 328 210 328 240.5 346.5 c 128,-1,34
 271 365 271 365 287 365 c 0,35,36
 308 365 308 365 330 354.5 c 128,-1,37
 352 344 352 344 369 341 c 128,-1,38
 386 338 386 338 386 331 c 0,39,40
 386 325 386 325 355 300 c 128,-1,41
 324 275 324 275 318.5 267.5 c 128,-1,42
 313 260 313 260 291.5 212.5 c 128,-1,43
 270 165 270 165 245.5 117 c 128,-1,44
 221 69 221 69 207.5 39.5 c 128,-1,45
 194 10 194 10 177 -25 c 128,-1,46
 160 -60 160 -60 118 -117.5 c 128,-1,47
 76 -175 76 -175 49.5 -201 c 128,-1,48
 23 -227 23 -227 -16 -248.5 c 128,-1,49
 -55 -270 -55 -270 -75 -270 c 0,50,51
 -88 -270 -88 -270 -109 -250 c 128,-1,52
 -130 -230 -130 -230 -130 -220 c 0,0,1
EndSplineSet
Validated: 3073
Layer: 2
Substitution2: "'ss07' Underdotted-1" uni1EF5
AlternateSubs2: "'salt' Stylistic Alternatives in Latin lookup 26-1" y.alt
Substitution2: "'ss10' Alternate y-1" y.alt
Substitution2: "'titl' Titling caps from lc-1" Y.titling
Substitution2: "'smcp' Lowercase to Small Capitals in Latin lookup 8-1" y.sc
Substitution2: "'hist' Medievalize-1" uni1E8F
EndChar

StartChar: v
Encoding: 118 118 22
GlifName: v
Width: 386
Flags: MW
LayerCount: 3
Back
Fore
SplineSet
21 300 m 0,0,1
 21 321 21 321 48 336 c 128,-1,2
 75 351 75 351 105 351 c 0,3,4
 123 351 123 351 124 309 c 128,-1,5
 125 267 125 267 152 205 c 128,-1,6
 179 143 179 143 199 117.5 c 128,-1,7
 219 92 219 92 224 92 c 256,8,9
 229 92 229 92 242.5 110 c 128,-1,10
 256 128 256 128 275.5 168 c 128,-1,11
 295 208 295 208 298 220 c 128,-1,12
 301 232 301 232 301 238.5 c 128,-1,13
 301 245 301 245 272 257.5 c 128,-1,14
 243 270 243 270 243 282 c 0,15,16
 243 296 243 296 270 326.5 c 128,-1,17
 297 357 297 357 314 357 c 0,18,19
 343 357 343 357 356 348.5 c 128,-1,20
 369 340 369 340 369 325 c 0,21,22
 369 304 369 304 318.5 195.5 c 128,-1,23
 268 87 268 87 239.5 29.5 c 128,-1,24
 211 -28 211 -28 205 -28 c 0,25,26
 194 -28 194 -28 170 17.5 c 128,-1,27
 146 63 146 63 110.5 134 c 128,-1,28
 75 205 75 205 48 245 c 128,-1,29
 21 285 21 285 21 300 c 0,0,1
EndSplineSet
Validated: 3073
Layer: 2
Substitution2: "'ss07' Underdotted-1" uni1E7F
Substitution2: "'hist' Medievalize-1" u
Substitution2: "'titl' Titling caps from lc-1" V.titling
Substitution2: "'smcp' Lowercase to Small Capitals in Latin lookup 8-1" v.sc
EndChar

StartChar: k
Encoding: 107 107 23
GlifName: k
Width: 429
Flags: MW
LayerCount: 3
Back
Fore
SplineSet
7 588 m 0,0,1
 7 596 7 596 50.5 617.5 c 128,-1,2
 94 639 94 639 106 639 c 0,3,4
 124 639 124 639 124 599.5 c 128,-1,5
 124 560 124 560 115 442.5 c 128,-1,6
 106 325 106 325 106 275 c 128,-1,7
 106 225 106 225 112 218 c 0,8,9
 122 204 122 204 179 204 c 2,10,-1
 244 204 l 2,11,12
 249 204 249 204 260 229 c 1,13,14
 260 246 260 246 242 261 c 128,-1,15
 224 276 224 276 224 282 c 128,-1,16
 224 288 224 288 236.5 300 c 128,-1,17
 249 312 249 312 265.5 325 c 128,-1,18
 282 338 282 338 289 338 c 128,-1,19
 296 338 296 338 304.5 332 c 128,-1,20
 313 326 313 326 322.5 315.5 c 128,-1,21
 332 305 332 305 332 294 c 0,22,23
 332 271 332 271 301.5 235.5 c 128,-1,24
 271 200 271 200 271 177 c 0,25,26
 271 131 271 131 336.5 95 c 128,-1,27
 402 59 402 59 412 59 c 0,28,29
 435 59 435 59 436 55 c 0,30,31
 436 39 436 39 401.5 18.5 c 128,-1,32
 367 -2 367 -2 357 -2 c 256,33,34
 347 -2 347 -2 291.5 31.5 c 128,-1,35
 236 65 236 65 196 109 c 128,-1,36
 156 153 156 153 148 153 c 2,37,-1
 127 153 l 2,38,39
 105 153 105 153 104.5 134 c 128,-1,40
 104 115 104 115 104 78.5 c 128,-1,41
 104 42 104 42 119.5 34.5 c 128,-1,42
 135 27 135 27 137.5 26 c 128,-1,43
 140 25 140 25 140 22.5 c 128,-1,44
 140 20 140 20 127 11 c 128,-1,45
 114 2 114 2 86.5 -2 c 128,-1,46
 59 -6 59 -6 45 -6 c 128,-1,47
 31 -6 31 -6 31 5.5 c 128,-1,48
 31 17 31 17 37.5 99.5 c 128,-1,49
 44 182 44 182 46 244.5 c 128,-1,50
 48 307 48 307 48 374.5 c 128,-1,51
 48 442 48 442 39 496 c 128,-1,52
 30 550 30 550 18.5 567.5 c 128,-1,53
 7 585 7 585 7 588 c 0,0,1
EndSplineSet
Validated: 3073
Layer: 2
Substitution2: "'ss07' Underdotted-1" uni1E33
Substitution2: "'titl' Titling caps from lc-1" K.titling
Substitution2: "'smcp' Lowercase to Small Capitals in Latin lookup 8-1" k.sc
EndChar

StartChar: w
Encoding: 119 119 24
GlifName: w
Width: 632
Flags: MW
LayerCount: 3
Back
Fore
SplineSet
604 325 m 0,0,1
 604 304 604 304 546.5 180.5 c 128,-1,2
 489 57 489 57 464 7 c 0,3,4
 446 -28 446 -28 440 -28 c 0,5,6
 430 -28 430 -28 415 -1 c 0,7,8
 392 42 392 42 365.5 97 c 128,-1,9
 339 152 339 152 325 173 c 0,10,11
 320 181 320 181 317 181 c 0,12,13
 312 181 312 181 308 172 c 2,14,-1
 229 7 l 2,15,16
 211 -28 211 -28 205 -28 c 0,17,18
 194 -28 194 -28 180 -1 c 0,19,20
 150 60 150 60 114 130 c 128,-1,21
 78 200 78 200 30 269 c 0,22,23
 21 283 21 283 21 300 c 0,24,25
 21 321 21 321 48 336 c 128,-1,26
 75 351 75 351 105 351 c 0,27,28
 123 351 123 351 124 314 c 0,29,30
 125 267 125 267 152 205 c 128,-1,31
 179 143 179 143 199 117.5 c 128,-1,32
 219 92 219 92 224.5 92 c 128,-1,33
 230 92 230 92 243 110 c 128,-1,34
 256 128 256 128 276 168 c 0,35,36
 288 192 288 192 292 202 c 128,-1,37
 296 212 296 212 296 218 c 128,-1,38
 296 224 296 224 276 252 c 128,-1,39
 256 280 256 280 256 300 c 0,40,41
 256 321 256 321 283 336 c 128,-1,42
 310 351 310 351 340 351 c 0,43,44
 357 351 357 351 359 314 c 0,45,46
 361 265 361 265 387.5 203.5 c 128,-1,47
 414 142 414 142 434 117 c 128,-1,48
 454 92 454 92 459.5 92 c 128,-1,49
 465 92 465 92 478 110 c 128,-1,50
 491 128 491 128 511 168 c 128,-1,51
 531 208 531 208 534 222.5 c 128,-1,52
 537 237 537 237 537 240.5 c 128,-1,53
 537 244 537 244 507.5 257 c 128,-1,54
 478 270 478 270 478 282 c 0,55,56
 478 296 478 296 505 326.5 c 128,-1,57
 532 357 532 357 550 357 c 0,58,59
 579 357 579 357 591.5 348.5 c 128,-1,60
 604 340 604 340 604 325 c 0,0,1
EndSplineSet
Validated: 3073
Layer: 2
Substitution2: "'ss07' Underdotted-1" uni1E89
Substitution2: "'titl' Titling caps from lc-1" W.titling
Substitution2: "'smcp' Lowercase to Small Capitals in Latin lookup 8-1" w.sc
Substitution2: "'hist' Medievalize-1" w.alt
EndChar

StartChar: eogonek
Encoding: 281 281 25
GlifName: eogonek
Width: 295
VWidth: 0
Flags: MW
AnchorPoint: "us anchor" 257 439 basechar 0
AnchorPoint: "std above anchor" 172 439 basechar 0
LayerCount: 3
Back
Fore
SplineSet
39 -205 m 0,0,1
 46 -205 46 -205 45.5 -190 c 128,-1,2
 45 -175 45 -175 37 -164.5 c 128,-1,3
 29 -154 29 -154 26 -154 c 0,4,5
 18 -154 18 -154 15.5 -162 c 128,-1,6
 13 -170 13 -170 13 -176 c 128,-1,7
 13 -182 13 -182 21 -193.5 c 128,-1,8
 29 -205 29 -205 39 -205 c 0,0,1
90 282 m 0,9,10
 90 278 90 278 93.5 276.5 c 128,-1,11
 97 275 97 275 102 275 c 0,12,13
 106 275 106 275 112 276 c 0,14,15
 151 282 151 282 163 284 c 0,16,17
 187 287 187 287 190 290 c 0,18,19
 194 294 194 294 194 306 c 128,-1,20
 194 318 194 318 181.5 327.5 c 128,-1,21
 169 337 169 337 155 337 c 0,22,23
 135 337 135 337 116 321 c 128,-1,24
 97 305 97 305 91 286 c 0,25,26
 90 284 90 284 90 282 c 0,9,10
13 165 m 0,27,28
 13 250 13 250 44 290 c 128,-1,29
 75 330 75 330 120 345 c 0,30,31
 163 360 163 360 188 360 c 128,-1,32
 213 360 213 360 222 355.5 c 128,-1,33
 231 351 231 351 237.5 340.5 c 128,-1,34
 244 330 244 330 247 324.5 c 128,-1,35
 250 319 250 319 255 310 c 128,-1,36
 260 301 260 301 267 301 c 0,37,38
 270 301 270 301 280.5 302 c 128,-1,39
 291 303 291 303 296 303 c 0,40,41
 312 303 312 303 312 296 c 0,42,43
 312 291 312 291 290 283 c 0,44,45
 277 278 277 278 244.5 273 c 128,-1,46
 212 268 212 268 174 263 c 128,-1,47
 136 258 136 258 125 256 c 0,48,49
 90 250 90 250 84 242 c 0,50,51
 79 236 79 236 79 204 c 0,52,53
 79 104 79 104 127 59 c 0,54,55
 159 28 159 28 191 28 c 0,56,57
 257 28 257 28 282 68 c 0,58,59
 302 100 302 100 309 100 c 128,-1,60
 316 100 316 100 316 86 c 0,61,62
 316 80 316 80 308 68 c 0,63,64
 288 35 288 35 243 15 c 128,-1,65
 198 -5 198 -5 144 -5 c 0,66,67
 133 -5 133 -5 122 -3 c 1,68,-1
 67 -92 l 1,69,70
 73 -101 73 -101 85.5 -118.5 c 128,-1,71
 98 -136 98 -136 98 -162 c 0,72,73
 98 -184 98 -184 83 -200 c 128,-1,74
 68 -216 68 -216 38.5 -223 c 128,-1,75
 9 -230 9 -230 1 -230 c 128,-1,76
 -7 -230 -7 -230 -16.5 -230 c 128,-1,77
 -26 -230 -26 -230 -31.5 -224.5 c 128,-1,78
 -37 -219 -37 -219 -44 -219 c 128,-1,79
 -51 -219 -51 -219 -65.5 -232 c 128,-1,80
 -80 -245 -80 -245 -96 -273.5 c 128,-1,81
 -112 -302 -112 -302 -156.5 -338 c 128,-1,82
 -201 -374 -201 -374 -201 -379 c 128,-1,83
 -201 -384 -201 -384 -208 -384 c 0,84,85
 -210 -384 -210 -384 -210 -381 c 3,86,87
 -210 -371 -210 -371 -188 -347 c 128,-1,88
 -166 -323 -166 -323 -118 -265.5 c 128,-1,89
 -70 -208 -70 -208 -34.5 -169.5 c 128,-1,90
 1 -131 1 -131 17.5 -110 c 128,-1,91
 34 -89 34 -89 68 -44 c 0,92,93
 88 -17 88 -17 100 2 c 1,94,95
 94 4 94 4 88 6 c 0,96,97
 59 16 59 16 46.5 27.5 c 128,-1,98
 34 39 34 39 23.5 63 c 128,-1,99
 13 87 13 87 13 165 c 0,27,28
EndSplineSet
Validated: 3073
Layer: 2
MultipleSubs2: "'ccmp' Glyph Composition/Decomposition in Latin lookup 14-1" e uni0328
EndChar

StartChar: uniFB02
Encoding: 64258 64258 26
GlifName: uniF_B_02
Width: 518
Flags: MW
LayerCount: 3
Back
Fore
SplineSet
18 300 m 3,0,1
 18 314 18 314 28.5 323 c 128,-1,2
 39 332 39 332 53.5 344 c 128,-1,3
 68 356 68 356 69 394.5 c 128,-1,4
 70 433 70 433 70 473 c 259,5,6
 70 513 70 513 70.5 525 c 128,-1,7
 71 537 71 537 71.5 548.5 c 128,-1,8
 72 560 72 560 80.5 573.5 c 128,-1,9
 89 587 89 587 133.5 609 c 128,-1,10
 178 631 178 631 200.5 637.5 c 128,-1,11
 223 644 223 644 239 647 c 128,-1,12
 255 650 255 650 270 650 c 259,13,14
 285 650 285 650 297.5 648.5 c 128,-1,15
 310 647 310 647 316 645 c 128,-1,16
 322 643 322 643 332.5 634 c 128,-1,17
 343 625 343 625 348 620 c 128,-1,18
 353 615 353 615 356.5 609 c 128,-1,19
 360 603 360 603 360 598 c 259,20,21
 360 594 360 594 357.5 589.5 c 128,-1,22
 355 585 355 585 347.5 580 c 128,-1,23
 340 575 340 575 323 567 c 128,-1,24
 306 559 306 559 300.5 556.5 c 128,-1,25
 295 554 295 554 292.5 553.5 c 128,-1,26
 290 553 290 553 285 553 c 259,27,28
 280 553 280 553 276.5 557.5 c 128,-1,29
 273 562 273 562 269 573.5 c 128,-1,30
 265 585 265 585 245 597.5 c 128,-1,31
 225 610 225 610 203 610 c 259,32,33
 181 610 181 610 162.5 597 c 128,-1,34
 144 584 144 584 139.5 576 c 128,-1,35
 135 568 135 568 133.5 509 c 128,-1,36
 132 450 132 450 132 397 c 259,37,38
 132 345 132 345 137.5 340 c 128,-1,39
 143 335 143 335 168 335 c 3,40,41
 270 335 270 335 295 341.5 c 128,-1,42
 320 348 320 348 328.5 357.5 c 128,-1,43
 337 367 337 367 337 405 c 259,44,45
 337 427 337 427 336.5 463 c 128,-1,46
 336 499 336 499 329 509.5 c 128,-1,47
 322 520 322 520 319.5 525 c 128,-1,48
 317 530 317 530 317 533 c 259,49,50
 317 538 317 538 320 540 c 256,51,52
 323 542 323 542 330.5 548 c 128,-1,53
 338 554 338 554 384 567 c 128,-1,54
 430 580 430 580 445 580 c 259,55,56
 447 580 447 580 448.5 579 c 128,-1,57
 450 578 450 578 450 572 c 259,58,59
 450 567 450 567 445 555.5 c 128,-1,60
 440 544 440 544 430 524.5 c 128,-1,61
 420 505 420 505 409.5 459 c 128,-1,62
 399 413 399 413 399 391 c 259,63,64
 399 370 399 370 392 336.5 c 128,-1,65
 385 303 385 303 385 223 c 259,66,67
 385 140 385 140 391 110.5 c 128,-1,68
 397 81 397 81 417.5 60.5 c 128,-1,69
 438 40 438 40 473 40 c 259,70,71
 503 40 503 40 512 44 c 128,-1,72
 521 48 521 48 541.5 64 c 128,-1,73
 562 80 562 80 568 80 c 259,74,75
 574 80 574 80 574 70 c 259,76,77
 574 60 574 60 540 40.5 c 128,-1,78
 506 21 506 21 482 9.5 c 128,-1,79
 458 -2 458 -2 410 -2 c 259,80,81
 390 -2 390 -2 360 16 c 128,-1,82
 330 34 330 34 324.5 53 c 128,-1,83
 319 72 319 72 317 92 c 128,-1,84
 315 112 315 112 315 140 c 259,85,86
 315 170 315 170 316.5 196 c 128,-1,87
 318 222 318 222 320 247 c 128,-1,88
 322 272 322 272 322 290 c 259,89,90
 322 295 322 295 317 297.5 c 128,-1,91
 312 300 312 300 303 300 c 3,92,93
 283 300 283 300 216 294.5 c 128,-1,94
 149 289 149 289 146 285.5 c 128,-1,95
 143 282 143 282 140.5 94 c 128,-1,96
 138 -94 138 -94 135 -98 c 152,-1,97
 132 -102 132 -102 113.5 -117.5 c 128,-1,98
 95 -133 95 -133 89 -136.5 c 128,-1,99
 83 -140 83 -140 80 -140 c 259,100,101
 72 -140 72 -140 72 -126 c 259,102,103
 72 -112 72 -112 72 -100.5 c 128,-1,104
 72 -89 72 -89 73 -80.5 c 128,-1,105
 74 -72 74 -72 74 112 c 3,106,107
 74 228 74 228 68.5 247.5 c 128,-1,108
 63 267 63 267 48 270 c 128,-1,109
 33 273 33 273 25.5 280.5 c 128,-1,110
 18 288 18 288 18 300 c 3,0,1
EndSplineSet
Validated: 3073
Layer: 2
Substitution2: "Single Substitution no tag - 2-1" f_l.alt
LCarets2: 1 282
Ligature2: "two-element ligature in Latin" f l
EndChar

StartChar: uniFB01
Encoding: 64257 64257 27
GlifName: uniF_B_01
Width: 445
Flags: MW
LayerCount: 3
Back
Fore
SplineSet
18 300 m 259,0,1
 18 314 18 314 28.5 323 c 128,-1,2
 39 332 39 332 53 343.5 c 128,-1,3
 67 355 67 355 68.5 385 c 128,-1,4
 70 415 70 415 70.5 457.5 c 128,-1,5
 71 500 71 500 71 516 c 259,6,7
 71 531 71 531 73.5 548 c 128,-1,8
 76 565 76 565 79 572.5 c 128,-1,9
 82 580 82 580 91 591.5 c 128,-1,10
 100 603 100 603 137 629 c 128,-1,11
 174 655 174 655 227 655 c 259,12,13
 279 655 279 655 300.5 638.5 c 128,-1,14
 322 622 322 622 328.5 614.5 c 128,-1,15
 335 607 335 607 335 600 c 259,16,17
 335 592 335 592 328.5 587.5 c 128,-1,18
 322 583 322 583 308.5 574 c 128,-1,19
 295 565 295 565 289 563.5 c 128,-1,20
 283 562 283 562 275 562 c 259,21,22
 268 562 268 562 230.5 584.5 c 128,-1,23
 193 607 193 607 175 607 c 259,24,25
 163 607 163 607 153 579.5 c 128,-1,26
 143 552 143 552 138.5 526 c 128,-1,27
 134 500 134 500 133 484 c 128,-1,28
 132 468 132 468 132 453 c 259,29,30
 132 431 132 431 132 419.5 c 128,-1,31
 132 408 132 408 134 384 c 128,-1,32
 136 360 136 360 143 355 c 128,-1,33
 150 350 150 350 160 348.5 c 128,-1,34
 170 347 170 347 176 347 c 3,35,36
 193 347 193 347 220.5 354 c 128,-1,37
 248 361 248 361 280 371 c 128,-1,38
 312 381 312 381 326 384.5 c 128,-1,39
 340 388 340 388 348 388 c 3,40,41
 373 388 373 388 374 363 c 128,-1,42
 375 338 375 338 375 311 c 131,-1,43
 375 284 375 284 373 228 c 128,-1,44
 371 172 371 172 369.5 146 c 128,-1,45
 368 120 368 120 368 98 c 259,46,47
 368 33 368 33 396 32 c 256,48,49
 410 32 410 32 430 42.5 c 128,-1,50
 450 53 450 53 455 53 c 0,51,52
 457 53 457 53 458.5 51.5 c 128,-1,53
 460 50 460 50 460 47 c 0,54,55
 460 40 460 40 418.5 21.5 c 128,-1,56
 377 3 377 3 355 -1.5 c 128,-1,57
 333 -6 333 -6 327 -6 c 0,58,59
 320 -6 320 -6 312 -7 c 3,60,61
 297 -7 297 -7 297 15 c 3,62,63
 297 24 297 24 298.5 37 c 128,-1,64
 300 50 300 50 301.5 81.5 c 128,-1,65
 303 113 303 113 306.5 179 c 128,-1,66
 310 245 310 245 310 267 c 259,67,68
 310 288 310 288 305 291.5 c 128,-1,69
 300 295 300 295 287.5 302 c 128,-1,70
 275 309 275 309 264.5 312 c 128,-1,71
 254 315 254 315 240 315 c 3,72,73
 230 315 230 315 220 313.5 c 128,-1,74
 210 312 210 312 191.5 307.5 c 128,-1,75
 173 303 173 303 155.5 297.5 c 128,-1,76
 138 292 138 292 138 285 c 259,77,78
 138 275 138 275 147 72 c 0,79,80
 150 32 150 32 150 -48 c 259,81,82
 150 -58 150 -58 146 -64 c 0,83,84
 142 -69 142 -69 128.5 -76 c 128,-1,85
 115 -83 115 -83 110 -85 c 128,-1,86
 105 -87 105 -87 98 -87 c 259,87,88
 90 -87 90 -87 86.5 -69 c 128,-1,89
 83 -51 83 -51 83 18 c 259,90,91
 83 128 83 128 80.5 178.5 c 128,-1,92
 78 229 78 229 70.5 248 c 128,-1,93
 63 267 63 267 48 270 c 128,-1,94
 33 273 33 273 25.5 280.5 c 128,-1,95
 18 288 18 288 18 300 c 259,0,1
EndSplineSet
Validated: 3073
Layer: 2
Ligature2: "two-element ligature in Latin" f i
Substitution2: "Single Substitution no tag - 2-1" f_i.alt
LCarets2: 1 259
Ligature2: "two-element ligature in Latin" f dotlessi
EndChar

StartChar: s
Encoding: 115 115 28
GlifName: s
Width: 282
Flags: MW
LayerCount: 3
Back
Fore
SplineSet
18 16 m 0,0,1
 18 19 18 19 19 21.5 c 128,-1,2
 20 24 20 24 32 39 c 128,-1,3
 44 54 44 54 45.5 55.5 c 128,-1,4
 47 57 47 57 50.5 57 c 128,-1,5
 54 57 54 57 71 51 c 128,-1,6
 88 45 88 45 106.5 43 c 128,-1,7
 125 41 125 41 140 41 c 256,8,9
 155 41 155 41 174 43 c 128,-1,10
 193 45 193 45 202 53.5 c 128,-1,11
 211 62 211 62 211 75 c 0,12,13
 211 95 211 95 188 108 c 128,-1,14
 165 121 165 121 136 126 c 128,-1,15
 107 131 107 131 71 155 c 128,-1,16
 35 179 35 179 35 237 c 0,17,18
 35 262 35 262 52.5 287 c 128,-1,19
 70 312 70 312 94.5 336.5 c 128,-1,20
 119 361 119 361 157 361 c 0,21,22
 183 361 183 361 197 351 c 128,-1,23
 211 341 211 341 221 328.5 c 128,-1,24
 231 316 231 316 231 312.5 c 128,-1,25
 231 309 231 309 224 303.5 c 128,-1,26
 217 298 217 298 201 287.5 c 128,-1,27
 185 277 185 277 179.5 273.5 c 128,-1,28
 174 270 174 270 170.5 270 c 128,-1,29
 167 270 167 270 160 279.5 c 128,-1,30
 153 289 153 289 141 296 c 128,-1,31
 129 303 129 303 112 303 c 0,32,33
 98 303 98 303 91 288.5 c 128,-1,34
 84 274 84 274 84 261 c 0,35,36
 84 246 84 246 88 230.5 c 128,-1,37
 92 215 92 215 114 201 c 128,-1,38
 136 187 136 187 168 180 c 128,-1,39
 200 173 200 173 230 154 c 128,-1,40
 260 135 260 135 260 98 c 0,41,42
 260 73 260 73 242 47 c 128,-1,43
 224 21 224 21 170.5 4.5 c 128,-1,44
 117 -12 117 -12 87 -12 c 256,45,46
 57 -12 57 -12 37.5 -1.5 c 128,-1,47
 18 9 18 9 18 16 c 0,0,1
EndSplineSet
Validated: 3073
Layer: 2
Substitution2: "'ss07' Underdotted-1" uni1E63
Substitution2: "'titl' Titling caps from lc-1" S.titling
Substitution2: "'smcp' Lowercase to Small Capitals in Latin lookup 8-1" s.sc
Substitution2: "'hist' Medievalize-1" longs
EndChar

StartChar: uniFB05
Encoding: 64261 64261 30
GlifName: uniF_B_05
Width: 510
Flags: MW
LayerCount: 3
Back
Fore
SplineSet
602 346 m 0,0,1
 602 342 602 342 581.5 325.5 c 128,-1,2
 561 309 561 309 539.5 308.5 c 128,-1,3
 518 308 518 308 465 308 c 128,-1,4
 412 308 412 308 402 306.5 c 128,-1,5
 392 305 392 305 383 302.5 c 128,-1,6
 374 300 374 300 363.5 292.5 c 128,-1,7
 353 285 353 285 347.5 270 c 128,-1,8
 342 255 342 255 335.5 212.5 c 128,-1,9
 329 170 329 170 329 146 c 0,10,11
 329 123 329 123 334.5 95 c 128,-1,12
 340 67 340 67 351.5 54.5 c 128,-1,13
 363 42 363 42 386 38 c 128,-1,14
 409 34 409 34 425 34 c 256,15,16
 441 34 441 34 454 37.5 c 128,-1,17
 467 41 467 41 479 50.5 c 128,-1,18
 491 60 491 60 497.5 63 c 128,-1,19
 504 66 504 66 508 66 c 0,20,21
 516 66 516 66 516 55 c 0,22,23
 516 47 516 47 484.5 30.5 c 128,-1,24
 453 14 453 14 414.5 2 c 128,-1,25
 376 -10 376 -10 351 -10 c 256,26,27
 326 -10 326 -10 299 4.5 c 128,-1,28
 272 19 272 19 262 37 c 128,-1,29
 252 55 252 55 252 98 c 256,30,31
 252 141 252 141 262.5 181.5 c 128,-1,32
 273 222 273 222 273 254 c 256,33,34
 273 286 273 286 246.5 289 c 128,-1,35
 220 292 220 292 203 295.5 c 128,-1,36
 186 299 186 299 181.5 304 c 128,-1,37
 177 309 177 309 177 316 c 0,38,39
 177 332 177 332 201 341 c 128,-1,40
 225 350 225 350 236 350 c 256,41,42
 247 350 247 350 258 347 c 128,-1,43
 269 344 269 344 273 344 c 0,44,45
 281 344 281 344 293.5 375 c 128,-1,46
 306 406 306 406 306 439 c 128,-1,47
 306 472 306 472 302.5 485 c 128,-1,48
 299 498 299 498 276 519 c 128,-1,49
 253 540 253 540 225 550 c 128,-1,50
 197 560 197 560 184 560 c 256,51,52
 171 560 171 560 159.5 554 c 128,-1,53
 148 548 148 548 142 517.5 c 128,-1,54
 136 487 136 487 131 389 c 128,-1,55
 126 291 126 291 123.5 256 c 128,-1,56
 121 221 121 221 116 105 c 128,-1,57
 111 -11 111 -11 111 -23.5 c 128,-1,58
 111 -36 111 -36 111 -37 c 0,59,60
 111 -44 111 -44 86.5 -57.5 c 128,-1,61
 62 -71 62 -71 49 -71 c 0,62,63
 43 -71 43 -71 43 -45 c 2,64,-1
 54 219 l 2,65,66
 54 228 54 228 52.5 235 c 128,-1,67
 51 242 51 242 35 255 c 128,-1,68
 19 268 19 268 19 278 c 0,69,70
 19 313 19 313 43 328 c 128,-1,71
 67 343 67 343 72 359.5 c 128,-1,72
 77 376 77 376 77 405 c 0,73,74
 77 511 77 511 86 526 c 128,-1,75
 95 541 95 541 150 569.5 c 128,-1,76
 205 598 205 598 250 598 c 0,77,78
 272 598 272 598 304 584 c 128,-1,79
 336 570 336 570 348.5 554.5 c 128,-1,80
 361 539 361 539 365.5 501 c 128,-1,81
 370 463 370 463 370 441.5 c 128,-1,82
 370 420 370 420 368.5 404.5 c 128,-1,83
 367 389 367 389 367 369 c 128,-1,84
 367 349 367 349 383 349 c 0,85,86
 402 349 402 349 419.5 352 c 128,-1,87
 437 355 437 355 493.5 356.5 c 128,-1,88
 550 358 550 358 576 358 c 128,-1,89
 602 358 602 358 602 346 c 0,0,1
EndSplineSet
Validated: 3073
Layer: 2
LCarets2: 1 227
Ligature2: "two-element ligature in Latin" longs t
EndChar

StartChar: f_a
Encoding: 65536 -1 31
GlifName: f_a
Width: 626
GlyphClass: 3
Flags: MW
AnchorPoint: "us ligature anchor" 397 474 baselig 0
AnchorPoint: "ligature below" 188 -54 baselig 0
AnchorPoint: "ligature anchor" 163 659 baselig 0
AnchorPoint: "us ligature anchor" 482 391 baselig 1
AnchorPoint: "ligature below" 404 -24 baselig 1
AnchorPoint: "ligature anchor" 404 391 baselig 1
LayerCount: 3
Back
Fore
SplineSet
18 300 m 259,0,1
 18 314 18 314 28.5 323 c 128,-1,2
 39 332 39 332 54 344 c 128,-1,3
 69 356 69 356 69 382 c 259,4,5
 69 407 69 407 70 448 c 256,6,7
 70 489 70 489 71 511.5 c 128,-1,8
 72 534 72 534 82.5 546.5 c 128,-1,9
 93 559 93 559 112 570 c 128,-1,10
 131 581 131 581 158 596 c 128,-1,11
 185 611 185 611 202.5 617.5 c 128,-1,12
 220 624 220 624 243 624 c 259,13,14
 275 624 275 624 306 611 c 128,-1,15
 337 598 337 598 343 590 c 128,-1,16
 349 582 349 582 350.5 578 c 128,-1,17
 352 574 352 574 352 571 c 259,18,19
 352 565 352 565 348 561 c 128,-1,20
 344 557 344 557 336.5 550 c 128,-1,21
 329 543 329 543 322.5 538 c 128,-1,22
 316 533 316 533 310 529 c 128,-1,23
 304 525 304 525 298.5 523 c 128,-1,24
 293 521 293 521 290 521 c 259,25,26
 281 521 281 521 273 527.5 c 128,-1,27
 265 534 265 534 225 555.5 c 128,-1,28
 185 577 185 577 171 577 c 259,29,30
 157 577 157 577 150 564 c 128,-1,31
 143 551 143 551 139 514.5 c 128,-1,32
 135 478 135 478 133.5 454.5 c 128,-1,33
 132 431 132 431 132 413 c 259,34,35
 132 363 132 363 152 348 c 128,-1,36
 172 333 172 333 187 333 c 259,37,38
 202 333 202 333 249 339 c 128,-1,39
 296 345 296 345 333.5 346.5 c 128,-1,40
 371 348 371 348 389.5 355 c 128,-1,41
 408 362 408 362 419.5 364.5 c 128,-1,42
 431 367 431 367 437 367 c 259,43,44
 447 367 447 367 460.5 356 c 128,-1,45
 474 345 474 345 487 309 c 128,-1,46
 500 273 500 273 502.5 175.5 c 128,-1,47
 505 78 505 78 505.5 69 c 128,-1,48
 506 60 506 60 524 43 c 128,-1,49
 542 26 542 26 551.5 22.5 c 128,-1,50
 561 19 561 19 564.5 18.5 c 128,-1,51
 568 18 568 18 574 18 c 259,52,53
 583 18 583 18 590.5 21 c 128,-1,54
 598 24 598 24 610.5 30.5 c 128,-1,55
 623 37 623 37 629 41 c 256,56,57
 635 44 635 44 642 44 c 259,58,59
 645 44 645 44 647 43 c 128,-1,60
 649 42 649 42 649 40 c 259,61,62
 649 37 649 37 621 17 c 128,-1,63
 593 -3 593 -3 574.5 -11 c 128,-1,64
 556 -19 556 -19 541.5 -21 c 128,-1,65
 527 -23 527 -23 513 -23 c 259,66,67
 498 -23 498 -23 490.5 -22.5 c 128,-1,68
 483 -22 483 -22 480 -20 c 128,-1,69
 477 -18 477 -18 466.5 -5 c 128,-1,70
 456 8 456 8 456 27 c 259,71,72
 456 46 456 46 443 46 c 259,73,74
 431 46 431 46 390 18.5 c 128,-1,75
 349 -9 349 -9 313 -9 c 259,76,77
 305 -9 305 -9 292.5 -5 c 128,-1,78
 280 -1 280 -1 249 22 c 128,-1,79
 218 45 218 45 213 55 c 128,-1,80
 208 65 208 65 208 70 c 259,81,82
 208 91 208 91 249.5 122.5 c 128,-1,83
 291 154 291 154 358 179.5 c 128,-1,84
 425 205 425 205 429 211 c 128,-1,85
 433 217 433 217 433 227 c 259,86,87
 433 266 433 266 413 294 c 128,-1,88
 393 322 393 322 377 322 c 259,89,90
 361 322 361 322 342 314 c 128,-1,91
 323 306 323 306 266 299.5 c 128,-1,92
 209 293 209 293 194.5 288.5 c 128,-1,93
 180 284 180 284 163 276.5 c 128,-1,94
 146 269 146 269 146 252 c 259,95,96
 146 196 146 196 147.5 161 c 128,-1,97
 149 126 149 126 149 85 c 259,98,99
 149 -79 149 -79 153.5 -88 c 128,-1,100
 158 -97 158 -97 158 -100 c 259,101,102
 158 -106 158 -106 150 -118 c 128,-1,103
 142 -130 142 -130 126.5 -137 c 128,-1,104
 111 -144 111 -144 92 -153 c 0,105,106
 91 -153 91 -153 90 -154 c 259,107,108
 88 -154 88 -154 87 -148 c 0,109,110
 84 -126 84 -126 83 -7 c 128,-1,111
 82 112 82 112 81 180 c 256,112,113
 80 248 80 248 71.5 257.5 c 128,-1,114
 63 267 63 267 48 270 c 128,-1,115
 33 273 33 273 25.5 280.5 c 128,-1,116
 18 288 18 288 18 300 c 259,0,1
278 108 m 259,117,118
 278 102 278 102 281 95 c 128,-1,119
 284 88 284 88 291 77 c 128,-1,120
 298 66 298 66 304 60 c 128,-1,121
 310 54 310 54 324.5 44 c 128,-1,122
 339 34 339 34 363 34 c 259,123,124
 396 34 396 34 408.5 46 c 128,-1,125
 421 58 421 58 429.5 70.5 c 128,-1,126
 438 83 438 83 438 118 c 259,127,128
 438 153 438 153 434 183 c 1,129,130
 428 181 428 181 408 174 c 0,131,132
 307 141 307 141 296.5 133.5 c 128,-1,133
 286 126 286 126 282 120 c 128,-1,134
 278 114 278 114 278 108 c 259,117,118
EndSplineSet
Validated: 3073
Layer: 2
Substitution2: "Single Substitution no tag - 2-1" f_a.alt
LCarets2: 1 233
Ligature2: "two-element ligature in Latin" f a
EndChar

StartChar: r_a
Encoding: 65537 -1 32
GlifName: r_a
Width: 646
VWidth: 0
Flags: MW
AnchorPoint: "us ligature anchor" 226 391 baselig 0
AnchorPoint: "ligature below" 151 -24 baselig 0
AnchorPoint: "ligature anchor" 149 391 baselig 0
AnchorPoint: "us ligature anchor" 526 391 baselig 1
AnchorPoint: "ligature below" 420 -24 baselig 1
AnchorPoint: "ligature anchor" 432 391 baselig 1
LayerCount: 3
Back
Fore
SplineSet
8 278 m 259,0,1
 8 283 8 283 10.5 289 c 128,-1,2
 13 295 13 295 34 309.5 c 128,-1,3
 55 324 55 324 79 336 c 128,-1,4
 103 348 103 348 112.5 348 c 128,-1,5
 122 348 122 348 122 312.5 c 128,-1,6
 122 277 122 277 143 277 c 3,7,8
 156 277 156 277 172 292 c 0,9,10
 245 357 245 357 272 357 c 259,11,12
 279 357 279 357 285 351 c 128,-1,13
 291 345 291 345 294 330.5 c 128,-1,14
 297 316 297 316 302 305 c 128,-1,15
 307 294 307 294 316 294 c 0,16,17
 335 294 335 294 366.5 318.5 c 128,-1,18
 398 343 398 343 406 351 c 128,-1,19
 414 359 414 359 429 359 c 259,20,21
 450 359 450 359 458.5 351.5 c 128,-1,22
 467 344 467 344 474 327 c 2,23,-1
 488 294 l 1,24,-1
 531 327 l 2,25,26
 572 358 572 358 587 358 c 259,27,28
 594 358 594 358 600.5 352 c 128,-1,29
 607 346 607 346 614 332.5 c 128,-1,30
 621 319 621 319 621 311 c 259,31,32
 621 303 621 303 619 296 c 128,-1,33
 617 289 617 289 602 278.5 c 128,-1,34
 587 268 587 268 572 268 c 3,35,36
 564 268 564 268 561 280 c 128,-1,37
 558 292 558 292 553.5 298 c 128,-1,38
 549 304 549 304 541 304 c 259,39,40
 527 304 527 304 513 288.5 c 128,-1,41
 499 273 499 273 497.5 262.5 c 128,-1,42
 496 252 496 252 496 242.5 c 128,-1,43
 496 233 496 233 500 201.5 c 128,-1,44
 504 170 504 170 506 131.5 c 128,-1,45
 508 93 508 93 516 73 c 128,-1,46
 524 53 524 53 539 38 c 128,-1,47
 554 23 554 23 577 23 c 259,48,49
 599 23 599 23 617.5 38 c 128,-1,50
 636 53 636 53 646 73 c 128,-1,51
 656 93 656 93 663 101 c 0,52,53
 668 108 668 108 671 107 c 3,54,55
 673 107 673 107 673.5 105 c 128,-1,56
 674 103 674 103 674 101 c 259,57,58
 674 97 674 97 667 83 c 0,59,60
 660 70 660 70 644.5 50.5 c 128,-1,61
 629 31 629 31 614.5 18 c 128,-1,62
 600 5 600 5 583 -1.5 c 128,-1,63
 566 -8 566 -8 544 -8 c 259,64,65
 504 -8 504 -8 491.5 1 c 128,-1,66
 479 10 479 10 468 25 c 2,67,-1
 443 57 l 1,68,-1
 397 24 l 2,69,70
 353 -8 353 -8 313 -8 c 3,71,72
 291 -8 291 -8 278 4.5 c 128,-1,73
 265 17 265 17 265 86 c 128,-1,74
 265 155 265 155 253.5 207 c 128,-1,75
 242 259 242 259 237 281 c 128,-1,76
 232 303 232 303 218 303 c 259,77,78
 202 303 202 303 169 268 c 2,79,-1
 146 244 l 2,80,81
 133 230 133 230 133 214 c 1,82,-1
 134 106 l 2,83,84
 134 88 134 88 134 74 c 128,-1,85
 134 60 134 60 133.5 42.5 c 128,-1,86
 133 25 133 25 131.5 5 c 128,-1,87
 130 -15 130 -15 121 -24.5 c 128,-1,88
 112 -34 112 -34 103 -34 c 259,89,90
 95 -34 95 -34 90.5 -25.5 c 128,-1,91
 86 -17 86 -17 83.5 0.5 c 128,-1,92
 81 18 81 18 78.5 40.5 c 128,-1,93
 76 63 76 63 73.5 106 c 128,-1,94
 71 149 71 149 70 164.5 c 128,-1,95
 69 180 69 180 68 193.5 c 128,-1,96
 67 207 67 207 64.5 220.5 c 128,-1,97
 62 234 62 234 58.5 238 c 128,-1,98
 55 242 55 242 46 242 c 259,99,100
 37 242 37 242 22.5 250.5 c 128,-1,101
 8 259 8 259 8 278 c 259,0,1
319 175 m 256,102,103
 319 152 319 152 321.5 126 c 128,-1,104
 324 100 324 100 333 75.5 c 128,-1,105
 342 51 342 51 357.5 44 c 128,-1,106
 373 37 373 37 378 37 c 259,107,108
 392 37 392 37 416.5 64 c 128,-1,109
 441 91 441 91 444.5 102.5 c 128,-1,110
 448 114 448 114 448 123 c 256,111,112
 448 132 448 132 444.5 157 c 128,-1,113
 441 182 441 182 435 209 c 128,-1,114
 429 236 429 236 421 261.5 c 128,-1,115
 413 287 413 287 406.5 301.5 c 128,-1,116
 400 316 400 316 396 316 c 259,117,118
 387 316 387 316 365 298 c 128,-1,119
 343 280 343 280 333.5 268.5 c 128,-1,120
 324 257 324 257 321.5 243 c 128,-1,121
 319 229 319 229 319 175 c 256,102,103
EndSplineSet
Validated: 3073
Layer: 2
Substitution2: "Single Substitution no tag-1" r_a.alt
Ligature2: "'hlig' Two-element Historic Ligatures" r a
LCarets2: 1 262
EndChar

StartChar: dotlessi
Encoding: 305 305 33
GlifName: dotlessi
Width: 207
VWidth: 0
Flags: MW
AnchorPoint: "std below anchor" 82 -49 basechar 0
AnchorPoint: "us anchor" 82 439 basechar 0
AnchorPoint: "std above anchor" 93 439 basechar 0
LayerCount: 3
Back
Fore
SplineSet
7 296 m 259,0,1
 7 313 7 313 16 321.5 c 128,-1,2
 25 330 25 330 58 345.5 c 128,-1,3
 91 361 91 361 123 361 c 256,4,5
 139 361 139 361 139 341 c 3,6,7
 139 296 139 296 131.5 271.5 c 128,-1,8
 124 247 124 247 121.5 188.5 c 128,-1,9
 119 130 119 130 119 95.5 c 128,-1,10
 119 61 119 61 124.5 46.5 c 128,-1,11
 130 32 130 32 146 32 c 0,12,13
 164 32 164 32 184 41.5 c 128,-1,14
 204 51 204 51 209 51 c 3,15,16
 211 51 211 51 211 49 c 3,17,18
 211 45 211 45 174 26.5 c 128,-1,19
 137 8 137 8 121 4 c 128,-1,20
 105 0 105 0 80 -0 c 256,21,22
 55 0 55 0 48 0 c 0,23,24
 42 1 42 1 42 7 c 0,25,26
 42 12 42 12 47 33.5 c 128,-1,27
 52 55 52 55 55.5 110.5 c 128,-1,28
 59 166 59 166 63.5 201 c 128,-1,29
 68 236 68 236 68 251.5 c 128,-1,30
 68 267 68 267 37.5 275 c 128,-1,31
 7 283 7 283 7 296 c 259,0,1
EndSplineSet
Validated: 3073
Layer: 2
Substitution2: "'swsh' Swash in Latin lookup 22-1" dotlessi.swash
Substitution2: "Single Substitution no tag-1" dotlessi.alt
Substitution2: "'titl' Titling caps from lc-1" I.titling
EndChar

StartChar: uni1E8F
Encoding: 7823 7823 34
GlifName: uni1E_8F_
Width: 386
VWidth: 0
Flags: MW
LayerCount: 3
Back
Fore
SplineSet
287 365 m 0,0,1
 308 365 308 365 330 354.5 c 128,-1,2
 352 344 352 344 369 341 c 144,-1,3
 386 338 386 338 386 331 c 0,4,5
 386 325 386 325 355 300 c 152,-1,6
 324 275 324 275 318.5 267.5 c 136,-1,7
 313 260 313 260 291.5 212.5 c 136,-1,8
 270 165 270 165 245.5 117 c 128,-1,9
 221 69 221 69 207.5 39.5 c 136,-1,10
 194 10 194 10 177 -25 c 128,-1,11
 160 -60 160 -60 118 -117.5 c 152,-1,12
 76 -175 76 -175 49.5 -201 c 152,-1,13
 23 -227 23 -227 -16 -248.5 c 152,-1,14
 -55 -270 -55 -270 -75 -270 c 256,15,16
 -88 -270 -88 -270 -109 -250 c 152,-1,17
 -130 -230 -130 -230 -130 -220 c 256,18,19
 -130 -203 -130 -203 -100.5 -174.5 c 152,-1,20
 -71 -146 -71 -146 -58 -146 c 0,21,22
 -41 -146 -41 -146 -26 -169 c 152,-1,23
 -11 -192 -11 -192 -7.5 -198.5 c 128,-1,24
 -4 -205 -4 -205 9 -205 c 256,25,26
 22 -205 22 -205 36 -195.5 c 136,-1,27
 50 -186 50 -186 64 -165 c 144,-1,28
 78 -144 78 -144 112.5 -80.5 c 152,-1,29
 147 -17 147 -17 147 -2 c 128,-1,30
 147 13 147 13 139.5 37.5 c 136,-1,31
 132 62 132 62 112.5 113 c 152,-1,32
 93 164 93 164 81.5 189 c 152,-1,33
 70 214 70 214 52.5 243 c 136,-1,34
 35 272 35 272 23.5 288 c 128,-1,35
 12 304 12 304 11 307 c 0,36,37
 9 311 9 311 8 315 c 256,38,39
 8 324 8 324 30.5 343.5 c 128,-1,40
 53 363 53 363 63 363 c 256,41,42
 72 363 72 363 79 355 c 8,43,44
 95 339 95 339 111.5 308.5 c 144,-1,45
 128 278 128 278 152 220 c 144,-1,46
 176 162 176 162 185 138 c 152,-1,47
 194 114 194 114 197 114 c 256,48,49
 200 114 200 114 216 150 c 144,-1,50
 232 186 232 186 251 219.5 c 136,-1,51
 270 253 270 253 274.5 260 c 128,-1,52
 279 267 279 267 279 273 c 256,53,54
 279 281 279 281 271 283 c 0,55,56
 248 288 248 288 228.5 299 c 152,-1,57
 209 310 209 310 210 318 c 280,58,59
 211 328 211 328 241 346.5 c 152,-1,60
 271 365 271 365 287 365 c 0,0,1
203 560 m 0,61,62
 190 560 190 560 180.5 566 c 128,-1,63
 171 572 171 572 171 587 c 0,64,65
 171 607 171 607 183.5 613.5 c 128,-1,66
 196 620 196 620 204 620 c 0,67,68
 217 620 217 620 223 607.5 c 128,-1,69
 229 595 229 595 229 585 c 0,70,71
 229 579 229 579 221 569.5 c 128,-1,72
 213 560 213 560 203 560 c 0,61,62
EndSplineSet
Validated: 3073
Layer: 2
AlternateSubs2: "'salt' Stylistic Alternatives in Latin lookup 26-1" uni1E8F.alt
Substitution2: "'ss10' Alternate y-1" uni1E8F.alt
EndChar

StartChar: A
Encoding: 65 65 35
GlifName: A_
Width: 628
Flags: MW
LayerCount: 3
Back
Fore
SplineSet
-118 -109 m 0,0,1
 -118 -89 -118 -89 -90.5 -57.5 c 128,-1,2
 -63 -26 -63 -26 -49 -26 c 128,-1,3
 -35 -26 -35 -26 -29.5 -45.5 c 128,-1,4
 -24 -65 -24 -65 -17.5 -65 c 128,-1,5
 -11 -65 -11 -65 1.5 -45 c 128,-1,6
 14 -25 14 -25 28.5 14.5 c 128,-1,7
 43 54 43 54 53 86 c 128,-1,8
 63 118 63 118 63 135 c 128,-1,9
 63 152 63 152 52 164 c 128,-1,10
 41 176 41 176 41 202 c 128,-1,11
 41 228 41 228 74 274.5 c 128,-1,12
 107 321 107 321 130 321 c 0,13,14
 136 321 136 321 139.5 318.5 c 128,-1,15
 143 316 143 316 145 316 c 0,16,17
 155 316 155 316 207 371 c 0,18,19
 215 379 215 379 215 386.5 c 128,-1,20
 215 394 215 394 191 423 c 128,-1,21
 167 452 167 452 135.5 481.5 c 128,-1,22
 104 511 104 511 98 511 c 128,-1,23
 92 511 92 511 50 502.5 c 128,-1,24
 8 494 8 494 -5.5 494 c 128,-1,25
 -19 494 -19 494 -19 499 c 128,-1,26
 -19 504 -19 504 2 513 c 128,-1,27
 23 522 23 522 63.5 527.5 c 128,-1,28
 104 533 104 533 175 533 c 128,-1,29
 246 533 246 533 281.5 545.5 c 128,-1,30
 317 558 317 558 322 558 c 256,31,32
 327 558 327 558 327 551.5 c 128,-1,33
 327 545 327 545 295 538 c 128,-1,34
 263 531 263 531 263 520 c 128,-1,35
 263 509 263 509 283 466 c 128,-1,36
 303 423 303 423 322.5 396.5 c 128,-1,37
 342 370 342 370 388 282 c 128,-1,38
 434 194 434 194 449.5 172 c 128,-1,39
 465 150 465 150 473 124.5 c 128,-1,40
 481 99 481 99 507.5 73.5 c 128,-1,41
 534 48 534 48 565 32 c 128,-1,42
 596 16 596 16 628.5 9.5 c 128,-1,43
 661 3 661 3 661 -4 c 0,44,45
 661 -9 661 -9 653.5 -9 c 128,-1,46
 646 -9 646 -9 627.5 -4.5 c 128,-1,47
 609 0 609 0 584.5 3 c 128,-1,48
 560 6 560 6 531.5 6 c 128,-1,49
 503 6 503 6 477 -1.5 c 128,-1,50
 451 -9 451 -9 434 -24 c 128,-1,51
 417 -39 417 -39 414 -39 c 128,-1,52
 411 -39 411 -39 405 -31 c 128,-1,53
 399 -23 399 -23 394.5 -3.5 c 128,-1,54
 390 16 390 16 390 42 c 128,-1,55
 390 68 390 68 332 187.5 c 128,-1,56
 274 307 274 307 255.5 328.5 c 128,-1,57
 237 350 237 350 226 350 c 128,-1,58
 215 350 215 350 204.5 333.5 c 128,-1,59
 194 317 194 317 191 275 c 128,-1,60
 188 233 188 233 178.5 201.5 c 128,-1,61
 169 170 169 170 143 157.5 c 128,-1,62
 117 145 117 145 95 116 c 128,-1,63
 73 87 73 87 52 25 c 128,-1,64
 31 -37 31 -37 6.5 -74 c 128,-1,65
 -18 -111 -18 -111 -37 -125 c 128,-1,66
 -56 -139 -56 -139 -80 -139 c 0,67,68
 -97 -139 -97 -139 -107.5 -129 c 128,-1,69
 -118 -119 -118 -119 -118 -109 c 0,0,1
80 229 m 0,70,71
 80 213 80 213 97.5 194.5 c 128,-1,72
 115 176 115 176 130 176 c 128,-1,73
 145 176 145 176 156.5 201.5 c 128,-1,74
 168 227 168 227 168 244 c 128,-1,75
 168 261 168 261 161 273 c 128,-1,76
 154 285 154 285 136.5 285 c 128,-1,77
 119 285 119 285 99.5 267 c 128,-1,78
 80 249 80 249 80 229 c 0,70,71
EndSplineSet
Validated: 3073
Layer: 2
Substitution2: "'ss07' Underdotted-1" uni1EA0
AlternateSubs2: "'salt' Stylistic Alternatives in Latin lookup 26-1" A.alt
Substitution2: "'ss11' Sentence caps from caps-1" A.titling
Substitution2: "'ss12' Titling caps-1" A.titling
EndChar

StartChar: E
Encoding: 69 69 36
GlifName: E_
Width: 582
Flags: MW
LayerCount: 3
Back
Fore
SplineSet
28 241 m 0,0,1
 28 267 28 267 31 306.5 c 128,-1,2
 34 346 34 346 51 389.5 c 128,-1,3
 68 433 68 433 92.5 456 c 128,-1,4
 117 479 117 479 149.5 496 c 128,-1,5
 182 513 182 513 222 527.5 c 128,-1,6
 262 542 262 542 338 542 c 256,7,8
 414 542 414 542 445.5 535.5 c 128,-1,9
 477 529 477 529 487 529 c 0,10,11
 495 529 495 529 497 533.5 c 128,-1,12
 499 538 499 538 507.5 550 c 128,-1,13
 516 562 516 562 519 562 c 128,-1,14
 522 562 522 562 522 552 c 128,-1,15
 522 542 522 542 520.5 526 c 128,-1,16
 519 510 519 510 519 487 c 128,-1,17
 519 464 519 464 522.5 447.5 c 128,-1,18
 526 431 526 431 526 424.5 c 128,-1,19
 526 418 526 418 523 418 c 0,20,21
 516 418 516 418 513.5 436 c 128,-1,22
 511 454 511 454 442 479.5 c 128,-1,23
 373 505 373 505 311 505 c 0,24,25
 287 505 287 505 258 499.5 c 128,-1,26
 229 494 229 494 198.5 466 c 128,-1,27
 168 438 168 438 159.5 393 c 128,-1,28
 151 348 151 348 151 327 c 0,29,30
 151 318 151 318 154.5 312 c 128,-1,31
 158 306 158 306 180 306 c 0,32,33
 186 306 186 306 206.5 308 c 128,-1,34
 227 310 227 310 368.5 316 c 128,-1,35
 510 322 510 322 520.5 345.5 c 128,-1,36
 531 369 531 369 544 369 c 0,37,38
 552 369 552 369 552 365 c 0,39,40
 552 363 552 363 547.5 355.5 c 128,-1,41
 543 348 543 348 542 292.5 c 128,-1,42
 541 237 541 237 532 237 c 0,43,44
 527 237 527 237 524 246 c 128,-1,45
 521 255 521 255 519 274 c 1,46,-1
 354 273 l 2,47,48
 192 272 192 272 166 256 c 0,49,50
 151 248 151 248 151 222.5 c 128,-1,51
 151 197 151 197 160 158.5 c 128,-1,52
 169 120 169 120 178 107 c 128,-1,53
 187 94 187 94 206.5 75.5 c 128,-1,54
 226 57 226 57 255 43 c 128,-1,55
 284 29 284 29 331 29 c 0,56,57
 390 29 390 29 422.5 45.5 c 128,-1,58
 455 62 455 62 482 82.5 c 128,-1,59
 509 103 509 103 515 119.5 c 128,-1,60
 521 136 521 136 532.5 153.5 c 128,-1,61
 544 171 544 171 549.5 171 c 128,-1,62
 555 171 555 171 555 162 c 0,63,64
 555 154 555 154 550.5 131 c 128,-1,65
 546 108 546 108 544.5 76 c 128,-1,66
 543 44 543 44 537 26 c 128,-1,67
 531 8 531 8 530.5 0.5 c 128,-1,68
 530 -7 530 -7 527 -7 c 0,69,70
 525 -7 525 -7 521.5 -4.5 c 128,-1,71
 518 -2 518 -2 518 11.5 c 128,-1,72
 518 25 518 25 519 42 c 1,73,74
 499 35 499 35 479 28 c 128,-1,75
 459 21 459 21 430.5 11 c 128,-1,76
 402 1 402 1 357 -6.5 c 128,-1,77
 312 -14 312 -14 285 -14 c 0,78,79
 265 -14 265 -14 241.5 -9 c 128,-1,80
 218 -4 218 -4 185 8 c 128,-1,81
 152 20 152 20 139 29.5 c 128,-1,82
 126 39 126 39 108.5 54.5 c 128,-1,83
 91 70 91 70 80.5 80 c 128,-1,84
 70 90 70 90 55.5 112.5 c 128,-1,85
 41 135 41 135 34.5 172 c 128,-1,86
 28 209 28 209 28 241 c 0,0,1
EndSplineSet
Validated: 3073
Layer: 2
Substitution2: "'ss07' Underdotted-1" uni1EB8
Substitution2: "'ss11' Sentence caps from caps-1" E.medium
Substitution2: "'ss12' Titling caps-1" E.titling
EndChar

StartChar: U
Encoding: 85 85 37
GlifName: U_
Width: 675
Flags: W
LayerCount: 3
Back
Fore
SplineSet
-62 521 m 0,0,1
 -62 534 -62 534 -22 534 c 128,-1,2
 18 534 18 534 41.5 532 c 128,-1,3
 65 530 65 530 104 530 c 128,-1,4
 143 530 143 530 198.5 537.5 c 128,-1,5
 254 545 254 545 264 550.5 c 128,-1,6
 274 556 274 556 278.5 556 c 128,-1,7
 283 556 283 556 283 548.5 c 128,-1,8
 283 541 283 541 274 537 c 0,9,10
 205 501 205 501 190.5 483 c 128,-1,11
 176 465 176 465 163.5 400.5 c 128,-1,12
 151 336 151 336 151 255.5 c 128,-1,13
 151 175 151 175 173.5 135 c 128,-1,14
 196 95 196 95 235.5 65 c 128,-1,15
 275 35 275 35 332 35 c 128,-1,16
 389 35 389 35 425.5 53 c 128,-1,17
 462 71 462 71 468 100 c 128,-1,18
 474 129 474 129 474 286.5 c 128,-1,19
 474 444 474 444 469.5 466 c 128,-1,20
 465 488 465 488 463 496.5 c 128,-1,21
 461 505 461 505 449 505 c 128,-1,22
 437 505 437 505 428 506 c 128,-1,23
 419 507 419 507 395.5 507 c 128,-1,24
 372 507 372 507 368 509.5 c 128,-1,25
 364 512 364 512 364 516.5 c 128,-1,26
 364 521 364 521 376.5 528.5 c 128,-1,27
 389 536 389 536 397 536 c 128,-1,28
 405 536 405 536 409 533 c 128,-1,29
 413 530 413 530 430.5 530 c 128,-1,30
 448 530 448 530 520.5 534 c 128,-1,31
 593 538 593 538 613.5 546 c 128,-1,32
 634 554 634 554 644 554 c 128,-1,33
 654 554 654 554 658.5 552.5 c 128,-1,34
 663 551 663 551 663 547.5 c 128,-1,35
 663 544 663 544 658.5 538.5 c 128,-1,36
 654 533 654 533 645 530 c 128,-1,37
 636 527 636 527 618 514 c 128,-1,38
 600 501 600 501 593 484 c 128,-1,39
 586 467 586 467 575 402 c 128,-1,40
 564 337 564 337 564 240 c 0,41,42
 563 143.02039967 563 143.02039967 563 118.5 c 131,-1,43
 563 93.9796003295 563 93.9796003295 568 61.9898001648 c 128,-1,44
 573 30 573 30 583 21.5 c 128,-1,45
 593 13 593 13 624.5 13 c 128,-1,46
 656 13 656 13 667 14 c 128,-1,47
 678 15 678 15 685 15 c 128,-1,48
 692 15 692 15 692 12 c 0,49,50
 692 6 692 6 672.5 -1.5 c 128,-1,51
 653 -9 653 -9 592 -12 c 128,-1,52
 531 -15 531 -15 511 -20.5 c 128,-1,53
 491 -26 491 -26 479 -26 c 0,54,55
 463 -26 463 -26 463 -15 c 128,-1,56
 463 -4 463 -4 467 8 c 128,-1,57
 471 20 471 20 471 28.5 c 128,-1,58
 471 37 471 37 466 42 c 128,-1,59
 461 47 461 47 457 47 c 128,-1,60
 453 47 453 47 438.5 37 c 128,-1,61
 424 27 424 27 366.5 8 c 128,-1,62
 309 -11 309 -11 270 -11 c 128,-1,63
 231 -11 231 -11 169 20 c 128,-1,64
 107 51 107 51 68.5 114.5 c 128,-1,65
 30 178 30 178 30 239 c 128,-1,66
 30 300 30 300 53 356 c 128,-1,67
 76 412 76 412 100 442.5 c 128,-1,68
 124 473 124 473 137.5 485 c 128,-1,69
 151 497 151 497 151 504.5 c 128,-1,70
 151 512 151 512 131 512 c 2,71,-1
 -35 512 l 2,72,73
 -62 512 -62 512 -62 521 c 0,0,1
EndSplineSet
Layer: 2
Substitution2: "'ss07' Underdotted-1" uni1EE4
Substitution2: "'ss11' Sentence caps from caps-1" U.titling
Substitution2: "'ss12' Titling caps-1" U.titling
EndChar

StartChar: D
Encoding: 68 68 38
GlifName: D_
Width: 707
Flags: MW
LayerCount: 3
Back
Fore
SplineSet
-31 527 m 128,-1,1
 -31 532 -31 532 -4 532 c 2,2,-1
 53 532 l 2,3,4
 232 532 232 532 288.5 536.5 c 128,-1,5
 345 541 345 541 386.5 541 c 128,-1,6
 428 541 428 541 473 533.5 c 128,-1,7
 518 526 518 526 558 506 c 128,-1,8
 598 486 598 486 643 437.5 c 128,-1,9
 688 389 688 389 688 329 c 0,10,11
 688 284 688 284 665 229 c 128,-1,12
 642 174 642 174 600 131 c 128,-1,13
 558 88 558 88 498 53.5 c 128,-1,14
 438 19 438 19 388 6.5 c 128,-1,15
 338 -6 338 -6 310 -9 c 128,-1,16
 282 -12 282 -12 189 -12 c 128,-1,17
 96 -12 96 -12 65 -17 c 128,-1,18
 34 -22 34 -22 33 -22 c 0,19,20
 27 -22 27 -22 27 -17 c 128,-1,21
 27 -12 27 -12 57.5 -8 c 128,-1,22
 88 -4 88 -4 104.5 4.5 c 128,-1,23
 121 13 121 13 127 22 c 128,-1,24
 133 31 133 31 139.5 57.5 c 128,-1,25
 146 84 146 84 148 124.5 c 128,-1,26
 150 165 150 165 150 276.5 c 128,-1,27
 150 388 150 388 147.5 416.5 c 128,-1,28
 145 445 145 445 132 473.5 c 128,-1,29
 119 502 119 502 82.5 509.5 c 128,-1,30
 46 517 46 517 -19 522 c 0,31,0
 -31 522 -31 522 -31 527 c 128,-1,1
243 227 m 128,-1,33
 243 195 243 195 244 153.5 c 128,-1,34
 245 112 245 112 248 89.5 c 128,-1,35
 251 67 251 67 251 56.5 c 128,-1,36
 251 46 251 46 268.5 36 c 128,-1,37
 286 26 286 26 327 26 c 0,38,39
 390 26 390 26 437.5 47 c 128,-1,40
 485 68 485 68 516.5 99 c 128,-1,41
 548 130 548 130 561.5 183 c 128,-1,42
 575 236 575 236 575 296 c 0,43,44
 575 344 575 344 570.5 364.5 c 128,-1,45
 566 385 566 385 556 404 c 128,-1,46
 546 423 546 423 529 445 c 128,-1,47
 512 467 512 467 489 482.5 c 128,-1,48
 466 498 466 498 423 509 c 128,-1,49
 380 520 380 520 357.5 520 c 128,-1,50
 335 520 335 520 316.5 517.5 c 128,-1,51
 298 515 298 515 279.5 507.5 c 128,-1,52
 261 500 261 500 259 493 c 128,-1,53
 257 486 257 486 255 415.5 c 128,-1,54
 253 345 253 345 248 302 c 128,-1,32
 243 259 243 259 243 227 c 128,-1,33
EndSplineSet
Validated: 3073
Layer: 2
Substitution2: "'ss07' Underdotted-1" uni1E0C
AlternateSubs2: "'salt' Stylistic Alternatives in Latin lookup 26-1" uniA779
Substitution2: "'ss11' Sentence caps from caps-1" D.medium
Substitution2: "'ss12' Titling caps-1" D.titling
EndChar

StartChar: C
Encoding: 67 67 39
GlifName: C_
Width: 551
Flags: MW
LayerCount: 3
Back
Fore
SplineSet
22 242 m 0,0,1
 22 355 22 355 76.5 417 c 128,-1,2
 131 479 131 479 201 510.5 c 128,-1,3
 271 542 271 542 334 542 c 0,4,5
 364 542 364 542 397 530 c 128,-1,6
 430 518 430 518 444.5 518 c 128,-1,7
 459 518 459 518 480.5 539.5 c 128,-1,8
 502 561 502 561 506 561 c 128,-1,9
 510 561 510 561 510 556 c 0,10,11
 510 552 510 552 497 530 c 128,-1,12
 484 508 484 508 484 478.5 c 128,-1,13
 484 449 484 449 492 419.5 c 128,-1,14
 500 390 500 390 500 379 c 128,-1,15
 500 368 500 368 493 368 c 128,-1,16
 486 368 486 368 476.5 399.5 c 128,-1,17
 467 431 467 431 425 468.5 c 128,-1,18
 383 506 383 506 332 506 c 0,19,20
 257 506 257 506 224 485 c 128,-1,21
 191 464 191 464 167 399 c 128,-1,22
 143 334 143 334 143 265 c 0,23,24
 143 203 143 203 146 159 c 128,-1,25
 149 115 149 115 192 66 c 128,-1,26
 235 17 235 17 299 17 c 0,27,28
 346 17 346 17 379.5 34 c 128,-1,29
 413 51 413 51 438.5 84 c 128,-1,30
 464 117 464 117 470 148.5 c 128,-1,31
 476 180 476 180 492 180 c 0,32,33
 497 180 497 180 497 154 c 128,-1,34
 497 128 497 128 485.5 93.5 c 128,-1,35
 474 59 474 59 474 55.5 c 128,-1,36
 474 52 474 52 492 47 c 128,-1,37
 510 42 510 42 510 39.5 c 128,-1,38
 510 37 510 37 497.5 33.5 c 128,-1,39
 485 30 485 30 485 22.5 c 128,-1,40
 485 15 485 15 462 15 c 128,-1,41
 439 15 439 15 388.5 -3 c 128,-1,42
 338 -21 338 -21 305 -21 c 0,43,44
 246 -21 246 -21 176.5 8.5 c 128,-1,45
 107 38 107 38 64.5 99.5 c 128,-1,46
 22 161 22 161 22 242 c 0,0,1
EndSplineSet
Validated: 3073
Layer: 2
Substitution2: "'ss07' Underdotted-1" uni00430323
Substitution2: "'ss11' Sentence caps from caps-1" C.titling
Substitution2: "'ss12' Titling caps-1" C.titling
EndChar

StartChar: I
Encoding: 73 73 40
GlifName: I_
Width: 226
Flags: MW
LayerCount: 3
Back
Fore
SplineSet
-57 521 m 0,0,1
 -57 524 -57 524 -52.5 527 c 128,-1,2
 -48 530 -48 530 -39 530 c 128,-1,3
 -30 530 -30 530 -7 531.5 c 128,-1,4
 16 533 16 533 99 534 c 128,-1,5
 182 535 182 535 192.5 538.5 c 128,-1,6
 203 542 203 542 206 542 c 0,7,8
 208 542 208 542 208 541 c 128,-1,9
 208 540 208 540 204.5 534 c 128,-1,10
 201 528 201 528 186.5 526 c 128,-1,11
 172 524 172 524 168.5 509.5 c 128,-1,12
 165 495 165 495 161.5 486 c 128,-1,13
 158 477 158 477 156.5 466.5 c 128,-1,14
 155 456 155 456 152.5 433.5 c 128,-1,15
 150 411 150 411 150 248 c 128,-1,16
 150 85 150 85 157.5 56 c 128,-1,17
 165 27 165 27 175 24 c 128,-1,18
 185 21 185 21 193.5 21 c 128,-1,19
 202 21 202 21 232 20 c 128,-1,20
 262 19 262 19 264 16.5 c 128,-1,21
 266 14 266 14 266 11 c 128,-1,22
 266 8 266 8 263.5 6 c 128,-1,23
 261 4 261 4 235.5 0 c 128,-1,24
 210 -4 210 -4 202 -4 c 128,-1,25
 194 -4 194 -4 184 -2.5 c 128,-1,26
 174 -1 174 -1 168.5 -1 c 128,-1,27
 163 -1 163 -1 154.5 -2.5 c 128,-1,28
 146 -4 146 -4 136 -4 c 128,-1,29
 126 -4 126 -4 118 -5 c 128,-1,30
 110 -6 110 -6 90 -6 c 128,-1,31
 70 -6 70 -6 55.5 -10 c 128,-1,32
 41 -14 41 -14 36 -14 c 128,-1,33
 31 -14 31 -14 31 -10.5 c 128,-1,34
 31 -7 31 -7 35.5 -3.5 c 128,-1,35
 40 0 40 0 50 3 c 128,-1,36
 60 6 60 6 65 36.5 c 128,-1,37
 70 67 70 67 70 146.5 c 128,-1,38
 70 226 70 226 69 294 c 128,-1,39
 68 362 68 362 55 497 c 0,40,41
 53 517 53 517 19.5 517 c 128,-1,42
 -14 517 -14 517 -24 516 c 128,-1,43
 -34 515 -34 515 -45.5 515 c 128,-1,44
 -57 515 -57 515 -57 521 c 0,0,1
EndSplineSet
Validated: 3073
Layer: 2
Substitution2: "'ss07' Underdotted-1" uni1ECA
Substitution2: "'ss11' Sentence caps from caps-1" I.medium
Substitution2: "'ss12' Titling caps-1" I.titling
EndChar

StartChar: Q
Encoding: 81 81 41
GlifName: Q_
Width: 676
VWidth: 0
Flags: MW
AnchorPoint: "us anchor" 498 586 basechar 0
AnchorPoint: "std above anchor" 350 562 basechar 0
AnchorPoint: "std below anchor" 321 -49 basechar 0
LayerCount: 3
Back
Fore
SplineSet
28 239 m 256,0,1
 28 307 28 307 49.5 351 c 128,-1,2
 71 395 71 395 104 434.5 c 128,-1,3
 137 474 137 474 169.5 496 c 128,-1,4
 202 518 202 518 267 532 c 128,-1,5
 332 546 332 546 361 546 c 0,6,7
 382 546 382 546 430 537 c 128,-1,8
 478 528 478 528 530.5 500.5 c 128,-1,9
 583 473 583 473 615 419 c 128,-1,10
 647 365 647 365 647 298 c 256,11,12
 647 230 647 230 630.5 193 c 128,-1,13
 614 156 614 156 585 120 c 0,14,15
 563 93 563 93 531 61 c 0,16,17
 510 40 510 40 510 26 c 0,18,19
 510 11 510 11 514 5 c 0,20,21
 521 -4 521 -4 579.5 -35.5 c 128,-1,22
 638 -67 638 -67 693.5 -92 c 128,-1,23
 749 -117 749 -117 792 -137.5 c 128,-1,24
 835 -158 835 -158 860 -162 c 0,25,26
 872 -164 872 -164 872 -173 c 0,27,28
 872 -181 872 -181 852.5 -186 c 128,-1,29
 833 -191 833 -191 822 -191 c 128,-1,30
 811 -191 811 -191 787.5 -188.5 c 128,-1,31
 764 -186 764 -186 693.5 -161 c 128,-1,32
 623 -136 623 -136 584 -113.5 c 128,-1,33
 545 -91 545 -91 455.5 -54.5 c 128,-1,34
 366 -18 366 -18 293 -9 c 0,35,36
 265 -5 265 -5 262 -5 c 0,37,38
 200 -3 200 -3 154.5 26 c 128,-1,39
 109 55 109 55 84 79 c 128,-1,40
 59 103 59 103 43.5 137 c 128,-1,41
 28 171 28 171 28 239 c 256,0,1
153 267 m 256,42,43
 153 252 153 252 153.5 228 c 128,-1,44
 154 204 154 204 162 166.5 c 128,-1,45
 170 129 170 129 181.5 98.5 c 128,-1,46
 193 68 193 68 225 47 c 128,-1,47
 257 26 257 26 339 16 c 0,48,49
 351 14 351 14 359 14 c 128,-1,50
 367 14 367 14 369.5 16.5 c 128,-1,51
 372 19 372 19 381 21 c 0,52,53
 415 28 415 28 458 73 c 128,-1,54
 501 118 501 118 514 172.5 c 128,-1,55
 527 227 527 227 527 286 c 256,56,57
 527 327 527 327 523 355.5 c 128,-1,58
 519 384 519 384 504 421.5 c 128,-1,59
 489 459 489 459 468.5 477.5 c 128,-1,60
 448 496 448 496 409.5 514.5 c 128,-1,61
 371 533 371 533 351 533 c 256,62,63
 330 533 330 533 302.5 526 c 128,-1,64
 275 519 275 519 249 498.5 c 128,-1,65
 223 478 223 478 199.5 438.5 c 128,-1,66
 176 399 176 399 164.5 340.5 c 128,-1,67
 153 282 153 282 153 267 c 256,42,43
EndSplineSet
Validated: 3073
Layer: 2
Substitution2: "'ss07' Underdotted-1" uni00510323
Substitution2: "'ss11' Sentence caps from caps-1" Q.medium
AlternateSubs2: "'salt' Stylistic Alternatives in Latin lookup 26-1" Q.alt
Substitution2: "'ss12' Titling caps-1" Q.titling
EndChar

StartChar: N
Encoding: 78 78 42
GlifName: N_
Width: 705
Flags: MW
LayerCount: 3
Back
Fore
SplineSet
-32 515 m 0,0,1
 -32 529 -32 529 -6.5 529 c 128,-1,2
 19 529 19 529 53.5 533 c 128,-1,3
 88 537 88 537 103 537 c 128,-1,4
 118 537 118 537 161.5 539.5 c 128,-1,5
 205 542 205 542 224.5 542 c 128,-1,6
 244 542 244 542 244 540.5 c 128,-1,7
 244 539 244 539 238.5 533 c 128,-1,8
 233 527 233 527 233 519.5 c 128,-1,9
 233 512 233 512 251.5 484 c 128,-1,10
 270 456 270 456 302 420.5 c 128,-1,11
 334 385 334 385 339.5 372 c 128,-1,12
 345 359 345 359 379 319 c 128,-1,13
 413 279 413 279 493 225.5 c 128,-1,14
 573 172 573 172 585.5 172 c 128,-1,15
 598 172 598 172 600.5 211 c 128,-1,16
 603 250 603 250 604 261.5 c 128,-1,17
 605 273 605 273 605 364 c 128,-1,18
 605 455 605 455 580 474.5 c 128,-1,19
 555 494 555 494 528 494 c 128,-1,20
 501 494 501 494 491.5 498 c 128,-1,21
 482 502 482 502 482 505.5 c 128,-1,22
 482 509 482 509 494 513.5 c 128,-1,23
 506 518 506 518 570 518 c 128,-1,24
 634 518 634 518 664.5 528 c 128,-1,25
 695 538 695 538 698 538 c 0,26,27
 704 538 704 538 704 533 c 0,28,29
 704 529 704 529 697.5 527 c 128,-1,30
 691 525 691 525 672 512.5 c 128,-1,31
 653 500 653 500 642.5 488 c 128,-1,32
 632 476 632 476 632 367 c 128,-1,33
 632 258 632 258 629.5 244.5 c 128,-1,34
 627 231 627 231 627 174 c 128,-1,35
 627 117 627 117 625 86 c 128,-1,36
 623 55 623 55 622 27.5 c 128,-1,37
 621 0 621 0 618.5 -10.5 c 128,-1,38
 616 -21 616 -21 612 -21 c 256,39,40
 608 -21 608 -21 605 -13.5 c 128,-1,41
 602 -6 602 -6 595 1 c 128,-1,42
 588 8 588 8 537.5 45.5 c 128,-1,43
 487 83 487 83 418.5 145.5 c 128,-1,44
 350 208 350 208 331.5 221 c 128,-1,45
 313 234 313 234 284.5 260 c 128,-1,46
 256 286 256 286 217 331 c 128,-1,47
 178 376 178 376 160.5 376 c 128,-1,48
 143 376 143 376 143 326 c 128,-1,49
 143 276 143 276 140 246 c 128,-1,50
 137 216 137 216 134.5 160 c 128,-1,51
 132 104 132 104 132 84 c 128,-1,52
 132 64 132 64 133.5 50 c 128,-1,53
 135 36 135 36 150.5 28.5 c 128,-1,54
 166 21 166 21 181.5 16.5 c 128,-1,55
 197 12 197 12 197 4 c 128,-1,56
 197 -4 197 -4 192.5 -6.5 c 128,-1,57
 188 -9 188 -9 176.5 -9 c 128,-1,58
 165 -9 165 -9 155.5 -7 c 128,-1,59
 146 -5 146 -5 119.5 -5 c 128,-1,60
 93 -5 93 -5 72 -7 c 128,-1,61
 51 -9 51 -9 36 -9 c 128,-1,62
 21 -9 21 -9 21 -0.5 c 128,-1,63
 21 8 21 8 49.5 13 c 128,-1,64
 78 18 78 18 88.5 64.5 c 128,-1,65
 99 111 99 111 101.5 137.5 c 128,-1,66
 104 164 104 164 109 233 c 128,-1,67
 114 302 114 302 114 351 c 128,-1,68
 114 400 114 400 112.5 431 c 128,-1,69
 111 462 111 462 103 479.5 c 128,-1,70
 95 497 95 497 50 497 c 128,-1,71
 5 497 5 497 -13.5 503.5 c 128,-1,72
 -32 510 -32 510 -32 515 c 0,0,1
EndSplineSet
Validated: 3073
Layer: 2
Substitution2: "'ss07' Underdotted-1" uni1E46
Substitution2: "'ss11' Sentence caps from caps-1" N.titling
Substitution2: "'ss12' Titling caps-1" N.titling
EndChar

StartChar: X
Encoding: 88 88 43
GlifName: X_
Width: 656
Flags: MW
LayerCount: 3
Back
Fore
SplineSet
29 -4 m 0,0,1
 29 0 29 0 33 0 c 128,-1,2
 37 0 37 0 47 2 c 128,-1,3
 57 4 57 4 60 5 c 128,-1,4
 63 6 63 6 79 9.5 c 128,-1,5
 95 13 95 13 118 37 c 128,-1,6
 141 61 141 61 168 95.5 c 128,-1,7
 195 130 195 130 213.5 151 c 128,-1,8
 232 172 232 172 249.5 193.5 c 128,-1,9
 267 215 267 215 277.5 227.5 c 128,-1,10
 288 240 288 240 293.5 251.5 c 128,-1,11
 299 263 299 263 299 272.5 c 128,-1,12
 299 282 299 282 273 323 c 128,-1,13
 247 364 247 364 237 380 c 128,-1,14
 227 396 227 396 208 434 c 128,-1,15
 189 472 189 472 177 489 c 128,-1,16
 165 506 165 506 153.5 512 c 128,-1,17
 142 518 142 518 125 520.5 c 128,-1,18
 108 523 108 523 90.5 524.5 c 128,-1,19
 73 526 73 526 61 526 c 128,-1,20
 49 526 49 526 41 526.5 c 128,-1,21
 33 527 33 527 33 530 c 0,22,23
 33 535 33 535 48.5 535 c 128,-1,24
 64 535 64 535 72 534.5 c 128,-1,25
 80 534 80 534 109 534 c 128,-1,26
 138 534 138 534 143 536 c 128,-1,27
 148 538 148 538 232.5 538 c 128,-1,28
 317 538 317 538 317 535.5 c 128,-1,29
 317 533 317 533 312.5 531 c 128,-1,30
 308 529 308 529 295 528.5 c 128,-1,31
 282 528 282 528 282 522.5 c 128,-1,32
 282 517 282 517 295 487.5 c 128,-1,33
 308 458 308 458 326.5 425 c 128,-1,34
 345 392 345 392 354.5 371.5 c 128,-1,35
 364 351 364 351 369 345.5 c 128,-1,36
 374 340 374 340 378 340 c 128,-1,37
 382 340 382 340 398.5 359.5 c 128,-1,38
 415 379 415 379 426 393.5 c 128,-1,39
 437 408 437 408 445 422 c 128,-1,40
 453 436 453 436 464.5 454 c 128,-1,41
 476 472 476 472 489.5 491 c 128,-1,42
 503 510 503 510 503 515.5 c 128,-1,43
 503 521 503 521 486 521 c 128,-1,44
 469 521 469 521 469 525 c 0,45,46
 469 537 469 537 501 537 c 0,47,48
 530 537 530 537 543.5 536 c 128,-1,49
 557 535 557 535 566 533.5 c 128,-1,50
 575 532 575 532 581.5 532 c 128,-1,51
 588 532 588 532 588 527 c 0,52,53
 588 519 588 519 583 519 c 0,54,55
 560 519 560 519 520 476.5 c 128,-1,56
 480 434 480 434 461 408 c 128,-1,57
 442 382 442 382 424 358.5 c 128,-1,58
 406 335 406 335 398.5 327.5 c 128,-1,59
 391 320 391 320 391 311.5 c 128,-1,60
 391 303 391 303 404.5 284 c 128,-1,61
 418 265 418 265 433 241.5 c 128,-1,62
 448 218 448 218 463.5 184.5 c 128,-1,63
 479 151 479 151 492 132.5 c 128,-1,64
 505 114 505 114 512 103 c 128,-1,65
 519 92 519 92 530.5 70 c 128,-1,66
 542 48 542 48 557 32.5 c 128,-1,67
 572 17 572 17 588.5 10.5 c 128,-1,68
 605 4 605 4 614 2.5 c 128,-1,69
 623 1 623 1 623 -6 c 256,70,71
 623 -13 623 -13 615 -13 c 256,72,73
 607 -13 607 -13 602.5 -9 c 128,-1,74
 598 -5 598 -5 530.5 -4.5 c 128,-1,75
 463 -4 463 -4 458.5 -3.5 c 128,-1,76
 454 -3 454 -3 445.5 -1.5 c 128,-1,77
 437 0 437 0 437 2 c 128,-1,78
 437 4 437 4 442.5 10.5 c 128,-1,79
 448 17 448 17 448 20 c 128,-1,80
 448 23 448 23 440.5 33 c 128,-1,81
 433 43 433 43 427 53 c 128,-1,82
 421 63 421 63 414 78 c 128,-1,83
 407 93 407 93 395.5 109.5 c 128,-1,84
 384 126 384 126 380 133.5 c 128,-1,85
 376 141 376 141 363 164 c 128,-1,86
 350 187 350 187 339 207 c 128,-1,87
 328 227 328 227 326 232 c 128,-1,88
 324 237 324 237 319 237 c 128,-1,89
 314 237 314 237 310 231 c 128,-1,90
 306 225 306 225 274.5 188.5 c 128,-1,91
 243 152 243 152 219.5 121.5 c 128,-1,92
 196 91 196 91 181 60 c 128,-1,93
 166 29 166 29 166 20 c 128,-1,94
 166 11 166 11 191.5 11 c 128,-1,95
 217 11 217 11 218 7 c 0,96,97
 218 2 218 2 212 1 c 128,-1,98
 206 0 206 0 165.5 0 c 128,-1,99
 125 0 125 0 106 -1 c 128,-1,100
 87 -2 87 -2 77.5 -2.5 c 128,-1,101
 68 -3 68 -3 55.5 -5 c 128,-1,102
 43 -7 43 -7 36 -7 c 256,103,104
 29 -7 29 -7 29 -4 c 0,0,1
EndSplineSet
Validated: 3073
Layer: 2
Substitution2: "'ss07' Underdotted-1" Xdotbelowcomb
Substitution2: "'ss11' Sentence caps from caps-1" X.titling
Substitution2: "'ss12' Titling caps-1" X.titling
EndChar

StartChar: T
Encoding: 84 84 44
GlifName: T_
Width: 601
Flags: MW
LayerCount: 3
Back
Fore
SplineSet
34 512 m 256,0,1
 34 533 34 533 43 563.5 c 128,-1,2
 52 594 52 594 58 594 c 256,3,4
 64 594 64 594 64 573.5 c 128,-1,5
 64 553 64 553 67 547.5 c 128,-1,6
 70 542 70 542 81.5 537.5 c 128,-1,7
 93 533 93 533 107.5 533 c 128,-1,8
 122 533 122 533 126 532 c 128,-1,9
 130 531 130 531 137.5 531 c 128,-1,10
 145 531 145 531 155.5 532 c 128,-1,11
 166 533 166 533 181 533 c 128,-1,12
 196 533 196 533 252.5 532.5 c 128,-1,13
 309 532 309 532 346 530.5 c 128,-1,14
 383 529 383 529 416.5 529 c 128,-1,15
 450 529 450 529 493 531.5 c 128,-1,16
 536 534 536 534 549.5 549 c 128,-1,17
 563 564 563 564 567 564 c 128,-1,18
 571 564 571 564 571 553 c 256,19,20
 571 542 571 542 569 532 c 128,-1,21
 567 522 567 522 567 515 c 128,-1,22
 567 508 567 508 568 498.5 c 128,-1,23
 569 489 569 489 569 478 c 128,-1,24
 569 467 569 467 566 467 c 128,-1,25
 563 467 563 467 547 481 c 128,-1,26
 531 495 531 495 506 495 c 128,-1,27
 481 495 481 495 462.5 493.5 c 128,-1,28
 444 492 444 492 408.5 491 c 128,-1,29
 373 490 373 490 368.5 486 c 128,-1,30
 364 482 364 482 359.5 450.5 c 128,-1,31
 355 419 355 419 354 406.5 c 128,-1,32
 353 394 353 394 351.5 341.5 c 128,-1,33
 350 289 350 289 348.5 266.5 c 128,-1,34
 347 244 347 244 346.5 210 c 128,-1,35
 346 176 346 176 344.5 152 c 128,-1,36
 343 128 343 128 343 102 c 128,-1,37
 343 76 343 76 355 57 c 128,-1,38
 367 38 367 38 376.5 32 c 128,-1,39
 386 26 386 26 386 21 c 0,40,41
 386 18 386 18 382.5 15 c 128,-1,42
 379 12 379 12 354.5 2.5 c 128,-1,43
 330 -7 330 -7 308 -7 c 256,44,45
 286 -7 286 -7 257 -5 c 128,-1,46
 228 -3 228 -3 218.5 -3 c 128,-1,47
 209 -3 209 -3 203 -4.5 c 128,-1,48
 197 -6 197 -6 194 -6 c 0,49,50
 190 -6 190 -6 188.5 -5 c 128,-1,51
 187 -4 187 -4 187 -2.5 c 128,-1,52
 187 -1 187 -1 189 2 c 128,-1,53
 191 5 191 5 200.5 5.5 c 128,-1,54
 210 6 210 6 214.5 7.5 c 128,-1,55
 219 9 219 9 229 12 c 128,-1,56
 239 15 239 15 245.5 20 c 128,-1,57
 252 25 252 25 262 50.5 c 128,-1,58
 272 76 272 76 272 103.5 c 128,-1,59
 272 131 272 131 271.5 148.5 c 128,-1,60
 271 166 271 166 270 179.5 c 128,-1,61
 269 193 269 193 268.5 229.5 c 128,-1,62
 268 266 268 266 268 341.5 c 128,-1,63
 268 417 268 417 268 431.5 c 128,-1,64
 268 446 268 446 259.5 465 c 128,-1,65
 251 484 251 484 242.5 486 c 128,-1,66
 234 488 234 488 215 488 c 128,-1,67
 196 488 196 488 129.5 486 c 128,-1,68
 63 484 63 484 52.5 484 c 128,-1,69
 42 484 42 484 38 487.5 c 128,-1,70
 34 491 34 491 34 512 c 256,0,1
EndSplineSet
Validated: 3073
Layer: 2
Substitution2: "'ss07' Underdotted-1" uni1E6C
Substitution2: "'ss11' Sentence caps from caps-1" T.medium
Substitution2: "'ss12' Titling caps-1" T.titling
EndChar

StartChar: S
Encoding: 83 83 45
GlifName: S_
Width: 423
Flags: MW
LayerCount: 3
Back
Fore
SplineSet
32 63 m 0,0,1
 32 126 32 126 36 136.5 c 128,-1,2
 40 147 40 147 42.5 147 c 128,-1,3
 45 147 45 147 49 143 c 128,-1,4
 53 139 53 139 53 135 c 128,-1,5
 53 131 53 131 50.5 127.5 c 128,-1,6
 48 124 48 124 48 114 c 128,-1,7
 48 104 48 104 68.5 80.5 c 128,-1,8
 89 57 89 57 127.5 35.5 c 128,-1,9
 166 14 166 14 201 14 c 128,-1,10
 236 14 236 14 273 35.5 c 128,-1,11
 310 57 310 57 316.5 82.5 c 128,-1,12
 323 108 323 108 327 129 c 128,-1,13
 331 150 331 150 331 162 c 128,-1,14
 331 174 331 174 327 187.5 c 128,-1,15
 323 201 323 201 300.5 225.5 c 128,-1,16
 278 250 278 250 258.5 259 c 128,-1,17
 239 268 239 268 191 268 c 128,-1,18
 143 268 143 268 113.5 288 c 128,-1,19
 84 308 84 308 74.5 341 c 128,-1,20
 65 374 65 374 65 399.5 c 128,-1,21
 65 425 65 425 78.5 456 c 128,-1,22
 92 487 92 487 120 508 c 128,-1,23
 148 529 148 529 173.5 535.5 c 128,-1,24
 199 542 199 542 241 542 c 128,-1,25
 283 542 283 542 312 545 c 128,-1,26
 341 548 341 548 346 551.5 c 128,-1,27
 351 555 351 555 354 555 c 0,28,29
 356 555 356 555 356 549.5 c 128,-1,30
 356 544 356 544 350 531 c 128,-1,31
 344 518 344 518 344 499.5 c 128,-1,32
 344 481 344 481 346.5 470 c 128,-1,33
 349 459 349 459 349 455 c 128,-1,34
 349 451 349 451 346.5 451 c 128,-1,35
 344 451 344 451 324 475 c 128,-1,36
 304 499 304 499 287.5 508 c 128,-1,37
 271 517 271 517 256.5 520.5 c 128,-1,38
 242 524 242 524 223 524 c 128,-1,39
 204 524 204 524 180 514.5 c 128,-1,40
 156 505 156 505 148 481 c 128,-1,41
 140 457 140 457 140 439 c 128,-1,42
 140 421 140 421 146.5 400 c 128,-1,43
 153 379 153 379 162.5 369 c 128,-1,44
 172 359 172 359 190.5 351 c 128,-1,45
 209 343 209 343 263 327.5 c 128,-1,46
 317 312 317 312 341 298 c 128,-1,47
 365 284 365 284 388.5 246 c 128,-1,48
 412 208 412 208 412 179 c 0,49,50
 412 148 412 148 391.5 113.5 c 128,-1,51
 371 79 371 79 344.5 53.5 c 128,-1,52
 318 28 318 28 277 11 c 128,-1,53
 236 -6 236 -6 198.5 -6 c 128,-1,54
 161 -6 161 -6 129.5 0 c 128,-1,55
 98 6 98 6 83 6 c 128,-1,56
 68 6 68 6 56 -5.5 c 128,-1,57
 44 -17 44 -17 40 -17 c 0,58,59
 38 -17 38 -17 35 -12 c 128,-1,60
 32 -7 32 -7 32 63 c 0,0,1
EndSplineSet
Validated: 3073
Layer: 2
Substitution2: "'ss07' Underdotted-1" uni1E62
Substitution2: "'ss11' Sentence caps from caps-1" S.medium
Substitution2: "'ss12' Titling caps-1" S.titling
EndChar

StartChar: R
Encoding: 82 82 46
GlifName: R_
Width: 500
Flags: MW
LayerCount: 3
Back
Fore
SplineSet
-49 517 m 0,0,1
 -49 522 -49 522 -43.5 522 c 128,-1,2
 -38 522 -38 522 -19 523.5 c 128,-1,3
 0 525 0 525 12 525 c 128,-1,4
 24 525 24 525 37 524 c 128,-1,5
 50 523 50 523 64.5 523 c 128,-1,6
 79 523 79 523 88 524 c 128,-1,7
 97 525 97 525 134 525 c 128,-1,8
 171 525 171 525 188.5 530.5 c 128,-1,9
 206 536 206 536 239.5 543.5 c 128,-1,10
 273 551 273 551 283 551 c 0,11,12
 319 551 319 551 347.5 540.5 c 128,-1,13
 376 530 376 530 395.5 514 c 128,-1,14
 415 498 415 498 430 472.5 c 128,-1,15
 445 447 445 447 445 416 c 256,16,17
 445 385 445 385 438.5 364 c 128,-1,18
 432 343 432 343 417 323 c 128,-1,19
 402 303 402 303 381.5 287.5 c 128,-1,20
 361 272 361 272 361 269 c 128,-1,21
 361 266 361 266 371 245 c 128,-1,22
 381 224 381 224 406.5 181.5 c 128,-1,23
 432 139 432 139 455 103 c 128,-1,24
 478 67 478 67 498 44 c 128,-1,25
 518 21 518 21 526 18.5 c 128,-1,26
 534 16 534 16 537 12 c 128,-1,27
 540 8 540 8 540 5 c 0,28,29
 540 -1 540 -1 521 -1 c 0,30,31
 498 -1 498 -1 485.5 2 c 128,-1,32
 473 5 473 5 457 18 c 128,-1,33
 441 31 441 31 424.5 44 c 128,-1,34
 408 57 408 57 379.5 91 c 128,-1,35
 351 125 351 125 327.5 160 c 128,-1,36
 304 195 304 195 283 213 c 128,-1,37
 262 231 262 231 243.5 233.5 c 128,-1,38
 225 236 225 236 213 239.5 c 128,-1,39
 201 243 201 243 197 243 c 128,-1,40
 193 243 193 243 192 232 c 128,-1,41
 191 221 191 221 191 183.5 c 128,-1,42
 191 146 191 146 194.5 89.5 c 128,-1,43
 198 33 198 33 202.5 28.5 c 128,-1,44
 207 24 207 24 231 22 c 128,-1,45
 255 20 255 20 255 8.5 c 128,-1,46
 255 -3 255 -3 227 -3 c 128,-1,47
 199 -3 199 -3 174.5 -6.5 c 128,-1,48
 150 -10 150 -10 142 -10 c 128,-1,49
 134 -10 134 -10 113 -8 c 128,-1,50
 92 -6 92 -6 80 -6 c 128,-1,51
 68 -6 68 -6 59 -7 c 128,-1,52
 50 -8 50 -8 46 -8 c 128,-1,53
 42 -8 42 -8 42 -2.5 c 128,-1,54
 42 3 42 3 62.5 14 c 128,-1,55
 83 25 83 25 93 42.5 c 128,-1,56
 103 60 103 60 106 91.5 c 128,-1,57
 109 123 109 123 109 282 c 128,-1,58
 109 441 109 441 99 472 c 128,-1,59
 89 503 89 503 82.5 507 c 128,-1,60
 76 511 76 511 68.5 511 c 128,-1,61
 61 511 61 511 45.5 508 c 128,-1,62
 30 505 30 505 9 505 c 128,-1,63
 -12 505 -12 505 -30.5 506.5 c 128,-1,64
 -49 508 -49 508 -49 517 c 0,0,1
193 311 m 0,65,66
 193 284 193 284 216 274.5 c 128,-1,67
 239 265 239 265 251.5 262.5 c 128,-1,68
 264 260 264 260 276 260 c 0,69,70
 305 260 305 260 322.5 277.5 c 128,-1,71
 340 295 340 295 348.5 323 c 128,-1,72
 357 351 357 351 357 380 c 0,73,74
 357 418 357 418 350.5 439.5 c 128,-1,75
 344 461 344 461 328.5 486 c 128,-1,76
 313 511 313 511 295 517.5 c 128,-1,77
 277 524 277 524 267 524 c 256,78,79
 257 524 257 524 241 516.5 c 128,-1,80
 225 509 225 509 212.5 493.5 c 128,-1,81
 200 478 200 478 200 450 c 128,-1,82
 200 422 200 422 196.5 395 c 128,-1,83
 193 368 193 368 193 311 c 0,65,66
EndSplineSet
Validated: 3073
Layer: 2
Substitution2: "'ss07' Underdotted-1" uni1E5A
Substitution2: "'ss11' Sentence caps from caps-1" R.titling
Substitution2: "'ss12' Titling caps-1" R.titling
EndChar

StartChar: period
Encoding: 46 46 47
GlifName: period
Width: 197
VWidth: 0
Flags: MW
LayerCount: 3
Back
Fore
SplineSet
70 22 m 0,0,1
 70 38 70 38 80 51 c 128,-1,2
 90 64 90 64 105 71.5 c 128,-1,3
 120 79 120 79 127 79 c 0,4,5
 146 79 146 79 146 40 c 0,6,7
 146 21 146 21 143.5 14 c 128,-1,8
 141 7 141 7 127 -2 c 128,-1,9
 113 -11 113 -11 99 -11 c 256,10,11
 85 -11 85 -11 77.5 -2 c 128,-1,12
 70 7 70 7 70 22 c 0,0,1
EndSplineSet
Validated: 3073
Layer: 2
EndChar

StartChar: colon
Encoding: 58 58 48
GlifName: colon
Width: 250
Flags: MW
LayerCount: 3
Back
Fore
SplineSet
83 26 m 0,0,1
 83 59 83 59 109.5 73.5 c 128,-1,2
 136 88 136 88 142 88 c 128,-1,3
 148 88 148 88 162.5 75.5 c 128,-1,4
 177 63 177 63 177 41 c 128,-1,5
 177 19 177 19 152 3.5 c 128,-1,6
 127 -12 127 -12 117.5 -12 c 128,-1,7
 108 -12 108 -12 95.5 2 c 128,-1,8
 83 16 83 16 83 26 c 0,0,1
93 279 m 0,9,10
 93 292 93 292 111.5 309.5 c 128,-1,11
 130 327 130 327 164.5 327 c 128,-1,12
 199 327 199 327 199 291 c 0,13,14
 199 279 199 279 195 264.5 c 128,-1,15
 191 250 191 250 169 238 c 128,-1,16
 147 226 147 226 140.5 226 c 128,-1,17
 134 226 134 226 129.5 229 c 128,-1,18
 125 232 125 232 109 251 c 128,-1,19
 93 270 93 270 93 279 c 0,9,10
EndSplineSet
Validated: 3073
Layer: 2
EndChar

StartChar: longs_t_dotlessi
Encoding: 65538 -1 49
GlifName: longs_t_dotlessi
Width: 670
Flags: MW
LayerCount: 3
Back
Fore
SplineSet
36 287 m 0,0,1
 36 313 36 313 60 328 c 128,-1,2
 84 343 84 343 89 359.5 c 128,-1,3
 94 376 94 376 94 405 c 0,4,5
 94 511 94 511 102.5 526 c 128,-1,6
 111 541 111 541 166.5 569.5 c 128,-1,7
 222 598 222 598 267 598 c 0,8,9
 289 598 289 598 321 584 c 128,-1,10
 353 570 353 570 365.5 554.5 c 128,-1,11
 378 539 378 539 382 503.5 c 128,-1,12
 386 468 386 468 386 438 c 128,-1,13
 386 408 386 408 378.5 378.5 c 128,-1,14
 371 349 371 349 371 342 c 128,-1,15
 371 335 371 335 373 332.5 c 128,-1,16
 375 330 375 330 400 330 c 128,-1,17
 425 330 425 330 486.5 333.5 c 128,-1,18
 548 337 548 337 566.5 347 c 128,-1,19
 585 357 585 357 604 357 c 128,-1,20
 623 357 623 357 623 349.5 c 128,-1,21
 623 342 623 342 620 324 c 128,-1,22
 617 306 617 306 610 228.5 c 128,-1,23
 603 151 603 151 594.5 129.5 c 128,-1,24
 586 108 586 108 586 92.5 c 128,-1,25
 586 77 586 77 586.5 59 c 128,-1,26
 587 41 587 41 596.5 27.5 c 128,-1,27
 606 14 606 14 626 14 c 256,28,29
 646 14 646 14 660 22 c 128,-1,30
 674 30 674 30 680 30 c 128,-1,31
 686 30 686 30 686 26 c 0,32,33
 686 18 686 18 639 -3.5 c 128,-1,34
 592 -25 592 -25 563 -25 c 0,35,36
 524 -25 524 -25 524 12 c 3,37,38
 524 38 524 38 513 38 c 128,-1,39
 502 38 502 38 493 29 c 128,-1,40
 484 20 484 20 443.5 9.5 c 128,-1,41
 403 -1 403 -1 368 -1 c 0,42,43
 337 -1 337 -1 317 9 c 128,-1,44
 297 19 297 19 284.5 39.5 c 128,-1,45
 272 60 272 60 272 74 c 0,46,47
 272 89 272 89 279 131.5 c 128,-1,48
 286 174 286 174 286 191.5 c 128,-1,49
 286 209 286 209 292 230.5 c 128,-1,50
 298 252 298 252 298 263 c 128,-1,51
 298 274 298 274 291 275.5 c 128,-1,52
 284 277 284 277 271.5 277 c 128,-1,53
 259 277 259 277 246.5 276 c 128,-1,54
 234 275 234 275 222 275 c 128,-1,55
 210 275 210 275 201 275.5 c 128,-1,56
 192 276 192 276 192 282 c 128,-1,57
 192 288 192 288 215 310 c 128,-1,58
 238 332 238 332 251 332 c 128,-1,59
 264 332 264 332 274 326.5 c 128,-1,60
 284 321 284 321 290.5 321 c 128,-1,61
 297 321 297 321 307 331 c 128,-1,62
 317 341 317 341 319.5 357 c 128,-1,63
 322 373 322 373 322 423 c 128,-1,64
 322 473 322 473 319 485.5 c 128,-1,65
 316 498 316 498 293 519 c 128,-1,66
 270 540 270 540 241.5 550 c 128,-1,67
 213 560 213 560 201 560 c 0,68,69
 192 560 192 560 178.5 554 c 128,-1,70
 165 548 165 548 158.5 517.5 c 128,-1,71
 152 487 152 487 147.5 389 c 128,-1,72
 143 291 143 291 140 256 c 128,-1,73
 137 221 137 221 134 165.5 c 128,-1,74
 131 110 131 110 129 37 c 128,-1,75
 127 -36 127 -36 127 -39.5 c 128,-1,76
 127 -43 127 -43 102.5 -57 c 128,-1,77
 78 -71 78 -71 66 -71 c 0,78,79
 60 -71 60 -71 60 -45 c 0,80,81
 60 -21 60 -21 65.5 95.5 c 128,-1,82
 71 212 71 212 71 219 c 0,83,84
 71 227 71 227 69 235 c 128,-1,85
 67 243 67 243 51.5 255.5 c 128,-1,86
 36 268 36 268 36 287 c 0,0,1
337 128 m 0,87,88
 337 78 337 78 370 56 c 128,-1,89
 403 34 403 34 435 34 c 0,90,91
 451 34 451 34 468 38.5 c 128,-1,92
 485 43 485 43 504.5 66.5 c 128,-1,93
 524 90 524 90 528 116.5 c 128,-1,94
 532 143 532 143 540 182 c 128,-1,95
 548 221 548 221 548 238.5 c 128,-1,96
 548 256 548 256 546.5 258 c 128,-1,97
 545 260 545 260 543 260 c 128,-1,98
 541 260 541 260 538.5 259.5 c 128,-1,99
 536 259 536 259 533.5 259 c 128,-1,100
 531 259 531 259 521 270 c 128,-1,101
 511 281 511 281 496 284 c 128,-1,102
 481 287 481 287 442 287 c 128,-1,103
 403 287 403 287 389.5 285 c 128,-1,104
 376 283 376 283 368 270.5 c 128,-1,105
 360 258 360 258 348.5 198 c 128,-1,106
 337 138 337 138 337 128 c 0,87,88
EndSplineSet
Validated: 3073
Layer: 2
Ligature2: "three-element discretionary ligatures in Latin" longs t dotlessi
LCarets2: 2 257 499
EndChar

StartChar: r_t_u
Encoding: 65539 -1 50
GlifName: r_t_u
Width: 884
VWidth: 0
Flags: MW
AnchorPoint: "us ligature anchor" 217 634 baselig 0
AnchorPoint: "ligature below" 149 -54 baselig 0
AnchorPoint: "ligature anchor" 164 757 baselig 0
AnchorPoint: "us ligature anchor" 456 391 baselig 1
AnchorPoint: "ligature below" 372 -24 baselig 1
AnchorPoint: "ligature anchor" 407 659 baselig 1
AnchorPoint: "us ligature anchor" 775 391 baselig 2
AnchorPoint: "ligature below" 650 -24 baselig 2
AnchorPoint: "ligature anchor" 700 391 baselig 2
LayerCount: 3
Back
Fore
SplineSet
18 300 m 259,0,1
 18 314 18 314 30 325 c 2,2,-1
 57 347 l 2,3,4
 78 364 78 364 78.5 411 c 128,-1,5
 79 458 79 458 83.5 483 c 128,-1,6
 88 508 88 508 93 545 c 128,-1,7
 98 582 98 582 105.5 619 c 128,-1,8
 113 656 113 656 120 677.5 c 128,-1,9
 127 699 127 699 154.5 727 c 128,-1,10
 182 755 182 755 188 755 c 259,11,12
 195 755 195 755 195 750 c 259,13,14
 195 747 195 747 193 740 c 0,15,16
 176 700 176 700 176 688 c 259,17,18
 176 632 176 632 332 481 c 0,19,20
 362 452 362 452 362 428 c 259,21,22
 362 404 362 404 354.5 381.5 c 128,-1,23
 347 359 347 359 347 349 c 259,24,25
 347 338 347 338 355 333.5 c 128,-1,26
 363 329 363 329 409 329 c 259,27,28
 455 329 455 329 504.5 331 c 128,-1,29
 554 333 554 333 575 340 c 128,-1,30
 596 347 596 347 606 347 c 259,31,32
 617 347 617 347 617 338 c 259,33,34
 617 333 617 333 610 320 c 128,-1,35
 603 307 603 307 591 237 c 128,-1,36
 579 167 579 167 579 133 c 259,37,38
 579 99 579 99 587 76 c 128,-1,39
 595 53 595 53 619 48.5 c 128,-1,40
 643 44 643 44 660 44 c 259,41,42
 717 44 717 44 732.5 59 c 128,-1,43
 748 74 748 74 749 80.5 c 128,-1,44
 750 87 750 87 750 93 c 3,45,46
 750 97 750 97 749 104.5 c 128,-1,47
 748 112 748 112 748 128 c 131,-1,48
 748 144 748 144 752 161.5 c 128,-1,49
 756 179 756 179 759.5 198 c 128,-1,50
 763 217 763 217 763 239 c 259,51,52
 763 261 763 261 759.5 269.5 c 128,-1,53
 756 278 756 278 730 278 c 128,-1,54
 704 278 704 278 704 310 c 3,55,56
 704 326 704 326 728 335.5 c 128,-1,57
 752 345 752 345 779 351.5 c 128,-1,58
 806 358 806 358 821 358 c 259,59,60
 836 358 836 358 836 350 c 259,61,62
 836 342 836 342 819.5 247 c 128,-1,63
 803 152 803 152 803 115 c 259,64,65
 803 78 803 78 808 59 c 128,-1,66
 813 40 813 40 820 34.5 c 128,-1,67
 827 29 827 29 840.5 27 c 128,-1,68
 854 25 854 25 864 25 c 256,69,70
 873 25 873 25 887.5 35 c 128,-1,71
 902 45 902 45 908 45 c 259,72,73
 914 45 914 45 914 39 c 259,74,75
 914 33 914 33 889 20 c 128,-1,76
 864 7 864 7 837.5 -5 c 128,-1,77
 811 -17 811 -17 796 -17 c 259,78,79
 747 -17 747 -17 743.5 6 c 128,-1,80
 740 29 740 29 731 29 c 259,81,82
 722 29 722 29 688 12 c 128,-1,83
 654 -5 654 -5 609 -5 c 259,84,85
 560 -5 560 -5 542.5 2 c 128,-1,86
 525 9 525 9 520 30.5 c 128,-1,87
 515 52 515 52 512 52 c 259,88,89
 509 52 509 52 475.5 35.5 c 128,-1,90
 442 19 442 19 410.5 8.5 c 128,-1,91
 379 -2 379 -2 348 -2 c 256,92,93
 307 -2 307 -2 291.5 14 c 128,-1,94
 276 30 276 30 269 46 c 128,-1,95
 262 62 262 62 258.5 80.5 c 128,-1,96
 255 99 255 99 255 121 c 259,97,98
 255 152 255 152 265 194.5 c 128,-1,99
 275 237 275 237 275 257.5 c 128,-1,100
 275 278 275 278 253 278 c 128,-1,101
 231 278 231 278 210 284.5 c 128,-1,102
 189 291 189 291 189 298 c 0,103,104
 189 311 189 311 206 320 c 128,-1,105
 223 329 223 329 249.5 330 c 128,-1,106
 276 331 276 331 282 335 c 128,-1,107
 288 339 288 339 291 355 c 128,-1,108
 294 371 294 371 294 384 c 259,109,110
 294 397 294 397 284 414 c 128,-1,111
 274 431 274 431 235 475 c 128,-1,112
 196 519 196 519 181.5 537 c 128,-1,113
 167 555 167 555 160 555 c 0,114,115
 155 555 155 555 152 539 c 0,116,117
 144 491 144 491 139.5 436.5 c 128,-1,118
 135 382 135 382 135 370 c 259,119,120
 135 327 135 327 135.5 264 c 128,-1,121
 136 201 136 201 136 109 c 3,122,123
 136 -5 136 -5 123 -38 c 0,124,125
 112 -67 112 -67 108 -73 c 0,126,127
 100 -84 100 -84 84 -93 c 0,128,129
 68 -102 68 -102 60 -103 c 259,130,131
 51 -103 51 -103 51 -99 c 259,132,133
 51 -95 51 -95 55 -85.5 c 128,-1,134
 59 -76 59 -76 67 36.5 c 128,-1,135
 75 149 75 149 75 195 c 283,136,137
 75 236 75 236 69.5 251.5 c 128,-1,138
 64 267 64 267 48.5 270 c 128,-1,139
 33 273 33 273 25.5 280.5 c 128,-1,140
 18 288 18 288 18 300 c 259,0,1
314 184 m 259,141,142
 314 168 314 168 316 146 c 128,-1,143
 318 124 318 124 322.5 106.5 c 128,-1,144
 327 89 327 89 338.5 72.5 c 128,-1,145
 350 56 350 56 373 43.5 c 128,-1,146
 396 31 396 31 417 31 c 256,147,148
 425 31 425 31 432 32.5 c 128,-1,149
 439 34 439 34 467 51 c 128,-1,150
 495 68 495 68 508 91 c 128,-1,151
 521 114 521 114 523 144 c 2,152,-1
 531 246 l 17,153,154
 531 250 531 250 530 255.5 c 128,-1,155
 529 261 529 261 508 271 c 0,156,157
 487 281 487 281 443.5 284.5 c 128,-1,158
 400 288 400 288 376 288 c 259,159,160
 360 288 360 288 348 280.5 c 128,-1,161
 336 273 336 273 329 253.5 c 144,-1,162
 322 234 322 234 318 214 c 128,-1,163
 314 194 314 194 314 184 c 259,141,142
EndSplineSet
Validated: 3073
Layer: 2
Ligature2: "'hlig' Three-element Historic Ligatures" r t u
LCarets2: 2 238 504
EndChar

StartChar: r_t
Encoding: 65540 -1 51
GlifName: r_t
Width: 531
VWidth: 0
Flags: MW
AnchorPoint: "us ligature anchor" 224 625 baselig 0
AnchorPoint: "ligature below" 142 -54 baselig 0
AnchorPoint: "ligature anchor" 132 757 baselig 0
AnchorPoint: "us ligature anchor" 488 391 baselig 1
AnchorPoint: "ligature below" 385 -24 baselig 1
AnchorPoint: "ligature anchor" 401 659 baselig 1
LayerCount: 3
Back
Fore
SplineSet
18 300 m 256,0,1
 18 314 18 314 30 325 c 2,2,-1
 57 347 l 2,3,4
 77 363 77 363 77.5 409.5 c 152,-1,5
 78 456 78 456 82.5 491 c 128,-1,6
 87 526 87 526 92 563.5 c 128,-1,7
 97 601 97 601 104.5 637.5 c 128,-1,8
 112 674 112 674 119 695.5 c 128,-1,9
 126 717 126 717 154 745 c 0,10,11
 182 773 182 773 188 773 c 259,12,13
 195 773 195 773 194 768 c 259,14,15
 194 765 194 765 192 758 c 0,16,17
 175 720 175 720 175 707 c 259,18,19
 175 651 175 651 331 500 c 0,20,21
 361 471 361 471 361 451 c 128,-1,22
 361 431 361 431 353.5 408.5 c 128,-1,23
 346 386 346 386 346 375 c 0,24,25
 346 363 346 363 354 359 c 0,26,27
 363 355 363 355 422 355 c 265,28,-1
 522 357 l 273,29,30
 593 357 593 357 593 347 c 259,31,32
 593 343 593 343 572.5 326 c 128,-1,33
 552 309 552 309 541 309 c 259,34,35
 502 309 502 309 462 308 c 152,-1,36
 422 307 422 307 390.5 306 c 128,-1,37
 359 305 359 305 347 302 c 128,-1,38
 335 299 335 299 328 279.5 c 144,-1,39
 321 260 321 260 317 247.5 c 128,-1,40
 313 235 313 235 313 222 c 259,41,42
 313 186 313 186 315.5 163 c 152,-1,43
 318 140 318 140 322 124 c 128,-1,44
 326 108 326 108 339 88 c 128,-1,45
 352 68 352 68 377.5 58.5 c 128,-1,46
 403 49 403 49 429 49 c 256,47,48
 473 49 473 49 520 90 c 16,49,50
 521 91 521 91 528 92 c 0,51,52
 535 92 535 92 548 88.5 c 128,-1,53
 561 85 561 85 561 77.5 c 128,-1,54
 561 70 561 70 533 48.5 c 128,-1,55
 505 27 505 27 464 10.5 c 128,-1,56
 423 -6 423 -6 372 -6 c 256,57,58
 328 -6 328 -6 303.5 16 c 128,-1,59
 279 38 279 38 270.5 62 c 128,-1,60
 262 86 262 86 258 107 c 128,-1,61
 254 128 254 128 254 154 c 259,62,63
 254 185 254 185 264 220 c 128,-1,64
 274 255 274 255 274 275.5 c 128,-1,65
 274 296 274 296 252 296 c 128,-1,66
 230 296 230 296 209 302.5 c 128,-1,67
 188 309 188 309 188 316 c 259,68,69
 188 329 188 329 205 338 c 128,-1,70
 222 347 222 347 248.5 348 c 128,-1,71
 275 349 275 349 281 353 c 128,-1,72
 287 357 287 357 290 373.5 c 128,-1,73
 293 390 293 390 293 402.5 c 128,-1,74
 293 415 293 415 286.5 429 c 128,-1,75
 280 443 280 443 235 491.5 c 128,-1,76
 190 540 190 540 178 556.5 c 128,-1,77
 166 573 166 573 159 573 c 259,78,79
 154 573 154 573 150 554.5 c 128,-1,80
 146 536 146 536 140 471.5 c 128,-1,81
 134 407 134 407 134 388 c 3,82,83
 134 323 134 323 135 271 c 128,-1,84
 136 219 136 219 136 119 c 131,-1,85
 136 19 136 19 124 -15 c 128,-1,86
 112 -49 112 -49 106 -57 c 128,-1,87
 100 -65 100 -65 83.5 -74.5 c 128,-1,88
 67 -84 67 -84 58 -84 c 259,89,90
 49 -84 49 -84 50 -81 c 259,91,92
 50 -78 50 -78 55 -64 c 128,-1,93
 60 -50 60 -50 66.5 66 c 128,-1,94
 73 182 73 182 73 207 c 128,-1,95
 73 232 73 232 68 249.5 c 128,-1,96
 63 267 63 267 48 270 c 128,-1,97
 33 273 33 273 25.5 280.5 c 128,-1,98
 18 288 18 288 18 300 c 256,0,1
EndSplineSet
Validated: 3073
Layer: 2
Ligature2: "'hlig' Two-element Historic Ligatures" r t
LCarets2: 1 237
EndChar

StartChar: uniA751
Encoding: 42833 42833 52
GlifName: uniA_751
Width: 470
VWidth: 0
Flags: MW
AnchorPoint: "std above anchor" 282 439 basechar 0
AnchorPoint: "std below anchor" 232 -290 basechar 0
AnchorPoint: "us anchor" 360 439 basechar 0
LayerCount: 3
Back
Fore
SplineSet
429 184 m 259,0,1
 429 160 429 160 424 138 c 128,-1,2
 419 116 419 116 397 86.5 c 128,-1,3
 375 57 375 57 360.5 44.5 c 128,-1,4
 346 32 346 32 320 20 c 0,5,6
 251 -14 251 -14 183 -14 c 0,7,8
 159 -14 159 -14 153.5 -25 c 128,-1,9
 148 -36 148 -36 148 -82 c 259,10,11
 148 -127 148 -127 156 -136.5 c 128,-1,12
 164 -146 164 -146 208 -146 c 1,13,-1
 318 -142 l 1,14,15
 353 -142 353 -142 354 -151 c 3,16,17
 354 -159 354 -159 331 -171.5 c 128,-1,18
 308 -184 308 -184 301.5 -184 c 131,-1,19
 295 -184 295 -184 281 -175.5 c 128,-1,20
 267 -167 267 -167 260 -167 c 259,21,22
 254 -167 254 -167 241 -174 c 128,-1,23
 228 -181 228 -181 207 -181 c 128,-1,24
 186 -181 186 -181 167.5 -191 c 128,-1,25
 149 -201 149 -201 146.5 -211.5 c 128,-1,26
 144 -222 144 -222 144 -232 c 128,-1,27
 144 -242 144 -242 145 -254 c 128,-1,28
 146 -266 146 -266 146 -271 c 3,29,30
 146 -277 146 -277 144.5 -282 c 128,-1,31
 143 -287 143 -287 131 -295 c 128,-1,32
 119 -303 119 -303 96 -313 c 128,-1,33
 73 -323 73 -323 69 -323 c 259,34,35
 65 -323 65 -323 64 -321 c 259,36,37
 64 -318 64 -318 69.5 -304.5 c 128,-1,38
 75 -291 75 -291 75 -245.5 c 128,-1,39
 75 -200 75 -200 71.5 -195 c 128,-1,40
 68 -190 68 -190 56 -190 c 128,-1,41
 44 -190 44 -190 20 -194.5 c 128,-1,42
 -4 -199 -4 -199 -22 -199 c 128,-1,43
 -40 -199 -40 -199 -54.5 -198.5 c 128,-1,44
 -69 -198 -69 -198 -76 -195 c 128,-1,45
 -83 -192 -83 -192 -83 -183 c 259,46,47
 -83 -174 -83 -174 -77.5 -167.5 c 128,-1,48
 -72 -161 -72 -161 -48.5 -146 c 128,-1,49
 -25 -131 -25 -131 -19.5 -131 c 128,-1,50
 -14 -131 -14 -131 -14 -133 c 259,51,52
 -14 -135 -14 -135 -15 -138 c 128,-1,53
 -16 -141 -16 -141 -16 -143 c 3,54,55
 -16 -150 -16 -150 -2.5 -153 c 128,-1,56
 11 -156 11 -156 38 -156 c 2,57,-1
 76 -156 l 1,58,59
 78 -142 78 -142 80.5 -122.5 c 152,-1,60
 83 -103 83 -103 83 -67 c 2,61,-1
 83 148 l 2,62,63
 83 231 83 231 79.5 237 c 128,-1,64
 76 243 76 243 63.5 243 c 128,-1,65
 51 243 51 243 35 259 c 128,-1,66
 19 275 19 275 19 286 c 128,-1,67
 19 297 19 297 37.5 315 c 128,-1,68
 56 333 56 333 66 333 c 128,-1,69
 76 333 76 333 98.5 344.5 c 128,-1,70
 121 356 121 356 134 356 c 3,71,72
 154 356 154 356 154 336.5 c 128,-1,73
 154 317 154 317 166.5 317 c 128,-1,74
 179 317 179 317 214 336 c 128,-1,75
 249 355 249 355 276 355 c 259,76,77
 304 355 304 355 345.5 342 c 128,-1,78
 387 329 387 329 408 302 c 128,-1,79
 429 275 429 275 429 184 c 259,0,1
361 160 m 259,80,81
 361 222 361 222 325.5 270.5 c 128,-1,82
 290 319 290 319 231 319 c 259,83,84
 221 319 221 319 213.5 315.5 c 128,-1,85
 206 312 206 312 185.5 292 c 128,-1,86
 165 272 165 272 156.5 247 c 128,-1,87
 148 222 148 222 148 180.5 c 128,-1,88
 148 139 148 139 151 126.5 c 128,-1,89
 154 114 154 114 171.5 87 c 128,-1,90
 189 60 189 60 193 57 c 128,-1,91
 197 54 197 54 201 42.5 c 128,-1,92
 205 31 205 31 216 26 c 128,-1,93
 227 21 227 21 260 21 c 259,94,95
 293 21 293 21 307 26.5 c 128,-1,96
 321 32 321 32 321 39 c 128,-1,97
 321 46 321 46 335 60.5 c 128,-1,98
 349 75 349 75 355 92 c 128,-1,99
 361 109 361 109 361 160 c 259,80,81
EndSplineSet
Validated: 3073
Layer: 2
EndChar

StartChar: longs_i
Encoding: 65541 -1 53
GlifName: longs_i
Width: 416
VWidth: 0
Flags: MW
AnchorPoint: "us ligature anchor" 188 391 baselig 0
AnchorPoint: "ligature below" 108 -49 baselig 0
AnchorPoint: "ligature anchor" 138 659 baselig 0
AnchorPoint: "us ligature anchor" 409 391 baselig 1
AnchorPoint: "ligature below" 306 -24 baselig 1
AnchorPoint: "ligature anchor" 303 659 baselig 1
LayerCount: 3
Back
Fore
SplineSet
16 306 m 3,0,1
 16 320 16 320 29.5 356 c 128,-1,2
 43 392 43 392 81 436 c 128,-1,3
 119 480 119 480 164 515 c 128,-1,4
 209 550 209 550 264 550 c 259,5,6
 299 550 299 550 321 533.5 c 128,-1,7
 343 517 343 517 343 507 c 259,8,9
 343 497 343 497 336.5 488 c 128,-1,10
 330 479 330 479 320.5 468 c 128,-1,11
 311 457 311 457 298 457 c 259,12,13
 291 457 291 457 277 468 c 128,-1,14
 263 479 263 479 245 489 c 128,-1,15
 227 499 227 499 212 499 c 259,16,17
 202 499 202 499 191 490.5 c 128,-1,18
 180 482 180 482 173.5 467.5 c 128,-1,19
 167 453 167 453 162 435 c 128,-1,20
 157 417 157 417 154 402 c 128,-1,21
 151 387 151 387 147 352 c 128,-1,22
 143 317 143 317 141.5 273.5 c 128,-1,23
 140 230 140 230 140 192.5 c 128,-1,24
 140 155 140 155 140 131 c 10,25,-1
 140 35 l 18,26,27
 140 4 140 4 133 -5 c 1,28,29
 111 -29 111 -29 79 -30 c 256,30,31
 75 -30 75 -30 70 -15 c 0,32,33
 67 -4 67 -4 66.5 23.5 c 128,-1,34
 66 51 66 51 66 67.5 c 131,-1,35
 66 84 66 84 67 109.5 c 128,-1,36
 68 135 68 135 72.5 189.5 c 128,-1,37
 77 244 77 244 77 261 c 259,38,39
 77 280 77 280 74 286.5 c 128,-1,40
 71 293 71 293 43 293 c 259,41,42
 16 293 16 293 16 306 c 3,0,1
216 296 m 259,43,44
 216 313 216 313 225 321.5 c 128,-1,45
 234 330 234 330 267 345.5 c 128,-1,46
 300 361 300 361 333 361 c 259,47,48
 348 361 348 361 348 341 c 259,49,50
 348 304 348 304 340.5 277.5 c 128,-1,51
 333 251 333 251 330.5 190.5 c 128,-1,52
 328 130 328 130 328 114 c 259,53,54
 328 61 328 61 333 46.5 c 128,-1,55
 338 32 338 32 354 32 c 128,-1,56
 370 32 370 32 393 41.5 c 128,-1,57
 416 51 416 51 419 51 c 259,58,59
 420 51 420 51 420 50 c 259,60,61
 420 46 420 46 383 27 c 128,-1,62
 346 8 346 8 330 4 c 128,-1,63
 314 0 314 0 289 -0 c 259,64,65
 264 0 264 0 257.5 1 c 128,-1,66
 251 2 251 2 251 4 c 3,67,68
 251 5 251 5 253.5 8 c 128,-1,69
 256 11 256 11 259 35.5 c 128,-1,70
 262 60 262 60 265 113 c 128,-1,71
 268 166 268 166 272.5 201 c 128,-1,72
 277 236 277 236 277 251 c 259,73,74
 277 267 277 267 246.5 275 c 128,-1,75
 216 283 216 283 216 296 c 259,43,44
EndSplineSet
Validated: 3073
Layer: 2
Ligature2: "two-element ligature in Latin" longs i
LCarets2: 1 202
Ligature2: "two-element ligature in Latin" longs dotlessi
EndChar

StartChar: a.sc
Encoding: 65542 -1 54
GlifName: a.sc
Width: 445
VWidth: 0
Flags: MW
AnchorPoint: "std below anchor" 207 -49 basechar 0
AnchorPoint: "std above anchor" 195 483 basechar 0
AnchorPoint: "us anchor" 264 483 basechar 0
LayerCount: 3
Back
Fore
SplineSet
17 17 m 256,0,1
 17 23 17 23 31 41 c 128,-1,2
 45 59 45 59 54 62 c 128,-1,3
 63 65 63 65 67.5 66.5 c 128,-1,4
 72 68 72 68 75 69 c 1,5,6
 97 117 97 117 119.5 172.5 c 152,-1,7
 142 228 142 228 156 277 c 9,8,9
 154 283 154 283 151 293 c 128,-1,10
 148 303 148 303 144.5 313 c 128,-1,11
 141 323 141 323 133 327 c 128,-1,12
 125 331 125 331 125 344 c 3,13,14
 125 351 125 351 133.5 358.5 c 128,-1,15
 142 366 142 366 157 376.5 c 128,-1,16
 172 387 172 387 190.5 397.5 c 128,-1,17
 209 408 209 408 225 408 c 256,18,19
 244 408 244 408 244 398.5 c 128,-1,20
 244 389 244 389 236.5 379.5 c 128,-1,21
 229 370 229 370 229 351 c 0,22,23
 229 323 229 323 250 249 c 128,-1,24
 271 175 271 175 281 151.5 c 128,-1,25
 291 128 291 128 302 110.5 c 128,-1,26
 313 93 313 93 323.5 77.5 c 128,-1,27
 334 62 334 62 346.5 58.5 c 128,-1,28
 359 55 359 55 388 55 c 256,29,30
 410 55 410 55 444 69 c 0,31,32
 461 76 461 76 469 77 c 3,33,34
 478 77 478 77 478 69 c 0,35,36
 478 62 478 62 473 59 c 0,37,38
 438 35 438 35 401.5 17.5 c 128,-1,39
 365 0 365 0 333 0 c 256,40,41
 305 0 305 0 283 18 c 128,-1,42
 261 36 261 36 248 54 c 128,-1,43
 235 72 235 72 222.5 99.5 c 128,-1,44
 210 127 210 127 199 165 c 128,-1,45
 188 203 188 203 177 203 c 128,-1,46
 166 203 166 203 156.5 189.5 c 128,-1,47
 147 176 147 176 137 150 c 128,-1,48
 127 124 127 124 121 108.5 c 128,-1,49
 115 93 115 93 105 60 c 1,50,51
 184 36 184 36 184 25.5 c 128,-1,52
 184 15 184 15 169 7.5 c 128,-1,53
 154 0 154 0 125 0 c 0,54,55
 110 0 110 0 82.5 3.5 c 128,-1,56
 55 7 55 7 36 7 c 128,-1,57
 17 7 17 7 17 17 c 256,0,1
EndSplineSet
Validated: 3073
Layer: 2
EndChar

StartChar: b.sc
Encoding: 65543 -1 55
GlifName: b.sc
Width: 338
VWidth: 0
Flags: MW
AnchorPoint: "std above anchor" 145 483 basechar 0
AnchorPoint: "std below anchor" 159 -49 basechar 0
AnchorPoint: "us anchor" 211 483 basechar 0
LayerCount: 3
Back
Fore
SplineSet
7 332 m 0,0,1
 7 342 7 342 31 356.5 c 152,-1,2
 55 371 55 371 97 387 c 152,-1,3
 139 403 139 403 152 403 c 0,4,5
 174 403 174 403 189.5 396 c 152,-1,6
 205 389 205 389 217 369.5 c 152,-1,7
 229 350 229 350 229 333 c 259,8,9
 229 312 229 312 221.5 295.5 c 144,-1,10
 214 279 214 279 201 264 c 0,11,12
 198 260 198 260 197 259 c 3,13,14
 197 255 197 255 208 251 c 0,15,16
 230 245 230 245 253 234 c 152,-1,17
 276 223 276 223 288 212.5 c 152,-1,18
 300 202 300 202 307 185 c 152,-1,19
 314 168 314 168 314 149 c 264,20,21
 314 125 314 125 306 104 c 152,-1,22
 298 83 298 83 284 66 c 152,-1,23
 270 49 270 49 248 34 c 152,-1,24
 226 19 226 19 201.5 8 c 152,-1,25
 177 -3 177 -3 166 -3 c 256,26,27
 149 -3 149 -3 126 1 c 152,-1,28
 103 5 103 5 94 10 c 1,29,30
 90 7 90 7 70.5 0 c 128,-1,31
 51 -7 51 -7 48 -7 c 0,32,33
 41 -7 41 -7 31 -3 c 152,-1,34
 21 1 21 1 21 5 c 0,35,36
 21 7 21 7 33 14 c 152,-1,37
 45 21 45 21 49.5 25 c 152,-1,38
 54 29 54 29 54 48 c 139,-1,39
 54 67 54 67 54.5 116 c 128,-1,40
 55 165 55 165 55 178.5 c 139,-1,41
 55 192 55 192 54.5 226 c 128,-1,42
 54 260 54 260 53.5 271 c 144,-1,43
 53 282 53 282 52 289 c 25,44,45
 39 297 39 297 23 311 c 128,-1,46
 7 325 7 325 7 332 c 0,0,1
105 127 m 275,47,48
 105 85 105 85 106 71 c 144,-1,49
 107 57 107 57 119 50 c 144,-1,50
 131 43 131 43 151.5 40 c 152,-1,51
 172 37 172 37 190 37 c 0,52,53
 211 37 211 37 230 46.5 c 152,-1,54
 249 56 249 56 253 68.5 c 152,-1,55
 257 81 257 81 257 107 c 16,56,57
 257 131 257 131 243 152 c 152,-1,58
 229 173 229 173 208.5 188.5 c 152,-1,59
 188 204 188 204 166 204 c 0,60,61
 140 204 140 204 127 198 c 144,-1,62
 114 192 114 192 109.5 180.5 c 144,-1,63
 105 169 105 169 105 127 c 275,47,48
104 306 m 275,64,65
 104 274 104 274 104 259 c 152,-1,66
 104 244 104 244 109 240 c 152,-1,67
 114 236 114 236 128 236 c 259,68,69
 142 236 142 236 156 254 c 152,-1,70
 170 272 170 272 170 305 c 259,71,72
 170 324 170 324 157.5 339 c 152,-1,73
 145 354 145 354 131 354 c 259,74,75
 119 354 119 354 111.5 346 c 144,-1,76
 104 338 104 338 104 306 c 275,64,65
EndSplineSet
Validated: 3073
Layer: 2
EndChar

StartChar: c.sc
Encoding: 65544 -1 56
GlifName: c.sc
Width: 338
VWidth: 0
Flags: MW
AnchorPoint: "std below anchor" 177 -49 basechar 0
AnchorPoint: "std above anchor" 190 483 basechar 0
AnchorPoint: "us anchor" 294 483 basechar 0
LayerCount: 3
Back
Fore
SplineSet
28 157 m 256,0,1
 28 202 28 202 35 226 c 128,-1,2
 42 250 42 250 70 295.5 c 128,-1,3
 98 341 98 341 122 364.5 c 128,-1,4
 146 388 146 388 159 398 c 128,-1,5
 172 408 172 408 193 408 c 0,6,7
 208 408 208 408 243.5 393.5 c 128,-1,8
 279 379 279 379 287.5 367.5 c 128,-1,9
 296 356 296 356 296 347 c 0,10,11
 296 342 296 342 291 334 c 128,-1,12
 286 326 286 326 271 313 c 2,13,-1
 253 296 l 2,14,15
 240 283 240 283 232 295 c 2,16,-1
 217 316 l 2,17,18
 197 345 197 345 171 345 c 256,19,20
 147 345 147 345 119.5 307 c 128,-1,21
 92 269 92 269 89 254.5 c 128,-1,22
 86 240 86 240 86 229 c 256,23,24
 86 218 86 218 92.5 185.5 c 128,-1,25
 99 153 99 153 117.5 121.5 c 128,-1,26
 136 90 136 90 147 81 c 128,-1,27
 158 72 158 72 172 63 c 128,-1,28
 186 54 186 54 210 49.5 c 128,-1,29
 234 45 234 45 270 45 c 256,30,31
 281 45 281 45 296 51 c 128,-1,32
 311 57 311 57 324.5 71.5 c 128,-1,33
 338 86 338 86 343.5 86 c 128,-1,34
 349 86 349 86 349 83 c 256,35,36
 349 70 349 70 322.5 49.5 c 128,-1,37
 296 29 296 29 265 14.5 c 128,-1,38
 234 0 234 0 216 -3 c 128,-1,39
 198 -6 198 -6 177 -6 c 256,40,41
 156 -6 156 -6 132 5.5 c 128,-1,42
 108 17 108 17 94 26.5 c 128,-1,43
 80 36 80 36 68.5 46 c 128,-1,44
 57 56 57 56 48 69 c 128,-1,45
 39 82 39 82 33.5 103 c 128,-1,46
 28 124 28 124 28 157 c 256,0,1
EndSplineSet
Validated: 3073
Layer: 2
EndChar

StartChar: d.sc
Encoding: 65545 -1 57
GlifName: d.sc
Width: 370
VWidth: 0
Flags: MW
AnchorPoint: "std above anchor" 158 483 basechar 0
AnchorPoint: "std below anchor" 156 -49 basechar 0
AnchorPoint: "us anchor" 269 483 basechar 0
LayerCount: 3
Back
Fore
SplineSet
7 341 m 0,0,1
 7 356 7 356 27.5 368 c 144,-1,2
 48 380 48 380 82 389.5 c 128,-1,3
 116 399 116 399 137 399 c 0,4,5
 181 399 181 399 230 379.5 c 144,-1,6
 279 360 279 360 312.5 306 c 152,-1,7
 346 252 346 252 346 202 c 0,8,9
 346 160 346 160 333.5 129.5 c 152,-1,10
 321 99 321 99 293 69.5 c 152,-1,11
 265 40 265 40 224.5 16 c 152,-1,12
 184 -8 184 -8 158.5 -8 c 128,-1,13
 133 -8 133 -8 119.5 -6 c 136,-1,14
 106 -4 106 -4 95 -4 c 256,15,16
 83 -4 83 -4 72.5 -5 c 128,-1,17
 62 -6 62 -6 52 -6 c 128,-1,18
 42 -6 42 -6 27.5 0.5 c 152,-1,19
 13 7 13 7 13 17 c 0,20,21
 13 23 13 23 24.5 33.5 c 152,-1,22
 36 44 36 44 50 50 c 1,23,24
 50 55 50 55 54 110 c 152,-1,25
 58 165 58 165 60 191.5 c 152,-1,26
 62 218 62 218 64.5 250 c 152,-1,27
 67 282 67 282 68 287 c 1,28,29
 47 295 47 295 27 313.5 c 152,-1,30
 7 332 7 332 7 341 c 0,0,1
105 114 m 259,31,32
 105 88 105 88 106.5 76.5 c 136,-1,33
 108 65 108 65 116.5 59 c 152,-1,34
 125 53 125 53 161 44.5 c 152,-1,35
 197 36 197 36 207 36 c 264,36,37
 230 36 230 36 248 49 c 152,-1,38
 266 62 266 62 275 82 c 152,-1,39
 284 102 284 102 284 127 c 256,40,41
 284 154 284 154 277.5 183.5 c 152,-1,42
 271 213 271 213 253 245.5 c 152,-1,43
 235 278 235 278 201.5 309 c 152,-1,44
 168 340 168 340 145 340 c 0,45,46
 128 340 128 340 122.5 323 c 128,-1,47
 117 306 117 306 114.5 286.5 c 144,-1,48
 112 267 112 267 109 226.5 c 144,-1,49
 106 186 106 186 105.5 155.5 c 144,-1,50
 105 125 105 125 105 114 c 259,31,32
EndSplineSet
Validated: 3073
Layer: 2
EndChar

StartChar: e.sc
Encoding: 65546 -1 58
GlifName: e.sc
Width: 268
VWidth: 0
Flags: MW
AnchorPoint: "std above anchor" 155 483 basechar 0
AnchorPoint: "std below anchor" 132 -50 basechar 0
AnchorPoint: "us anchor" 224 483 basechar 0
LayerCount: 3
Back
Fore
SplineSet
11 333 m 259,0,1
 11 358 11 358 68 382.5 c 152,-1,2
 125 407 125 407 173 407 c 259,3,4
 202 407 202 407 215.5 399 c 128,-1,5
 229 391 229 391 240.5 374 c 128,-1,6
 252 357 252 357 252 352 c 256,7,8
 252 346 252 346 234 327.5 c 128,-1,9
 216 309 216 309 207 309 c 259,10,11
 197 309 197 309 182 323 c 128,-1,12
 167 337 167 337 150 349 c 136,-1,13
 133 361 133 361 127 361 c 259,14,15
 122 361 122 361 113.5 347 c 144,-1,16
 105 333 105 333 105 296.5 c 128,-1,17
 105 260 105 260 108 239.5 c 128,-1,18
 111 219 111 219 135.5 214.5 c 128,-1,19
 160 210 160 210 190.5 201.5 c 144,-1,20
 221 193 221 193 221 185 c 3,21,22
 221 175 221 175 207 164 c 128,-1,23
 193 153 193 153 182 149.5 c 128,-1,24
 171 146 171 146 146 144.5 c 128,-1,25
 121 143 121 143 111 141 c 257,26,27
 108 133 108 133 106 121 c 128,-1,28
 104 109 104 109 104 87 c 259,29,30
 104 65 104 65 109 58.5 c 128,-1,31
 114 52 114 52 139 40.5 c 128,-1,32
 164 29 164 29 203 29 c 259,33,34
 216 29 216 29 226.5 31.5 c 128,-1,35
 237 34 237 34 241 34 c 259,36,37
 249 34 249 34 249 28 c 259,38,39
 249 18 249 18 219 0.5 c 128,-1,40
 189 -17 189 -17 155 -17 c 259,41,42
 140 -17 140 -17 113.5 -13 c 128,-1,43
 87 -9 87 -9 50 4 c 128,-1,44
 13 17 13 17 13 29 c 259,45,46
 13 46 13 46 51 69 c 1,47,48
 53 102 53 102 53 130 c 259,49,50
 53 145 53 145 52.5 156.5 c 128,-1,51
 52 168 52 168 52 179 c 259,52,53
 52 206 52 206 54 224.5 c 128,-1,54
 56 243 56 243 56 257 c 256,55,56
 56 279 56 279 51 294 c 1,57,58
 11 316 11 316 11 333 c 259,0,1
EndSplineSet
Validated: 3073
Layer: 2
EndChar

StartChar: f.sc
Encoding: 65547 -1 59
GlifName: f.sc
Width: 255
VWidth: 0
Flags: MW
AnchorPoint: "std above anchor" 50 483 basechar 0
AnchorPoint: "std below anchor" 106 -49 basechar 0
AnchorPoint: "us anchor" 456 578 basechar 0
LayerCount: 3
Back
Fore
SplineSet
16 359 m 283,0,1
 16 370 16 370 42 388.5 c 144,-1,2
 68 407 68 407 93.5 415 c 144,-1,3
 119 423 119 423 135.5 430.5 c 128,-1,4
 152 438 152 438 181 462.5 c 128,-1,5
 210 487 210 487 245.5 518.5 c 128,-1,6
 281 550 281 550 299 568 c 128,-1,7
 317 586 317 586 325.5 599 c 152,-1,8
 334 612 334 612 334 618 c 259,9,10
 334 628 334 628 325 638 c 128,-1,11
 316 648 316 648 316 657 c 259,12,13
 316 668 316 668 333 684 c 152,-1,14
 350 700 350 700 369 700 c 267,15,16
 382 700 382 700 406 691.5 c 152,-1,17
 430 683 430 683 430 665 c 267,18,19
 430 654 430 654 417.5 638 c 152,-1,20
 405 622 405 622 379.5 600.5 c 128,-1,21
 354 579 354 579 334.5 564 c 128,-1,22
 315 549 315 549 283 521 c 128,-1,23
 251 493 251 493 229.5 475.5 c 128,-1,24
 208 458 208 458 183.5 438.5 c 128,-1,25
 159 419 159 419 150.5 410.5 c 152,-1,26
 142 402 142 402 138 378.5 c 128,-1,27
 134 355 134 355 131 318 c 128,-1,28
 128 281 128 281 128 269 c 259,29,30
 128 256 128 256 129 244 c 1,31,32
 146 238 146 238 172.5 226 c 152,-1,33
 199 214 199 214 199 209 c 259,34,35
 199 203 199 203 187 194.5 c 152,-1,36
 175 186 175 186 153.5 176 c 152,-1,37
 132 166 132 166 127 166 c 9,38,39
 123 156 123 156 123 114 c 283,40,41
 123 72 123 72 127 65 c 1,42,43
 145 61 145 61 173 50 c 144,-1,44
 201 39 201 39 201 33 c 259,45,46
 201 22 201 22 173.5 9.5 c 152,-1,47
 146 -3 146 -3 127 -3 c 259,48,49
 103 -3 103 -3 78.5 0 c 152,-1,50
 54 3 54 3 38 8.5 c 152,-1,51
 22 14 22 14 22 20 c 267,52,53
 22 28 22 28 39.5 41.5 c 152,-1,54
 57 55 57 55 74 60 c 1,55,56
 79 67 79 67 79 111 c 283,57,58
 79 155 79 155 79 168 c 1,59,60
 73 177 73 177 62.5 182 c 136,-1,61
 52 187 52 187 40.5 192.5 c 128,-1,62
 29 198 29 198 29 208 c 259,63,64
 29 212 29 212 47 225 c 144,-1,65
 65 238 65 238 80 242 c 17,66,67
 79 257 79 257 76.5 294 c 152,-1,68
 74 331 74 331 73 332 c 25,69,70
 54 335 54 335 35 344 c 128,-1,71
 16 353 16 353 16 359 c 283,0,1
EndSplineSet
Validated: 3073
Layer: 2
EndChar

StartChar: g.sc
Encoding: 65548 -1 60
GlifName: g.sc
Width: 376
VWidth: 0
Flags: MW
AnchorPoint: "std above anchor" 192 483 basechar 0
AnchorPoint: "std below anchor" 165 -49 basechar 0
AnchorPoint: "us anchor" 273 483 basechar 0
LayerCount: 3
Back
Fore
SplineSet
13 160 m 259,0,1
 13 207 13 207 22 239 c 128,-1,2
 31 271 31 271 44.5 290.5 c 128,-1,3
 58 310 58 310 75.5 332 c 128,-1,4
 93 354 93 354 111 366.5 c 128,-1,5
 129 379 129 379 151.5 389 c 136,-1,6
 174 399 174 399 190 399 c 259,7,8
 220 399 220 399 235.5 390.5 c 128,-1,9
 251 382 251 382 264 363.5 c 128,-1,10
 277 345 277 345 277 336 c 3,11,12
 277 330 277 330 250 307.5 c 128,-1,13
 223 285 223 285 220 285 c 3,14,15
 211 285 211 285 200.5 300.5 c 128,-1,16
 190 316 190 316 183 321.5 c 128,-1,17
 176 327 176 327 167.5 331 c 128,-1,18
 159 335 159 335 153 335 c 259,19,20
 143 335 143 335 133.5 329.5 c 128,-1,21
 124 324 124 324 110.5 307.5 c 128,-1,22
 97 291 97 291 90.5 267 c 128,-1,23
 84 243 84 243 84 188 c 259,24,25
 84 124 84 124 104.5 99 c 128,-1,26
 125 74 125 74 158 62 c 128,-1,27
 191 50 191 50 208 50 c 259,28,29
 225 50 225 50 236.5 52.5 c 128,-1,30
 248 55 248 55 254.5 69.5 c 128,-1,31
 261 84 261 84 261 90 c 256,32,33
 261 97 261 97 238.5 115.5 c 128,-1,34
 216 134 216 134 208.5 138 c 128,-1,35
 201 142 201 142 191 146.5 c 128,-1,36
 181 151 181 151 181 158 c 259,37,38
 181 165 181 165 192 173.5 c 128,-1,39
 203 182 203 182 206.5 184 c 128,-1,40
 210 186 210 186 228.5 194.5 c 128,-1,41
 247 203 247 203 260.5 205 c 128,-1,42
 274 207 274 207 280 207 c 0,43,44
 288 207 288 207 294.5 204.5 c 128,-1,45
 301 202 301 202 313 186 c 128,-1,46
 325 170 325 170 332 155.5 c 128,-1,47
 339 141 339 141 339 131 c 259,48,49
 339 119 339 119 335.5 110.5 c 128,-1,50
 332 102 332 102 304 71.5 c 128,-1,51
 276 41 276 41 240 20.5 c 128,-1,52
 204 0 204 0 166 0 c 259,53,54
 128 0 128 0 103.5 7.5 c 128,-1,55
 79 15 79 15 59 36 c 128,-1,56
 39 57 39 57 30 73.5 c 128,-1,57
 21 90 21 90 17 107.5 c 128,-1,58
 13 125 13 125 13 160 c 259,0,1
EndSplineSet
Validated: 3073
Layer: 2
EndChar

StartChar: h.sc
Encoding: 65549 -1 61
GlifName: h.sc
Width: 387
VWidth: 0
Flags: MW
AnchorPoint: "std above anchor" 176 483 basechar 0
AnchorPoint: "std below anchor" 192 -49 basechar 0
AnchorPoint: "us anchor" 288 483 basechar 0
LayerCount: 3
Back
Fore
SplineSet
6 3 m 0,0,1
 6 10 6 10 26 26 c 128,-1,2
 46 42 46 42 55 48 c 1,3,4
 55 105 55 105 55 117 c 128,-1,5
 55 129 55 129 54.5 168.5 c 128,-1,6
 54 208 54 208 54 226 c 3,7,8
 54 263 54 263 55 294 c 1,9,10
 15 309 15 309 15 327 c 256,11,12
 15 342 15 342 41 357.5 c 128,-1,13
 67 373 67 373 85.5 380 c 128,-1,14
 104 387 104 387 112 387 c 0,15,16
 123 387 123 387 124 377 c 0,17,18
 124 371 124 371 118 355 c 128,-1,19
 112 339 112 339 110.5 332 c 128,-1,20
 109 325 109 325 107 316 c 128,-1,21
 105 307 105 307 104.5 289 c 128,-1,22
 104 271 104 271 104 265 c 3,23,24
 104 252 104 252 105 247.5 c 128,-1,25
 106 243 106 243 112.5 236 c 128,-1,26
 119 229 119 229 127.5 225 c 128,-1,27
 136 221 136 221 194 221 c 259,28,29
 241 221 241 221 258 235 c 1,30,31
 260 239 260 239 263 269 c 128,-1,32
 266 299 266 299 266 308 c 256,33,34
 266 317 266 317 258 320 c 128,-1,35
 250 323 250 323 237.5 331 c 128,-1,36
 225 339 225 339 225 350 c 259,37,38
 225 361 225 361 241.5 371 c 128,-1,39
 258 381 258 381 285 389 c 128,-1,40
 312 397 312 397 319 397 c 259,41,42
 325 397 325 397 325 387 c 259,43,44
 325 382 325 382 321.5 367.5 c 128,-1,45
 318 353 318 353 315.5 326.5 c 128,-1,46
 313 300 313 300 312.5 296.5 c 128,-1,47
 312 293 312 293 310 199 c 128,-1,48
 308 105 308 105 308 83 c 131,-1,49
 308 61 308 61 315 46 c 1,50,51
 325 46 325 46 351 41 c 128,-1,52
 377 36 377 36 377 26 c 0,53,54
 377 15 377 15 363.5 8.5 c 128,-1,55
 350 2 350 2 342 2 c 3,56,57
 338 2 338 2 333.5 4 c 128,-1,58
 329 6 329 6 324 6 c 3,59,60
 320 6 320 6 315 3.5 c 128,-1,61
 310 1 310 1 288 -0.5 c 128,-1,62
 266 -2 266 -2 255.5 -5 c 128,-1,63
 245 -8 245 -8 242.5 -8 c 128,-1,64
 240 -8 240 -8 237 -5 c 128,-1,65
 234 -2 234 -2 234 2 c 259,66,67
 234 6 234 6 243.5 16 c 128,-1,68
 253 26 253 26 262 36 c 1,69,-1
 261 62 l 2,70,71
 260 89 260 89 259 123 c 2,72,-1
 258 168 l 1,73,74
 240 178 240 178 221 180 c 128,-1,75
 202 182 202 182 166 182 c 259,76,77
 130 182 130 182 118.5 176 c 128,-1,78
 107 170 107 170 105.5 148.5 c 128,-1,79
 104 127 104 127 104 106 c 128,-1,80
 104 85 104 85 104 77 c 3,81,82
 104 58 104 58 108 45 c 257,83,84
 113 43 113 43 122 40 c 128,-1,85
 131 37 131 37 151 35.5 c 128,-1,86
 171 34 171 34 171 23 c 0,87,88
 171 9 171 9 148 2.5 c 128,-1,89
 125 -4 125 -4 109 -4 c 259,90,91
 104 -4 104 -4 93 -2 c 128,-1,92
 82 0 82 0 76 0 c 259,93,94
 71 0 71 0 54 -3.5 c 128,-1,95
 37 -7 37 -7 29 -7 c 259,96,97
 6 -7 6 -7 6 3 c 0,0,1
EndSplineSet
Validated: 3073
Layer: 2
Comment: "Original image not high enough resolution."
EndChar

StartChar: i.sc
Encoding: 65550 -1 62
GlifName: i.sc
Width: 202
VWidth: 0
Flags: MW
AnchorPoint: "std above anchor" 96 483 basechar 0
AnchorPoint: "std below anchor" 82 -49 basechar 0
AnchorPoint: "us anchor" 100 483 basechar 0
LayerCount: 3
Back
Fore
SplineSet
7 339 m 3,0,1
 7 346 7 346 23.5 361 c 128,-1,2
 40 376 40 376 66.5 391 c 128,-1,3
 93 406 93 406 110 406 c 3,4,5
 120 406 120 406 120 389 c 259,6,7
 120 372 120 372 114.5 317 c 128,-1,8
 109 262 109 262 109 171 c 256,9,10
 109 91 109 91 109.5 78 c 128,-1,11
 110 65 110 65 134.5 55 c 128,-1,12
 159 45 159 45 175 45 c 128,-1,13
 191 45 191 45 191 36 c 259,14,15
 191 22 191 22 163 11 c 128,-1,16
 135 0 135 0 81 0 c 259,17,18
 27 0 27 0 20.5 8.5 c 128,-1,19
 14 17 14 17 14 24 c 259,20,21
 14 31 14 31 30.5 48 c 128,-1,22
 47 65 47 65 51 86.5 c 128,-1,23
 55 108 55 108 55 142 c 259,24,25
 55 183 55 183 55 291 c 1,26,27
 39 301 39 301 23 314 c 128,-1,28
 7 327 7 327 7 339 c 3,0,1
EndSplineSet
Validated: 3073
Layer: 2
EndChar

StartChar: j.sc
Encoding: 65551 -1 63
GlifName: j.sc
Width: 166
VWidth: 0
Flags: MW
AnchorPoint: "std above anchor" 100 483 basechar 0
AnchorPoint: "us anchor" 104 483 basechar 0
LayerCount: 3
Back
Fore
SplineSet
-130 -87 m 259,0,1
 -130 -80 -130 -80 -113 -62 c 128,-1,2
 -96 -44 -96 -44 -81 -44 c 3,3,4
 -60 -44 -60 -44 -50.5 -83 c 144,-1,5
 -41 -122 -41 -122 -18 -122 c 3,6,7
 9 -122 9 -122 28.5 -92.5 c 128,-1,8
 48 -63 48 -63 51.5 -24 c 128,-1,9
 55 15 55 15 55 71.5 c 131,-1,10
 55 128 55 128 55 192 c 152,-1,11
 55 256 55 256 55 291 c 1,12,13
 39 301 39 301 23 314.5 c 128,-1,14
 7 328 7 328 7 339 c 0,15,16
 7 346 7 346 23.5 361 c 128,-1,17
 40 376 40 376 66.5 391 c 128,-1,18
 93 406 93 406 110 406 c 3,19,20
 120 406 120 406 120 389 c 259,21,22
 120 382 120 382 116 335 c 0,23,24
 109 250 109 250 109 178 c 128,-1,25
 109 106 109 106 108.5 63.5 c 128,-1,26
 108 21 108 21 93 -29 c 128,-1,27
 78 -79 78 -79 43.5 -112 c 136,-1,28
 9 -145 9 -145 -54 -145 c 259,29,30
 -89 -145 -89 -145 -109.5 -134 c 136,-1,31
 -130 -123 -130 -123 -130 -87 c 259,0,1
EndSplineSet
Validated: 3073
Layer: 2
EndChar

StartChar: k.sc
Encoding: 65552 -1 64
GlifName: k.sc
Width: 443
VWidth: 0
Flags: MW
AnchorPoint: "std above anchor" 122 531 basechar 0
AnchorPoint: "std below anchor" 180 -49 basechar 0
AnchorPoint: "us anchor" 245 483 basechar 0
LayerCount: 3
Back
Fore
SplineSet
-8 434 m 259,0,1
 -8 439 -8 439 7.5 453.5 c 128,-1,2
 23 468 23 468 51.5 474.5 c 128,-1,3
 80 481 80 481 104.5 498 c 128,-1,4
 129 515 129 515 141 515 c 259,5,6
 151 515 151 515 151 494 c 259,7,8
 151 474 151 474 145.5 430 c 128,-1,9
 140 386 140 386 137 367 c 128,-1,10
 134 348 134 348 128.5 292.5 c 152,-1,11
 123 237 123 237 123 206 c 3,12,13
 123 185 123 185 138 181.5 c 128,-1,14
 153 178 153 178 162 176.5 c 128,-1,15
 171 175 171 175 195 168 c 128,-1,16
 219 161 219 161 239.5 152.5 c 128,-1,17
 260 144 260 144 279 134 c 1,18,19
 292 146 292 146 301 161.5 c 128,-1,20
 310 177 310 177 310 187 c 3,21,22
 310 195 310 195 292 211 c 128,-1,23
 274 227 274 227 274 229 c 3,24,25
 274 233 274 233 277 241.5 c 128,-1,26
 280 250 280 250 284 259 c 128,-1,27
 288 268 288 268 291 272.5 c 128,-1,28
 294 277 294 277 303 279 c 128,-1,29
 312 281 312 281 325.5 283.5 c 128,-1,30
 339 286 339 286 363 286 c 259,31,32
 388 286 388 286 388 273 c 259,33,34
 388 260 388 260 379 237.5 c 128,-1,35
 370 215 370 215 364 204 c 128,-1,36
 358 193 358 193 351.5 182 c 128,-1,37
 345 171 345 171 325 151 c 128,-1,38
 305 131 305 131 303 119 c 1,39,40
 312 112 312 112 328 98.5 c 128,-1,41
 344 85 344 85 354 78.5 c 128,-1,42
 364 72 364 72 382.5 62 c 128,-1,43
 401 52 401 52 412.5 47 c 128,-1,44
 424 42 424 42 435 41.5 c 128,-1,45
 446 41 446 41 450 41 c 280,46,-1
 474 43 l 1,47,48
 474 31 474 31 463.5 26 c 128,-1,49
 453 21 453 21 425 14 c 128,-1,50
 397 7 397 7 376 7 c 256,51,52
 362 7 362 7 335 20 c 144,-1,53
 308 33 308 33 288.5 48 c 128,-1,54
 269 63 269 63 246 78.5 c 136,-1,55
 223 94 223 94 205 105 c 128,-1,56
 187 116 187 116 171.5 122 c 128,-1,57
 156 128 156 128 148 128 c 3,58,59
 143 128 143 128 137 124.5 c 128,-1,60
 131 121 131 121 128 110 c 128,-1,61
 125 99 125 99 124.5 82.5 c 128,-1,62
 124 66 124 66 124 57 c 259,63,64
 124 48 124 48 135 43.5 c 128,-1,65
 146 39 146 39 153.5 33 c 128,-1,66
 161 27 161 27 164.5 24.5 c 128,-1,67
 168 22 168 22 168 19 c 259,68,69
 168 17 168 17 166 12 c 128,-1,70
 164 7 164 7 157 5 c 128,-1,71
 150 3 150 3 135.5 -2 c 128,-1,72
 121 -7 121 -7 112 -7 c 259,73,74
 101 -7 101 -7 84 -4 c 128,-1,75
 67 -1 67 -1 50 3 c 128,-1,76
 33 7 33 7 33 15 c 259,77,78
 33 25 33 25 44.5 36.5 c 128,-1,79
 56 48 56 48 64 50.5 c 128,-1,80
 72 53 72 53 72 74 c 259,81,82
 72 86 72 86 71.5 99.5 c 128,-1,83
 71 113 71 113 71 126 c 3,84,85
 71 157 71 157 73 189.5 c 128,-1,86
 75 222 75 222 75.5 277.5 c 128,-1,87
 76 333 76 333 76 359.5 c 128,-1,88
 76 386 76 386 60 402 c 128,-1,89
 44 418 44 418 18 419 c 128,-1,90
 -8 420 -8 420 -8 434 c 259,0,1
EndSplineSet
Validated: 3073
Layer: 2
EndChar

StartChar: l.sc
Encoding: 65553 -1 65
GlifName: l.sc
Width: 297
VWidth: 0
Flags: MW
AnchorPoint: "std above anchor" 111 609 basechar 0
AnchorPoint: "std below anchor" 117 -49 basechar 0
AnchorPoint: "us anchor" 199 483 basechar 0
LayerCount: 3
Back
Fore
SplineSet
-66 458 m 259,0,1
 -66 465 -66 465 -30.5 492.5 c 128,-1,2
 5 520 5 520 20 525.5 c 128,-1,3
 35 531 35 531 52.5 535.5 c 128,-1,4
 70 540 70 540 81.5 550.5 c 128,-1,5
 93 561 93 561 117.5 573.5 c 128,-1,6
 142 586 142 586 146 586 c 259,7,8
 151 586 151 586 151 569 c 128,-1,9
 151 552 151 552 142.5 546.5 c 128,-1,10
 134 541 134 541 127 479.5 c 128,-1,11
 120 418 120 418 120 250.5 c 128,-1,12
 120 83 120 83 125 63 c 257,13,14
 138 55 138 55 151 50 c 128,-1,15
 164 45 164 45 186 45 c 259,16,17
 208 45 208 45 229 51.5 c 128,-1,18
 250 58 250 58 261 65.5 c 128,-1,19
 272 73 272 73 283.5 83.5 c 128,-1,20
 295 94 295 94 304 99 c 0,21,22
 309 101 309 101 312 102 c 259,23,24
 316 102 316 102 315 96 c 259,25,26
 315 84 315 84 285 52.5 c 128,-1,27
 255 21 255 21 218.5 10.5 c 128,-1,28
 182 0 182 0 124 0 c 256,29,30
 75 0 75 0 46 2.5 c 128,-1,31
 17 5 17 5 17 17 c 256,32,33
 17 29 17 29 32.5 39.5 c 128,-1,34
 48 50 48 50 58 55 c 1,35,36
 61 76 61 76 61.5 125.5 c 128,-1,37
 62 175 62 175 62 229 c 259,38,39
 62 283 62 283 59 336.5 c 128,-1,40
 56 390 56 390 46 435.5 c 128,-1,41
 36 481 36 481 14 481 c 128,-1,42
 -8 481 -8 481 -23.5 466 c 128,-1,43
 -39 451 -39 451 -52 451 c 259,44,45
 -66 451 -66 451 -66 458 c 259,0,1
EndSplineSet
Validated: 3073
Layer: 2
AlternateSubs2: "'salt' Stylistic Alternatives in Latin lookup 26-1" l.sc2
Substitution2: "Single Substitution no tag-1" l.sc2
EndChar

StartChar: m.sc
Encoding: 65554 -1 66
GlifName: m.sc
Width: 600
VWidth: 0
Flags: MW
AnchorPoint: "std above anchor" 278 483 basechar 0
AnchorPoint: "std below anchor" 270 -49 basechar 0
AnchorPoint: "us anchor" 419 483 basechar 0
LayerCount: 3
Back
Fore
SplineSet
-8 7 m 256,0,1
 -8 10 -8 10 27.5 31.5 c 152,-1,2
 63 53 63 53 75 62.5 c 128,-1,3
 87 72 87 72 104.5 107 c 152,-1,4
 122 142 122 142 129.5 170.5 c 144,-1,5
 137 199 137 199 141 245 c 152,-1,6
 145 291 145 291 145 295 c 267,7,8
 145 304 145 304 130.5 312.5 c 152,-1,9
 116 321 116 321 116 327 c 0,10,11
 116 340 116 340 152 366.5 c 152,-1,12
 188 393 188 393 202 393 c 259,13,14
 215 393 215 393 221.5 390 c 152,-1,15
 228 387 228 387 228 382 c 259,16,17
 228 373 228 373 222 363 c 128,-1,18
 216 353 216 353 206.5 331.5 c 152,-1,19
 197 310 197 310 197 296 c 259,20,21
 197 280 197 280 203 257.5 c 152,-1,22
 209 235 209 235 221 204 c 152,-1,23
 233 173 233 173 245 151.5 c 128,-1,24
 257 130 257 130 274.5 107.5 c 144,-1,25
 292 85 292 85 294 85 c 0,26,27
 301 85 301 85 314 102 c 144,-1,28
 327 119 327 119 335 136 c 152,-1,29
 343 153 343 153 347.5 173 c 152,-1,30
 352 193 352 193 353 216.5 c 136,-1,31
 354 240 354 240 354 266 c 259,32,33
 354 292 354 292 345.5 304.5 c 152,-1,34
 337 317 337 317 318 321.5 c 136,-1,35
 299 326 299 326 299 333 c 3,36,37
 299 340 299 340 308.5 347 c 152,-1,38
 318 354 318 354 340 365 c 152,-1,39
 362 376 362 376 375.5 386 c 136,-1,40
 389 396 389 396 399 396 c 0,41,42
 418 396 418 396 418 387 c 128,-1,43
 418 378 418 378 410.5 355.5 c 144,-1,44
 403 333 403 333 403 306 c 256,45,46
 403 280 403 280 412.5 252.5 c 152,-1,47
 422 225 422 225 446.5 177.5 c 152,-1,48
 471 130 471 130 488.5 104.5 c 152,-1,49
 506 79 506 79 523 67.5 c 152,-1,50
 540 56 540 56 559.5 54.5 c 128,-1,51
 579 53 579 53 584 53 c 259,52,53
 605 53 605 53 609.5 54.5 c 128,-1,54
 614 56 614 56 618 56 c 259,55,56
 624 56 624 56 624 54 c 259,57,58
 624 48 624 48 606 33.5 c 128,-1,59
 588 19 588 19 565.5 9.5 c 152,-1,60
 543 0 543 0 528 0 c 267,61,62
 501 0 501 0 481.5 9.5 c 152,-1,63
 462 19 462 19 443.5 42 c 136,-1,64
 425 65 425 65 413 85.5 c 136,-1,65
 401 106 401 106 395.5 116 c 128,-1,66
 390 126 390 126 380 126 c 256,67,68
 363 126 363 126 352.5 107 c 144,-1,69
 342 88 342 88 327.5 63.5 c 136,-1,70
 313 39 313 39 299.5 17.5 c 128,-1,71
 286 -4 286 -4 278.5 -12.5 c 128,-1,72
 271 -21 271 -21 267 -21 c 259,73,74
 260 -21 260 -21 260 -13 c 259,75,76
 260 -8 260 -8 262.5 1.5 c 136,-1,77
 265 11 265 11 268 18 c 9,78,79
 266 20 266 20 245.5 47 c 152,-1,80
 225 74 225 74 218.5 83.5 c 152,-1,81
 212 93 212 93 190 130.5 c 152,-1,82
 168 168 168 168 166 170.5 c 152,-1,83
 164 173 164 173 160 173 c 256,84,85
 153 173 153 173 142.5 145.5 c 128,-1,86
 132 118 132 118 120.5 98 c 144,-1,87
 109 78 109 78 109 72 c 0,88,89
 109 59 109 59 113 52.5 c 152,-1,90
 117 46 117 46 131.5 36 c 128,-1,91
 146 26 146 26 161 18 c 144,-1,92
 176 10 176 10 176 6 c 256,93,94
 176 -2 176 -2 159 -11.5 c 152,-1,95
 142 -21 142 -21 123 -21 c 256,96,97
 104 -21 104 -21 89.5 -7.5 c 152,-1,98
 75 6 75 6 58 6 c 256,99,100
 42 6 42 6 29.5 1.5 c 152,-1,101
 17 -3 17 -3 5 -3 c 256,102,103
 -8 -4 -8 -4 -8 7 c 256,0,1
EndSplineSet
Validated: 3073
Layer: 2
EndChar

StartChar: n.sc
Encoding: 65555 -1 67
GlifName: n.sc
Width: 414
VWidth: 0
Flags: MW
AnchorPoint: "std above anchor" 194 483 basechar 0
AnchorPoint: "std below anchor" 151 -49 basechar 0
AnchorPoint: "us anchor" 311 483 basechar 0
LayerCount: 3
Back
Fore
SplineSet
7 14 m 259,0,1
 7 19 7 19 11.5 26.5 c 128,-1,2
 16 34 16 34 25.5 42.5 c 128,-1,3
 35 51 35 51 46 58.5 c 128,-1,4
 57 66 57 66 57 173 c 259,5,6
 57 281 57 281 45.5 285 c 128,-1,7
 34 289 34 289 26 302 c 128,-1,8
 18 315 18 315 18 322 c 259,9,10
 18 327 18 327 22 334 c 128,-1,11
 26 341 26 341 62.5 367 c 128,-1,12
 99 393 99 393 107 393 c 259,13,14
 113 393 113 393 113 381 c 259,15,16
 113 363 113 363 106 331.5 c 152,-1,17
 99 300 99 300 99 290 c 259,18,19
 99 278 99 278 114.5 270 c 128,-1,20
 130 262 130 262 141.5 252.5 c 128,-1,21
 153 243 153 243 165 233.5 c 128,-1,22
 177 224 177 224 214 203 c 128,-1,23
 251 182 251 182 273 182 c 259,24,25
 303 182 303 182 303 191 c 259,26,27
 303 195 303 195 299.5 204 c 128,-1,28
 296 213 296 213 296 244 c 3,29,30
 296 252 296 252 296.5 266 c 128,-1,31
 297 280 297 280 297 292 c 0,32,33
 297 308 297 308 295.5 312 c 128,-1,34
 294 316 294 316 275.5 327.5 c 128,-1,35
 257 339 257 339 257 349 c 0,36,37
 257 368 257 368 286 383.5 c 128,-1,38
 315 399 315 399 334 399 c 259,39,40
 339 399 339 399 342.5 394 c 128,-1,41
 346 389 346 389 346.5 360.5 c 128,-1,42
 347 332 347 332 347 290 c 259,43,44
 347 269 347 269 347 217 c 128,-1,45
 347 165 347 165 351.5 124 c 128,-1,46
 356 83 356 83 356 61 c 259,47,48
 356 40 356 40 351.5 25 c 128,-1,49
 347 10 347 10 340 -26 c 128,-1,50
 333 -62 333 -62 320 -62 c 259,51,52
 308 -62 308 -62 308 -22 c 259,53,54
 308 13 308 13 308 33.5 c 128,-1,55
 308 54 308 54 308 62 c 3,56,57
 308 73 308 73 304 84 c 128,-1,58
 300 95 300 95 286 97.5 c 128,-1,59
 272 100 272 100 250.5 102.5 c 128,-1,60
 229 105 229 105 206.5 114.5 c 128,-1,61
 184 124 184 124 151 145.5 c 128,-1,62
 118 167 118 167 107 167 c 259,63,64
 97 167 97 167 97 115 c 259,65,66
 97 64 97 64 105 57.5 c 128,-1,67
 113 51 113 51 136 46 c 128,-1,68
 159 41 159 41 159 36 c 259,69,70
 159 19 159 19 138 12 c 0,71,72
 120 5 120 5 91 2.5 c 128,-1,73
 62 0 62 0 51 -0 c 259,74,75
 32 0 32 0 19.5 4.5 c 128,-1,76
 7 9 7 9 7 14 c 259,0,1
EndSplineSet
Validated: 3073
Layer: 2
EndChar

StartChar: o.sc
Encoding: 65556 -1 68
GlifName: o.sc
Width: 376
VWidth: 0
Flags: MW
AnchorPoint: "std above anchor" 217 483 basechar 0
AnchorPoint: "std below anchor" 185 -49 basechar 0
AnchorPoint: "us anchor" 296 483 basechar 0
LayerCount: 3
Back
Fore
SplineSet
31 136 m 256,0,1
 31 150 31 150 32 162.5 c 128,-1,2
 33 175 33 175 47.5 225 c 128,-1,3
 62 275 62 275 79 303 c 128,-1,4
 96 331 96 331 131 354.5 c 128,-1,5
 166 378 166 378 185 388 c 128,-1,6
 204 398 204 398 223 398 c 256,7,8
 240 398 240 398 253.5 389 c 128,-1,9
 267 380 267 380 288.5 357.5 c 128,-1,10
 310 335 310 335 324.5 312 c 128,-1,11
 339 289 339 289 350.5 254.5 c 128,-1,12
 362 220 362 220 362 195 c 256,13,14
 362 170 362 170 353.5 138.5 c 128,-1,15
 345 107 345 107 309.5 57.5 c 128,-1,16
 274 8 274 8 250 -1.5 c 128,-1,17
 226 -11 226 -11 186 -11 c 256,18,19
 146 -11 146 -11 119 -5.5 c 128,-1,20
 92 -0 92 -0 63.5 33.5 c 128,-1,21
 35 67 35 67 33 94.5 c 128,-1,22
 31 122 31 122 31 136 c 256,0,1
96 195 m 256,23,24
 96 144 96 144 108.5 117 c 128,-1,25
 121 90 121 90 139 70.5 c 128,-1,26
 157 51 157 51 187.5 45 c 128,-1,27
 218 39 218 39 240 39 c 256,28,29
 275 39 275 39 285 71.5 c 128,-1,30
 295 104 295 104 295 121 c 256,31,32
 295 138 295 138 290 168.5 c 128,-1,33
 285 199 285 199 268 234.5 c 128,-1,34
 251 270 251 270 227 305 c 128,-1,35
 203 340 203 340 174 340 c 256,36,37
 153 340 153 340 124.5 304.5 c 128,-1,38
 96 269 96 269 96 195 c 256,23,24
EndSplineSet
Validated: 3073
Layer: 2
EndChar

StartChar: p.sc
Encoding: 65557 -1 69
GlifName: p.sc
Width: 361
VWidth: 0
Flags: MW
AnchorPoint: "std above anchor" 173 483 basechar 0
AnchorPoint: "std below anchor" 218 -49 basechar 0
AnchorPoint: "us anchor" 281 483 basechar 0
LayerCount: 3
Back
Fore
SplineSet
-17 -219 m 0,0,1
 -17 -208 -17 -208 5.5 -192 c 128,-1,2
 28 -176 28 -176 41 -167 c 1,3,4
 48 -154 48 -154 49 -141.5 c 128,-1,5
 50 -129 50 -129 53.5 32.5 c 128,-1,6
 57 194 57 194 59 306 c 1,7,8
 48 313 48 313 26.5 328 c 128,-1,9
 5 343 5 343 5 353 c 256,10,11
 5 359 5 359 63.5 377.5 c 128,-1,12
 122 396 122 396 181 396 c 256,13,14
 241 396 241 396 263 381 c 128,-1,15
 285 366 285 366 311 328 c 128,-1,16
 337 290 337 290 337 251 c 256,17,18
 337 212 337 212 320 162 c 128,-1,19
 303 112 303 112 253.5 76 c 128,-1,20
 204 40 204 40 160 40 c 0,21,22
 143 40 143 40 106 44 c 1,23,-1
 102 -166 l 1,24,25
 116 -172 116 -172 138.5 -179 c 128,-1,26
 161 -186 161 -186 161 -190 c 256,27,28
 161 -195 161 -195 147.5 -209.5 c 128,-1,29
 134 -224 134 -224 92.5 -225.5 c 128,-1,30
 51 -227 51 -227 23 -227 c 256,31,32
 -17 -227 -17 -227 -17 -219 c 0,0,1
104 114.5 m 128,-1,34
 104 92 104 92 108.5 87.5 c 128,-1,35
 113 83 113 83 158 83 c 0,36,37
 200 83 200 83 235.5 103 c 128,-1,38
 271 123 271 123 271 187 c 256,39,40
 271 243 271 243 258 272.5 c 128,-1,41
 245 302 245 302 220.5 324 c 128,-1,42
 196 346 196 346 157 346 c 0,43,44
 128 346 128 346 118 319.5 c 128,-1,45
 108 293 108 293 106 215 c 128,-1,33
 104 137 104 137 104 114.5 c 128,-1,34
EndSplineSet
Validated: 3073
Layer: 2
EndChar

StartChar: q.sc
Encoding: 65558 -1 70
GlifName: q.sc
Width: 317
VWidth: 0
Flags: MW
AnchorPoint: "std above anchor" 157 483 basechar 0
AnchorPoint: "std below anchor" 56 -49 basechar 0
AnchorPoint: "us anchor" 265 483 basechar 0
LayerCount: 3
Back
Fore
SplineSet
18 125 m 0,0,1
 18 146 18 146 22 188 c 128,-1,2
 26 230 26 230 35 251 c 128,-1,3
 44 272 44 272 57.5 292.5 c 128,-1,4
 71 313 71 313 93 338 c 128,-1,5
 115 363 115 363 137.5 380.5 c 144,-1,6
 160 398 160 398 169 398 c 0,7,8
 193 398 193 398 231.5 351.5 c 128,-1,9
 270 305 270 305 278.5 280 c 128,-1,10
 287 255 287 255 290 231 c 128,-1,11
 293 207 293 207 293 199 c 256,12,13
 293 178 293 178 279 133.5 c 128,-1,14
 265 89 265 89 238.5 61 c 128,-1,15
 212 33 212 33 212 22 c 1,16,17
 224 -8 224 -8 241 -43.5 c 128,-1,18
 258 -79 258 -79 275 -110.5 c 128,-1,19
 292 -142 292 -142 317.5 -179.5 c 128,-1,20
 343 -217 343 -217 389 -217 c 0,21,22
 406 -217 406 -217 406 -232 c 0,23,24
 406 -242 406 -242 388.5 -255 c 128,-1,25
 371 -268 371 -268 345 -268 c 0,26,27
 297 -268 297 -268 260 -209 c 128,-1,28
 223 -150 223 -150 206 -114 c 128,-1,29
 189 -78 189 -78 183.5 -65.5 c 128,-1,30
 178 -53 178 -53 174.5 -42 c 128,-1,31
 171 -31 171 -31 156.5 -17 c 128,-1,32
 142 -3 142 -3 120 1 c 0,33,34
 87 7 87 7 66.5 21 c 128,-1,35
 46 35 46 35 32 60.5 c 128,-1,36
 18 86 18 86 18 125 c 0,0,1
75 215 m 256,37,38
 75 189 75 189 78.5 163.5 c 128,-1,39
 82 138 82 138 94 113.5 c 128,-1,40
 106 89 106 89 125.5 75.5 c 128,-1,41
 145 62 145 62 165 62 c 256,42,43
 185 62 185 62 194.5 69 c 128,-1,44
 204 76 204 76 212 90 c 128,-1,45
 220 104 220 104 223.5 122 c 128,-1,46
 227 140 227 140 227 159 c 256,47,48
 227 187 227 187 220 210 c 128,-1,49
 213 233 213 233 204 250.5 c 128,-1,50
 195 268 195 268 180 290.5 c 128,-1,51
 165 313 165 313 138 313 c 256,52,53
 120 313 120 313 101.5 290.5 c 128,-1,54
 83 268 83 268 79 248.5 c 128,-1,55
 75 229 75 229 75 215 c 256,37,38
EndSplineSet
Validated: 3073
Layer: 2
EndChar

StartChar: r.sc
Encoding: 65559 -1 71
GlifName: r.sc
Width: 412
VWidth: 0
Flags: MW
AnchorPoint: "std above anchor" 144 483 basechar 0
AnchorPoint: "std below anchor" 163 -49 basechar 0
AnchorPoint: "us anchor" 255 483 basechar 0
LayerCount: 3
Back
Fore
SplineSet
7 330 m 0,0,1
 7 346 7 346 48.5 369.5 c 152,-1,2
 90 393 90 393 120 393 c 0,3,4
 127 393 127 393 134 388.5 c 152,-1,5
 141 384 141 384 143 380 c 1,6,7
 151 384 151 384 166 392.5 c 152,-1,8
 181 401 181 401 188 401 c 0,9,10
 200 401 200 401 220 389 c 152,-1,11
 240 377 240 377 249.5 364 c 144,-1,12
 259 351 259 351 265 330 c 128,-1,13
 271 309 271 309 271 296 c 0,14,15
 271 281 271 281 267 268.5 c 128,-1,16
 263 256 263 256 246 241 c 152,-1,17
 229 226 229 226 218.5 217.5 c 136,-1,18
 208 209 208 209 208 204 c 3,19,20
 208 200 208 200 218.5 192 c 136,-1,21
 229 184 229 184 241 171 c 128,-1,22
 253 158 253 158 272.5 132.5 c 152,-1,23
 292 107 292 107 309 85.5 c 152,-1,24
 326 64 326 64 343.5 61 c 128,-1,25
 361 58 361 58 374 58 c 3,26,27
 394 58 394 58 412.5 65 c 152,-1,28
 431 72 431 72 434 72 c 259,29,30
 438 72 438 72 438 67 c 259,31,32
 438 63 438 63 434 58 c 136,-1,33
 430 53 430 53 411.5 40.5 c 136,-1,34
 393 28 393 28 376.5 20 c 136,-1,35
 360 12 360 12 345.5 8.5 c 152,-1,36
 331 5 331 5 312 5 c 0,37,38
 301 5 301 5 286 18.5 c 152,-1,39
 271 32 271 32 250 60 c 152,-1,40
 229 88 229 88 209.5 118 c 136,-1,41
 190 148 190 148 184.5 154 c 152,-1,42
 179 160 179 160 169.5 163 c 152,-1,43
 160 166 160 166 145.5 166.5 c 144,-1,44
 131 167 131 167 125 167 c 3,45,46
 117 167 117 167 113.5 166 c 136,-1,47
 110 165 110 165 107.5 155.5 c 152,-1,48
 105 146 105 146 103.5 126.5 c 152,-1,49
 102 107 102 107 102 85.5 c 152,-1,50
 102 64 102 64 103.5 56.5 c 152,-1,51
 105 49 105 49 111.5 43.5 c 152,-1,52
 118 38 118 38 127.5 35.5 c 152,-1,53
 137 33 137 33 154 33 c 259,54,55
 171 33 171 33 178 34 c 128,-1,56
 185 35 185 35 191.5 36.5 c 144,-1,57
 198 38 198 38 200 38 c 259,58,59
 204 38 204 38 204 36 c 259,60,61
 204 35 204 35 201.5 32 c 128,-1,62
 199 29 199 29 187 22 c 152,-1,63
 175 15 175 15 157 8 c 152,-1,64
 139 1 139 1 124.5 -3 c 152,-1,65
 110 -7 110 -7 101 -7 c 0,66,67
 90 -7 90 -7 74 -3.5 c 136,-1,68
 58 0 58 0 47 0 c 0,69,70
 34 0 34 0 26.5 4 c 152,-1,71
 19 8 19 8 19 17 c 0,72,73
 19 20 19 20 30.5 31 c 152,-1,74
 42 42 42 42 45 45.5 c 128,-1,75
 48 49 48 49 54 55 c 9,76,77
 55 101 55 101 56 171.5 c 128,-1,78
 57 242 57 242 59 262.5 c 152,-1,79
 61 283 61 283 61 291 c 9,80,81
 49 294 49 294 28 310 c 128,-1,82
 7 326 7 326 7 330 c 0,0,1
108 250 m 3,83,84
 108 238 108 238 109 224 c 136,-1,85
 110 210 110 210 120 203 c 144,-1,86
 130 196 130 196 143 196 c 259,87,88
 157 196 157 196 174 205 c 128,-1,89
 191 214 191 214 206.5 226.5 c 136,-1,90
 222 239 222 239 222 256 c 267,91,92
 222 273 222 273 211 297.5 c 152,-1,93
 200 322 200 322 181 339 c 152,-1,94
 162 356 162 356 147 356 c 3,95,96
 136 356 136 356 129 350.5 c 128,-1,97
 122 345 122 345 117 336.5 c 136,-1,98
 112 328 112 328 110 297.5 c 144,-1,99
 108 267 108 267 108 250 c 3,83,84
EndSplineSet
Validated: 3073
Layer: 2
EndChar

StartChar: s.sc
Encoding: 65560 -1 72
GlifName: s.sc
Width: 314
VWidth: 0
Flags: MW
AnchorPoint: "std above anchor" 171 502 basechar 0
AnchorPoint: "std below anchor" 105 -49 basechar 0
AnchorPoint: "us anchor" 278 483 basechar 0
LayerCount: 3
Back
Fore
SplineSet
8 8 m 2,0,-1
 8 26 l 2,1,2
 8 53 8 53 23 80.5 c 128,-1,3
 38 108 38 108 52 108 c 259,4,5
 60 108 60 108 60 102 c 259,6,7
 60 99 60 99 57 91.5 c 128,-1,8
 54 84 54 84 54 72.5 c 128,-1,9
 54 61 54 61 74 52 c 128,-1,10
 94 43 94 43 112 43 c 259,11,12
 155 43 155 43 180.5 65 c 128,-1,13
 206 87 206 87 206 98 c 259,14,15
 206 108 206 108 196.5 133.5 c 128,-1,16
 187 159 187 159 166 179 c 128,-1,17
 145 199 145 199 100.5 218.5 c 128,-1,18
 56 238 56 238 37.5 254.5 c 128,-1,19
 19 271 19 271 19 306 c 259,20,21
 19 325 19 325 29 347 c 128,-1,22
 39 369 39 369 50.5 386 c 128,-1,23
 62 403 62 403 87.5 426.5 c 128,-1,24
 113 450 113 450 140 460 c 128,-1,25
 167 470 167 470 175 470 c 259,26,27
 198 470 198 470 212 457 c 128,-1,28
 226 444 226 444 226 430 c 0,29,30
 226 410 226 410 210.5 394.5 c 128,-1,31
 195 379 195 379 188 379 c 0,32,33
 185 379 185 379 178 383.5 c 128,-1,34
 171 388 171 388 151.5 406.5 c 128,-1,35
 132 425 132 425 126 425 c 259,36,37
 122 425 122 425 102.5 405 c 128,-1,38
 83 385 83 385 83 345 c 3,39,40
 83 327 83 327 85 317.5 c 128,-1,41
 87 308 87 308 100 297 c 128,-1,42
 113 286 113 286 162 270.5 c 128,-1,43
 211 255 211 255 242.5 227.5 c 128,-1,44
 274 200 274 200 274 178 c 259,45,46
 274 157 274 157 254.5 101.5 c 128,-1,47
 235 46 235 46 189.5 18.5 c 128,-1,48
 144 -9 144 -9 74 -9 c 2,49,-1
 31 -9 l 2,50,51
 8 -9 8 -9 8 8 c 2,0,-1
EndSplineSet
Validated: 3073
Layer: 2
AlternateSubs2: "'salt' Stylistic Alternatives in Latin lookup 26-1" s.sc2
Substitution2: "Single Substitution no tag-1" s.sc2
EndChar

StartChar: t.sc
Encoding: 65561 -1 73
GlifName: t.sc
Width: 336
VWidth: 0
Flags: MW
AnchorPoint: "std above anchor" 184 483 basechar 0
AnchorPoint: "std below anchor" 179 -49 basechar 0
AnchorPoint: "us anchor" 245 483 basechar 0
LayerCount: 3
Back
Fore
SplineSet
9 331 m 259,0,1
 9 346 9 346 53.5 368.5 c 128,-1,2
 98 391 98 391 117.5 395 c 128,-1,3
 137 399 137 399 155 399 c 259,4,5
 173 399 173 399 203 399 c 128,-1,6
 233 399 233 399 243.5 403 c 128,-1,7
 254 407 254 407 270 410 c 128,-1,8
 286 413 286 413 299.5 418.5 c 128,-1,9
 313 424 313 424 320 424 c 259,10,11
 327 424 327 424 327 420 c 259,12,13
 327 411 327 411 298 386.5 c 128,-1,14
 269 362 269 362 240 345 c 0,15,16
 212 328 212 328 212 307 c 259,17,18
 212 285 212 285 213 234 c 0,19,20
 213 183 213 183 204 143.5 c 128,-1,21
 195 104 195 104 195 96 c 259,22,23
 195 88 195 88 196 81 c 128,-1,24
 197 74 197 74 208 65.5 c 128,-1,25
 219 57 219 57 232.5 53 c 128,-1,26
 246 49 246 49 257.5 48 c 128,-1,27
 269 47 269 47 276.5 43.5 c 128,-1,28
 284 40 284 40 284 36 c 259,29,30
 284 19 284 19 251.5 5 c 128,-1,31
 219 -9 219 -9 179 -9 c 259,32,33
 139 -9 139 -9 112 -4 c 128,-1,34
 85 1 85 1 85 20 c 259,35,36
 85 34 85 34 105 47.5 c 128,-1,37
 125 61 125 61 133 64 c 1,38,39
 140 88 140 88 142 119.5 c 128,-1,40
 144 151 144 151 149.5 160.5 c 128,-1,41
 155 170 155 170 155 190 c 259,42,43
 155 211 155 211 153 251 c 128,-1,44
 151 291 151 291 144 310 c 0,45,46
 137 327 137 327 104 327 c 3,47,48
 89 327 89 327 73 325 c 128,-1,49
 57 323 57 323 40 323 c 259,50,51
 9 324 9 324 9 331 c 259,0,1
EndSplineSet
Validated: 3073
Layer: 2
EndChar

StartChar: u.sc
Encoding: 65562 -1 74
GlifName: u.sc
Width: 423
VWidth: 0
Flags: MW
AnchorPoint: "std above anchor" 214 483 basechar 0
AnchorPoint: "std below anchor" 193 -49 basechar 0
AnchorPoint: "us anchor" 339 483 basechar 0
LayerCount: 3
Back
Fore
SplineSet
-7 339 m 259,0,1
 -7 346 -7 346 11.5 363 c 128,-1,2
 30 380 30 380 53 386.5 c 128,-1,3
 76 393 76 393 131 393 c 259,4,5
 186 393 186 393 186 382 c 259,6,7
 186 376 186 376 165.5 369.5 c 128,-1,8
 145 363 145 363 127 324 c 128,-1,9
 109 285 109 285 109 247 c 259,10,11
 109 209 109 209 129 164.5 c 128,-1,12
 149 120 149 120 183.5 87 c 128,-1,13
 218 54 218 54 248 54 c 259,14,15
 263 54 263 54 269 62 c 128,-1,16
 275 70 275 70 277.5 78.5 c 128,-1,17
 280 87 280 87 284.5 113.5 c 128,-1,18
 289 140 289 140 294 206 c 2,19,-1
 302 293 l 1,20,21
 283 302 283 302 266.5 312.5 c 152,-1,22
 250 323 250 323 242 331.5 c 128,-1,23
 234 340 234 340 234 345 c 3,24,25
 234 360 234 360 274 378 c 128,-1,26
 314 396 314 396 336.5 398.5 c 128,-1,27
 359 401 359 401 374 401 c 259,28,29
 389 401 389 401 389 391 c 259,30,31
 389 381 389 381 379.5 363 c 128,-1,32
 370 345 370 345 361.5 259 c 128,-1,33
 353 173 353 173 327 92.5 c 128,-1,34
 301 12 301 12 267 -29 c 0,35,36
 250 -49 250 -49 244 -49 c 259,37,38
 238 -49 238 -49 235 -46 c 0,39,40
 233 -45 233 -45 233 -41 c 259,41,42
 233 -37 233 -37 236 -29 c 0,43,44
 238 -23 238 -23 237 -19 c 259,45,46
 237 -12 237 -12 233 -9 c 0,47,48
 225 -4 225 -4 190 0.5 c 128,-1,49
 155 5 155 5 122 32.5 c 128,-1,50
 89 60 89 60 71.5 100.5 c 128,-1,51
 54 141 54 141 50 171.5 c 128,-1,52
 46 202 46 202 46 227 c 259,53,54
 46 252 46 252 55 282 c 128,-1,55
 64 312 64 312 64 319 c 259,56,57
 64 322 64 322 62 322 c 259,58,59
 58 322 58 322 45 316 c 128,-1,60
 32 310 32 310 23 310 c 259,61,62
 14 310 14 310 3.5 321 c 128,-1,63
 -7 332 -7 332 -7 339 c 259,0,1
EndSplineSet
Validated: 3073
Layer: 2
EndChar

StartChar: v.sc
Encoding: 65563 -1 75
GlifName: v.sc
Width: 488
VWidth: 0
Flags: MW
AnchorPoint: "std above anchor" 232 483 basechar 0
AnchorPoint: "std below anchor" 229 -49 basechar 0
AnchorPoint: "us anchor" 372 483 basechar 0
LayerCount: 3
Back
Fore
SplineSet
7 322 m 256,0,1
 7 336 7 336 13 345 c 128,-1,2
 19 354 19 354 41.5 377 c 152,-1,3
 64 400 64 400 78 415.5 c 136,-1,4
 92 431 92 431 101 431 c 0,5,6
 114 431 114 431 113 417 c 0,7,8
 113 406 113 406 101 390.5 c 128,-1,9
 89 375 89 375 79.5 359 c 128,-1,10
 70 343 70 343 70 327 c 0,11,12
 70 292 70 292 116 239.5 c 128,-1,13
 162 187 162 187 166 182.5 c 128,-1,14
 170 178 170 178 187.5 162 c 128,-1,15
 205 146 205 146 222.5 123.5 c 128,-1,16
 240 101 240 101 247 101 c 0,17,18
 261 101 261 101 277.5 128 c 128,-1,19
 294 155 294 155 301 179 c 128,-1,20
 308 203 308 203 323.5 238 c 152,-1,21
 339 273 339 273 339 276 c 264,22,23
 339 297 339 297 326 310.5 c 128,-1,24
 313 324 313 324 285 327 c 128,-1,25
 257 330 257 330 252.5 333.5 c 128,-1,26
 248 337 248 337 250 347 c 0,27,28
 251 356 251 356 257 361 c 152,-1,29
 263 366 263 366 287 377.5 c 152,-1,30
 311 389 311 389 318 390.5 c 128,-1,31
 325 392 325 392 357 392 c 256,32,33
 389 392 389 392 426 387 c 128,-1,34
 463 382 463 382 469 376.5 c 128,-1,35
 475 371 475 371 475 364 c 128,-1,36
 475 357 475 357 474 350 c 0,37,38
 474 342 474 342 463 335 c 136,-1,39
 452 328 452 328 434.5 320 c 128,-1,40
 417 312 417 312 411.5 309 c 128,-1,41
 406 306 406 306 400 293 c 24,42,43
 390 272 390 272 382.5 242 c 128,-1,44
 375 212 375 212 357 167.5 c 152,-1,45
 339 123 339 123 315.5 90 c 128,-1,46
 292 57 292 57 271.5 20.5 c 152,-1,47
 251 -16 251 -16 246 -21 c 128,-1,48
 241 -26 241 -26 230 -26 c 256,49,50
 219 -26 219 -26 212.5 -18 c 128,-1,51
 206 -10 206 -10 184 22.5 c 152,-1,52
 162 55 162 55 144.5 77 c 152,-1,53
 127 99 127 99 92.5 149 c 152,-1,54
 58 199 58 199 39 231.5 c 152,-1,55
 20 264 20 264 13.5 286 c 128,-1,56
 7 308 7 308 7 322 c 256,0,1
EndSplineSet
Validated: 3073
Layer: 2
EndChar

StartChar: w.sc
Encoding: 65564 -1 76
GlifName: w.sc
Width: 676
VWidth: 0
Flags: MW
AnchorPoint: "std above anchor" 348 483 basechar 0
AnchorPoint: "std below anchor" 314 -49 basechar 0
AnchorPoint: "us anchor" 538 483 basechar 0
LayerCount: 3
Back
Fore
SplineSet
6 322 m 259,0,1
 6 336 6 336 12 345 c 128,-1,2
 18 354 18 354 40.5 377 c 128,-1,3
 63 400 63 400 77.5 415.5 c 128,-1,4
 92 431 92 431 100 431 c 0,5,6
 113 431 113 431 113 417 c 0,7,8
 113 406 113 406 100.5 390.5 c 128,-1,9
 88 375 88 375 79 359 c 128,-1,10
 70 343 70 343 70 327 c 259,11,12
 70 292 70 292 105.5 250 c 128,-1,13
 141 208 141 208 154.5 193.5 c 144,-1,14
 168 179 168 179 186.5 162.5 c 128,-1,15
 205 146 205 146 222.5 123.5 c 128,-1,16
 240 101 240 101 246 101 c 259,17,18
 254 101 254 101 261 109 c 152,-1,19
 268 117 268 117 268 123 c 259,20,21
 268 133 268 133 242.5 169 c 128,-1,22
 217 205 217 205 200 235 c 128,-1,23
 183 265 183 265 176.5 287 c 128,-1,24
 170 309 170 309 170 322 c 259,25,26
 170 336 170 336 176 345 c 128,-1,27
 182 354 182 354 205 377 c 128,-1,28
 228 400 228 400 242 415.5 c 128,-1,29
 256 431 256 431 264 431 c 0,30,31
 277 431 277 431 277 417 c 0,32,33
 277 406 277 406 264.5 390.5 c 128,-1,34
 252 375 252 375 243 359 c 128,-1,35
 234 343 234 343 234 327 c 259,36,37
 234 306 234 306 245 288 c 128,-1,38
 256 270 256 270 269 252.5 c 152,-1,39
 282 235 282 235 293.5 224 c 152,-1,40
 305 213 305 213 309 213 c 259,41,42
 313 213 313 213 317 223.5 c 152,-1,43
 321 234 321 234 329.5 253.5 c 128,-1,44
 338 273 338 273 338 286 c 256,45,46
 338 299 338 299 331.5 308 c 128,-1,47
 325 317 325 317 305.5 325 c 128,-1,48
 286 333 286 333 286 342 c 3,49,50
 286 353 286 353 294.5 361 c 128,-1,51
 303 369 303 369 322.5 379.5 c 128,-1,52
 342 390 342 390 355 391 c 128,-1,53
 368 392 368 392 375 392 c 256,54,55
 383 392 383 392 406 385 c 128,-1,56
 429 378 429 378 433 374.5 c 128,-1,57
 437 371 437 371 437 364 c 259,58,59
 437 347 437 347 425 334.5 c 128,-1,60
 413 322 413 322 404.5 304 c 128,-1,61
 396 286 396 286 380 237.5 c 128,-1,62
 364 189 364 189 360 178 c 152,-1,63
 356 167 356 167 356 164 c 259,64,65
 356 157 356 157 365.5 147.5 c 152,-1,66
 375 138 375 138 389.5 119.5 c 128,-1,67
 404 101 404 101 410 101 c 0,68,69
 424 101 424 101 441 128 c 128,-1,70
 458 155 458 155 463 172 c 128,-1,71
 468 189 468 189 484.5 231 c 128,-1,72
 501 273 501 273 505.5 286.5 c 128,-1,73
 510 300 510 300 510 307 c 3,74,75
 510 319 510 319 494.5 324.5 c 128,-1,76
 479 330 479 330 475.5 333 c 128,-1,77
 472 336 472 336 472 342 c 3,78,79
 472 354 472 354 479 360 c 128,-1,80
 486 366 486 366 504.5 378 c 128,-1,81
 523 390 523 390 529 391 c 128,-1,82
 535 392 535 392 541 392 c 259,83,84
 573 392 573 392 599.5 387 c 128,-1,85
 626 382 626 382 632 376.5 c 128,-1,86
 638 371 638 371 638 364 c 256,87,88
 638 355 638 355 635 347.5 c 128,-1,89
 632 340 632 340 623.5 334 c 128,-1,90
 615 328 615 328 598 320 c 128,-1,91
 581 312 581 312 575.5 309 c 128,-1,92
 570 306 570 306 562 288.5 c 128,-1,93
 554 271 554 271 546 241.5 c 128,-1,94
 538 212 538 212 520.5 167.5 c 128,-1,95
 503 123 503 123 479.5 90 c 128,-1,96
 456 57 456 57 435.5 20.5 c 128,-1,97
 415 -16 415 -16 410 -21 c 128,-1,98
 405 -26 405 -26 394 -26 c 256,99,100
 383 -26 383 -26 376.5 -18 c 128,-1,101
 370 -10 370 -10 350.5 18.5 c 152,-1,102
 331 47 331 47 321.5 59 c 136,-1,103
 312 71 312 71 307 71 c 259,104,105
 302 71 302 71 292.5 56 c 152,-1,106
 283 41 283 41 266.5 12.5 c 128,-1,107
 250 -16 250 -16 245 -21 c 128,-1,108
 240 -26 240 -26 229 -26 c 256,109,110
 218 -26 218 -26 211.5 -18 c 128,-1,111
 205 -10 205 -10 184.5 21.5 c 128,-1,112
 164 53 164 53 143 79 c 128,-1,113
 122 105 122 105 87 156 c 128,-1,114
 52 207 52 207 35.5 236 c 128,-1,115
 19 265 19 265 12.5 286.5 c 128,-1,116
 6 308 6 308 6 322 c 259,0,1
EndSplineSet
Validated: 3073
Layer: 2
EndChar

StartChar: x.sc
Encoding: 65565 -1 77
GlifName: x.sc
Width: 528
VWidth: 0
Flags: MW
AnchorPoint: "std above anchor" 274 483 basechar 0
AnchorPoint: "std below anchor" 251 -49 basechar 0
AnchorPoint: "us anchor" 403 483 basechar 0
LayerCount: 3
Back
Fore
SplineSet
7 45 m 256,0,1
 7 52 7 52 23.5 66 c 128,-1,2
 40 80 40 80 60.5 98 c 128,-1,3
 81 116 81 116 84 116 c 259,4,5
 87 116 87 116 87 98 c 0,6,7
 87 80 87 80 90.5 67.5 c 128,-1,8
 94 55 94 55 106 55 c 0,9,10
 137 55 137 55 199 146 c 2,11,-1
 217 172 l 26,12,13
 222 182 222 182 222 187 c 259,14,15
 222 193 222 193 213 206 c 26,16,-1
 191 237 l 2,17,18
 135 317 135 317 94 317 c 256,19,20
 82 317 82 317 65.5 310 c 128,-1,21
 49 303 49 303 43 303 c 259,22,23
 37 303 37 303 38 307 c 3,24,25
 38 318 38 318 91.5 357 c 128,-1,26
 145 396 145 396 159 396 c 256,27,28
 173 396 173 396 215 354 c 128,-1,29
 257 312 257 312 265 293 c 128,-1,30
 273 274 273 274 279 274 c 256,31,32
 287 274 287 274 295.5 292.5 c 128,-1,33
 304 311 304 311 337 346.5 c 128,-1,34
 370 382 370 382 388 391.5 c 128,-1,35
 406 401 406 401 417 401 c 256,36,37
 438 401 438 401 451 391 c 128,-1,38
 464 381 464 381 473 364.5 c 128,-1,39
 482 348 482 348 482 338 c 256,40,41
 482 334 482 334 479 326.5 c 128,-1,42
 476 319 476 319 455 296 c 128,-1,43
 434 273 434 273 422 273 c 259,44,45
 410 273 410 273 403 292 c 128,-1,46
 396 311 396 311 383 322.5 c 128,-1,47
 370 334 370 334 359 334 c 259,48,49
 350 334 350 334 324 291 c 2,50,-1
 306 262 l 2,51,52
 300 252 300 252 300 247 c 259,53,54
 300 243 300 243 307 229 c 2,55,-1
 325 198 l 2,56,57
 352 150 352 150 360 138.5 c 128,-1,58
 368 127 368 127 384 106.5 c 128,-1,59
 400 86 400 86 431.5 60 c 128,-1,60
 463 34 463 34 490 34 c 256,61,62
 506 34 506 34 521.5 50 c 128,-1,63
 537 66 537 66 544 70 c 0,64,65
 549 72 549 72 551 72 c 259,66,67
 552 72 552 72 554 71 c 0,68,69
 556 69 556 69 556 65 c 259,70,71
 556 61 556 61 542 45 c 128,-1,72
 528 29 528 29 503 10.5 c 128,-1,73
 478 -8 478 -8 465 -13 c 128,-1,74
 452 -18 452 -18 438 -18 c 256,75,76
 425 -18 425 -18 399 -12 c 128,-1,77
 373 -6 373 -6 340.5 26 c 128,-1,78
 308 58 308 58 277 102.5 c 128,-1,79
 246 147 246 147 232 147 c 0,80,81
 225 147 225 147 218 130.5 c 128,-1,82
 211 114 211 114 146 50.5 c 128,-1,83
 81 -13 81 -13 54 -13 c 0,84,85
 49 -13 49 -13 40.5 -6 c 128,-1,86
 32 1 32 1 19.5 19.5 c 128,-1,87
 7 38 7 38 7 45 c 256,0,1
EndSplineSet
Validated: 3073
Layer: 2
EndChar

StartChar: y.sc
Encoding: 65566 -1 78
GlifName: y.sc
Width: 425
VWidth: 0
Flags: MW
AnchorPoint: "std above anchor" 205 483 basechar 0
AnchorPoint: "std below anchor" 260 -49 basechar 0
AnchorPoint: "us anchor" 328 483 basechar 0
LayerCount: 3
Back
Fore
SplineSet
-76 -87 m 259,0,1
 -76 -80 -76 -80 -59 -62 c 128,-1,2
 -42 -44 -42 -44 -27 -44 c 3,3,4
 -6 -44 -6 -44 13.5 -83 c 144,-1,5
 33 -122 33 -122 56 -122 c 3,6,7
 80 -122 80 -122 113.5 -93 c 128,-1,8
 147 -64 147 -64 157.5 -16 c 128,-1,9
 168 32 168 32 168 77 c 259,10,11
 168 133 168 133 153 180 c 128,-1,12
 138 227 138 227 110.5 267 c 136,-1,13
 83 307 83 307 64 307 c 3,14,15
 55 307 55 307 37 285 c 128,-1,16
 19 263 19 263 15 263 c 275,17,18
 13 263 13 263 13 267 c 3,19,20
 13 273 13 273 20 294 c 136,-1,21
 27 315 27 315 55.5 339.5 c 144,-1,22
 84 364 84 364 103 364 c 259,23,24
 122 364 122 364 151.5 331.5 c 144,-1,25
 181 299 181 299 187 281 c 128,-1,26
 193 263 193 263 203 263 c 3,27,28
 213 263 213 263 227.5 279.5 c 136,-1,29
 242 296 242 296 262 316.5 c 136,-1,30
 282 337 282 337 305.5 349 c 144,-1,31
 329 361 329 361 335 361 c 259,32,33
 357 361 357 361 386.5 333.5 c 152,-1,34
 416 306 416 306 416 281 c 259,35,36
 416 258 416 258 394 249.5 c 144,-1,37
 372 241 372 241 359 241 c 259,38,39
 348 241 348 241 320.5 269.5 c 136,-1,40
 293 298 293 298 287 298 c 3,41,42
 278 298 278 298 269 288 c 128,-1,43
 260 278 260 278 250.5 230.5 c 136,-1,44
 241 183 241 183 234.5 113.5 c 128,-1,45
 228 44 228 44 222 21 c 152,-1,46
 216 -2 216 -2 192 -46.5 c 152,-1,47
 168 -91 168 -91 125.5 -118 c 152,-1,48
 83 -145 83 -145 17 -145 c 259,49,50
 -18 -145 -18 -145 -47 -134 c 136,-1,51
 -76 -123 -76 -123 -76 -87 c 259,0,1
EndSplineSet
Validated: 3073
Layer: 2
Substitution2: "'hist' Medievalize-1" uni1E8F.sc
EndChar

StartChar: z.sc
Encoding: 65567 -1 79
GlifName: z.sc
Width: 444
VWidth: 0
Flags: MW
AnchorPoint: "std above anchor" 234 483 basechar 0
AnchorPoint: "std below anchor" 175 -49 basechar 0
AnchorPoint: "us anchor" 336 483 basechar 0
LayerCount: 3
Back
Fore
SplineSet
9 347 m 259,0,1
 9 350 9 350 23 359 c 0,2,3
 75 392 75 392 113 398 c 152,-1,4
 151 404 151 404 171 404 c 259,5,6
 185 404 185 404 201.5 402.5 c 128,-1,7
 218 401 218 401 251 401 c 128,-1,8
 284 401 284 401 312 401 c 259,9,10
 340 401 340 401 375 409.5 c 152,-1,11
 410 418 410 418 420.5 422.5 c 128,-1,12
 431 427 431 427 437 427 c 0,13,14
 439 427 439 427 439 424 c 0,15,16
 439 413 439 413 432 411 c 0,17,18
 390 396 390 396 366 375 c 128,-1,19
 342 354 342 354 330.5 347.5 c 128,-1,20
 319 341 319 341 311.5 331 c 128,-1,21
 304 321 304 321 282.5 272.5 c 128,-1,22
 261 224 261 224 236.5 175.5 c 152,-1,23
 212 127 212 127 185 93 c 0,24,25
 181 88 181 88 181 84 c 259,26,27
 181 80 181 80 186 77 c 0,28,29
 200 67 200 67 243.5 49.5 c 152,-1,30
 287 32 287 32 325 32 c 3,31,32
 399 32 399 32 416 48 c 0,33,34
 420 52 420 52 422 52 c 259,35,36
 425 52 425 52 425 44 c 259,37,38
 425 32 425 32 415 26 c 0,39,40
 395 11 395 11 359.5 -12.5 c 128,-1,41
 324 -36 324 -36 281 -36 c 3,42,43
 239 -36 239 -36 214 -33 c 128,-1,44
 189 -30 189 -30 158.5 -14 c 128,-1,45
 128 2 128 2 95 2 c 3,46,47
 90 2 90 2 84 1.5 c 128,-1,48
 78 1 78 1 73 1 c 3,49,50
 59 1 59 1 46.5 7 c 128,-1,51
 34 13 34 13 34 19 c 3,52,53
 34 21 34 21 46 24 c 24,54,55
 79 32 79 32 103 52 c 128,-1,56
 127 72 127 72 160.5 123.5 c 144,-1,57
 194 175 194 175 211.5 211.5 c 144,-1,58
 229 248 229 248 239 285 c 16,59,60
 247 311 247 311 248 321 c 3,61,62
 248 325 248 325 247 326 c 0,63,64
 246 327 246 327 242 327 c 3,65,66
 239 327 239 327 234 326 c 0,67,68
 208 319 208 319 196 319 c 259,69,70
 168 319 168 319 116 330 c 152,-1,71
 64 341 64 341 25 341 c 0,72,73
 9 342 9 342 9 347 c 259,0,1
EndSplineSet
Validated: 3073
Layer: 2
EndChar

StartChar: macron
Encoding: 175 175 81
GlifName: macron
Width: 392
Flags: MW
LayerCount: 3
Back
Fore
SplineSet
30 431 m 256,0,1
 30 438 30 438 57.5 451.5 c 128,-1,2
 85 465 85 465 97.5 467.5 c 128,-1,3
 110 470 110 470 118.5 470 c 128,-1,4
 127 470 127 470 142 469 c 128,-1,5
 157 468 157 468 173.5 468 c 128,-1,6
 190 468 190 468 259.5 476.5 c 128,-1,7
 329 485 329 485 343 490.5 c 128,-1,8
 357 496 357 496 358 496 c 128,-1,9
 359 496 359 496 359 494 c 256,10,11
 359 492 359 492 352 485.5 c 128,-1,12
 345 479 345 479 308.5 462.5 c 128,-1,13
 272 446 272 446 256.5 443.5 c 128,-1,14
 241 441 241 441 195.5 428 c 128,-1,15
 150 415 150 415 121.5 415 c 128,-1,16
 93 415 93 415 61.5 419.5 c 128,-1,17
 30 424 30 424 30 431 c 256,0,1
EndSplineSet
Layer: 2
EndChar

StartChar: e_n
Encoding: 65568 -1 82
GlifName: e_n
Width: 646
VWidth: 0
Flags: MW
AnchorPoint: "us ligature anchor" 267 391 baselig 0
AnchorPoint: "ligature below" 151 -24 baselig 0
AnchorPoint: "ligature anchor" 186 391 baselig 0
AnchorPoint: "us ligature anchor" 538 391 baselig 1
AnchorPoint: "ligature below" 442 -24 baselig 1
AnchorPoint: "ligature anchor" 474 391 baselig 1
LayerCount: 3
Back
Fore
SplineSet
13 165 m 256,0,1
 13 189 13 189 13 199 c 128,-1,2
 13 209 13 209 15 219.5 c 128,-1,3
 17 230 17 230 17.5 231.5 c 128,-1,4
 18 233 18 233 23.5 243.5 c 128,-1,5
 29 254 29 254 32 260 c 0,6,7
 43 281 43 281 72.5 309 c 128,-1,8
 102 337 102 337 125 352 c 0,9,10
 152 369 152 369 188 369 c 0,11,12
 202 369 202 369 212 364 c 0,13,14
 225 358 225 358 240 340 c 0,15,16
 258 319 258 319 268 319 c 0,17,18
 276 319 276 319 316 338 c 0,19,20
 354 356 354 356 368 356 c 0,21,22
 383 356 383 356 386 340 c 0,23,24
 391 320 391 320 399 320 c 0,25,26
 410 320 410 320 418 322 c 0,27,28
 438 327 438 327 452 337 c 0,29,30
 486 361 486 361 519 361 c 0,31,32
 529 361 529 361 550 348 c 128,-1,33
 571 335 571 335 575.5 328 c 128,-1,34
 580 321 580 321 586 291.5 c 128,-1,35
 592 262 592 262 592 251 c 0,36,37
 592 226 592 226 583 180 c 128,-1,38
 574 134 574 134 574 95 c 2,39,-1
 574 76 l 2,40,41
 574 56 574 56 578 48 c 128,-1,42
 582 40 582 40 596 40 c 0,43,44
 609 40 609 40 609 31 c 0,45,46
 609 20 609 20 566.5 9 c 128,-1,47
 524 -2 524 -2 504 -2 c 0,48,49
 498 -2 498 -2 498 3 c 3,50,51
 498 6 498 6 500 11 c 8,52,53
 506 29 506 29 522 133 c 0,54,55
 527 162 527 162 527 188 c 0,56,57
 527 252 527 252 517 274 c 0,58,59
 510 290 510 290 491.5 308 c 128,-1,60
 473 326 473 326 457 326 c 0,61,62
 443 326 443 326 418.5 302 c 128,-1,63
 394 278 394 278 389 264 c 128,-1,64
 384 250 384 250 373 178 c 0,65,66
 363 112 363 112 363 82 c 0,67,68
 363 65 363 65 367 58.5 c 128,-1,69
 371 52 371 52 384 46 c 128,-1,70
 397 40 397 40 397 34 c 0,71,72
 397 31 397 31 362 14 c 0,73,74
 329 -2 329 -2 310 -2 c 0,75,76
 296 -2 296 -2 296 19 c 2,77,-1
 296 25 l 2,78,79
 296 43 296 43 286 44 c 0,80,81
 282 44 282 44 258 28 c 0,82,83
 235 12 235 12 196 5 c 0,84,85
 154 -3 154 -3 134 -3 c 0,86,87
 107 -3 107 -3 94.5 1 c 128,-1,88
 82 5 82 5 66 18 c 0,89,90
 45 34 45 34 37 45 c 128,-1,91
 29 56 29 56 21 80 c 0,92,93
 13 106 13 106 13 165 c 256,0,1
79 210 m 0,94,95
 79 187 79 187 86.5 146 c 128,-1,96
 94 105 94 105 102 86 c 0,97,98
 124 30 124 30 197 30 c 0,99,100
 280 30 280 30 309 148 c 0,101,102
 316 175 316 175 316 212 c 0,103,104
 316 220 316 220 316.5 230 c 128,-1,105
 317 240 317 240 317 243 c 0,106,107
 317 257 317 257 303 270 c 0,108,109
 293 280 293 280 286 280 c 0,110,111
 282 280 282 280 272 278 c 0,112,113
 244 272 244 272 182 264 c 0,114,115
 99 253 99 253 82 230 c 0,116,117
 79 225 79 225 79 210 c 0,94,95
99 282 m 0,118,119
 99 272 99 272 114 272 c 0,120,121
 130 272 130 272 155.5 281 c 128,-1,122
 181 290 181 290 183 294 c 0,123,124
 186 298 186 298 186 304 c 0,125,126
 186 314 186 314 175.5 324 c 128,-1,127
 165 334 165 334 156 334 c 0,128,129
 141 334 141 334 126.5 324 c 128,-1,130
 112 314 112 314 106 302 c 0,131,132
 99 286 99 286 99 282 c 0,118,119
EndSplineSet
Validated: 3073
Layer: 2
LCarets2: 1 678
Ligature2: "two-element ligature in Latin" e n
EndChar

StartChar: e_t_u
Encoding: 65569 -1 83
GlifName: e_t_u
Width: 976
VWidth: 0
GlyphClass: 3
Flags: MW
AnchorPoint: "us ligature anchor" 245 391 baselig 0
AnchorPoint: "ligature below" 158 -24 baselig 0
AnchorPoint: "ligature anchor" 195 391 baselig 0
AnchorPoint: "us ligature anchor" 545 391 baselig 1
AnchorPoint: "ligature below" 457 -24 baselig 1
AnchorPoint: "ligature anchor" 494 391 baselig 1
AnchorPoint: "us ligature anchor" 854 391 baselig 2
AnchorPoint: "ligature below" 759 -24 baselig 2
AnchorPoint: "ligature anchor" 771 391 baselig 2
LayerCount: 3
Back
Fore
SplineSet
13 141 m 256,0,1
 13 218 13 218 38 270 c 0,2,3
 52 299 52 299 88.5 330.5 c 128,-1,4
 125 362 125 362 159 374.5 c 128,-1,5
 193 387 193 387 208 387 c 0,6,7
 227 387 227 387 248 371 c 128,-1,8
 269 355 269 355 273 339 c 0,9,10
 278 321 278 321 289 321 c 0,11,12
 297 321 297 321 318 324 c 0,13,14
 348 327 348 327 390 330 c 0,15,16
 409 331 409 331 432.5 336 c 128,-1,17
 456 341 456 341 474 341 c 2,18,-1
 556 341 l 2,19,20
 598 341 598 341 637 348 c 0,21,22
 669 355 669 355 684 355 c 0,23,24
 697 355 697 355 697 351 c 0,25,26
 697 332 697 332 664 240 c 0,27,28
 654 213 654 213 654 151 c 0,29,30
 654 82 654 82 664 62 c 0,31,32
 682 27 682 27 722 27 c 0,33,34
 734 27 734 27 743 31 c 0,35,36
 805 56 805 56 816 74 c 0,37,38
 827 93 827 93 835 173 c 2,39,-1
 842 255 l 1,40,41
 815 277 815 277 790 286 c 0,42,43
 777 291 777 291 777 304 c 0,44,45
 777 316 777 316 816 336 c 0,46,47
 856 356 856 356 887 356 c 0,48,49
 898 356 898 356 904.5 355 c 128,-1,50
 911 354 911 354 915 350.5 c 128,-1,51
 919 347 919 347 919 340 c 0,52,53
 919 329 919 329 918 320.5 c 128,-1,54
 917 312 917 312 915 295 c 0,55,56
 910 264 910 264 904.5 216.5 c 128,-1,57
 899 169 899 169 895 127.5 c 128,-1,58
 891 86 891 86 891 72 c 0,59,60
 891 38 891 38 895 31 c 0,61,62
 902 18 902 18 930 18 c 128,-1,63
 958 18 958 18 958 16 c 128,-1,64
 958 14 958 14 945 5 c 0,65,66
 936 -1 936 -1 905.5 -11 c 128,-1,67
 875 -21 875 -21 862 -21 c 0,68,69
 831 -21 831 -21 826 -15 c 0,70,71
 823 -11 823 -11 822 17 c 128,-1,72
 821 45 821 45 818 45 c 0,73,74
 814 45 814 45 783 26 c 0,75,76
 761 12 761 12 721.5 2 c 128,-1,77
 682 -8 682 -8 650 -8 c 0,78,79
 612 -8 612 -8 598 22 c 0,80,81
 585 50 585 50 581 50 c 128,-1,82
 577 50 577 50 566.5 44 c 128,-1,83
 556 38 556 38 538.5 26.5 c 128,-1,84
 521 15 521 15 479.5 5.5 c 128,-1,85
 438 -4 438 -4 419 -4 c 0,86,87
 354 -4 354 -4 324 38 c 2,88,-1
 310 59 l 1,89,90
 271 29 271 29 229 4 c 0,91,92
 189 -19 189 -19 154 -19 c 0,93,94
 122 -19 122 -19 106 -12.5 c 128,-1,95
 90 -6 90 -6 70 10.5 c 128,-1,96
 50 27 50 27 23 90 c 0,97,98
 13 113 13 113 13 141 c 256,0,1
66 170 m 256,99,100
 66 135 66 135 86 95 c 128,-1,101
 106 55 106 55 130 37 c 128,-1,102
 154 19 154 19 199 19 c 0,103,104
 241 19 241 19 284 63 c 0,105,106
 304 83 304 83 307.5 96 c 128,-1,107
 311 109 311 109 314 150.5 c 128,-1,108
 317 192 317 192 334 230.5 c 128,-1,109
 351 269 351 269 351 270 c 0,110,111
 351 272 351 272 336 272 c 0,112,113
 270 272 270 272 158 254 c 0,114,115
 92 244 92 244 78 235 c 0,116,117
 66 228 66 228 66 170 c 256,99,100
377 160 m 256,118,119
 377 131 377 131 382 102 c 0,120,121
 394 29 394 29 477 29 c 0,122,123
 518 29 518 29 534.5 40.5 c 128,-1,124
 551 52 551 52 567.5 85 c 128,-1,125
 584 118 584 118 588.5 134 c 128,-1,126
 593 150 593 150 598 195 c 128,-1,127
 603 240 603 240 603 253 c 0,128,129
 603 267 603 267 602 269 c 0,130,131
 596 284 596 284 562 292 c 128,-1,132
 528 300 528 300 490 300 c 0,133,134
 424 300 424 300 404 268 c 0,135,136
 394 253 394 253 385.5 218.5 c 128,-1,137
 377 184 377 184 377 160 c 256,118,119
90 285 m 0,138,139
 90 277 90 277 106 277 c 0,140,141
 120 277 120 277 157 281.5 c 128,-1,142
 194 286 194 286 198 290 c 128,-1,143
 202 294 202 294 202 302 c 0,144,145
 202 309 202 309 197 322 c 128,-1,146
 192 335 192 335 178.5 342 c 128,-1,147
 165 349 165 349 152 349 c 0,148,149
 138 349 138 349 120 329 c 0,150,151
 90 299 90 299 90 285 c 0,138,139
EndSplineSet
Validated: 3073
Layer: 2
LCarets2: 2 624 1197
Ligature2: "three-element ligatures in Latin" e t u
EndChar

StartChar: e_a
Encoding: 65570 -1 84
GlifName: e_a
Width: 653
VWidth: 0
Flags: MW
AnchorPoint: "us ligature anchor" 255 391 baselig 0
AnchorPoint: "ligature below" 148 -24 baselig 0
AnchorPoint: "ligature anchor" 196 391 baselig 0
AnchorPoint: "us ligature anchor" 542 391 baselig 1
AnchorPoint: "ligature below" 448 -24 baselig 1
AnchorPoint: "ligature anchor" 482 391 baselig 1
LayerCount: 3
Back
Fore
SplineSet
13 155 m 256,0,1
 13 208 13 208 35 260 c 128,-1,2
 57 312 57 312 89 334 c 0,3,4
 122 357 122 357 174 367 c 0,5,6
 229 378 229 378 234 378 c 0,7,8
 243 378 243 378 257.5 360 c 128,-1,9
 272 342 272 342 274 333 c 0,10,11
 279 310 279 310 340 310 c 0,12,13
 374 310 374 310 387 314 c 0,14,15
 404 319 404 319 438 336 c 128,-1,16
 472 353 472 353 491 353 c 0,17,18
 503 353 503 353 518 338 c 128,-1,19
 533 323 533 323 539 288 c 128,-1,20
 545 253 545 253 551 163 c 0,21,22
 557 74 557 74 570 49 c 0,23,24
 582 26 582 26 621 26 c 0,25,26
 644 26 644 26 653.5 30.5 c 128,-1,27
 663 35 663 35 681 52 c 0,28,29
 701 70 701 70 708 70 c 256,30,31
 712 70 712 70 712 62 c 256,32,33
 712 54 712 54 687 38 c 0,34,35
 609 -13 609 -13 560 -13 c 0,36,37
 506 -13 506 -13 490 26 c 0,38,39
 483 41 483 41 472 45 c 0,40,41
 466 47 466 47 464 47 c 0,42,43
 459 47 459 47 451 39 c 0,44,45
 442 30 442 30 430 24 c 0,46,47
 390 3 390 3 371 3 c 0,48,49
 338 3 338 3 310 33 c 0,50,51
 292 53 292 53 288 53 c 0,52,53
 281 53 281 53 270 48 c 2,54,-1
 189 8 l 2,55,56
 177 3 177 3 150 1 c 0,57,58
 119 1 119 1 84.5 23.5 c 128,-1,59
 50 46 50 46 33 71 c 0,60,61
 13 102 13 102 13 155 c 256,0,1
76 211 m 256,62,63
 76 158 76 158 88 122 c 0,64,65
 99 92 99 92 130.5 66.5 c 128,-1,66
 162 41 162 41 198 41 c 0,67,68
 227 41 227 41 257 56 c 0,69,70
 278 66 278 66 284 71.5 c 128,-1,71
 290 77 290 77 291 89 c 0,72,73
 294 104 294 104 297 113 c 0,74,75
 304 136 304 136 330 147 c 0,76,77
 416 185 416 185 462 198 c 0,78,79
 470 201 470 201 470 209 c 128,-1,80
 470 217 470 217 468 233 c 0,81,82
 460 296 460 296 438 310 c 0,83,84
 428 316 428 316 420 316 c 0,85,86
 407 316 407 316 388 306 c 0,87,88
 360 292 360 292 339.5 287 c 128,-1,89
 319 282 319 282 273 277 c 0,90,91
 225 273 225 273 132 254 c 0,92,93
 96 247 96 247 86 234 c 128,-1,94
 76 221 76 221 76 211 c 256,62,63
354 99 m 0,95,96
 354 84 354 84 357.5 77 c 128,-1,97
 361 70 361 70 375.5 55 c 128,-1,98
 390 40 390 40 407 40 c 0,99,100
 423 40 423 40 441.5 62 c 128,-1,101
 460 84 460 84 467 97 c 128,-1,102
 474 110 474 110 474 155 c 3,103,104
 474 176 474 176 430 176 c 3,105,106
 423 176 423 176 405 165 c 128,-1,107
 387 154 387 154 375.5 147 c 128,-1,108
 364 140 364 140 359 131.5 c 128,-1,109
 354 123 354 123 354 99 c 0,95,96
94 290 m 3,110,111
 94 278 94 278 106 278 c 3,112,113
 120 278 120 278 152 285 c 0,114,115
 184 292 184 292 195 296 c 128,-1,116
 206 300 206 300 206 306 c 3,117,118
 206 324 206 324 190 333.5 c 128,-1,119
 174 343 174 343 167 343 c 0,120,121
 156 343 156 343 130 331 c 0,122,123
 104 320 104 320 100 310 c 0,124,125
 94 300 94 300 94 290 c 3,110,111
EndSplineSet
Validated: 3073
Layer: 2
LCarets2: 1 618
Ligature2: "two-element ligature in Latin" e a
EndChar

StartChar: e_t
Encoding: 65571 -1 85
GlifName: e_t
Width: 589
VWidth: 0
Flags: MW
AnchorPoint: "us ligature anchor" 215 391 baselig 0
AnchorPoint: "ligature below" 146 -24 baselig 0
AnchorPoint: "ligature anchor" 163 391 baselig 0
AnchorPoint: "us ligature anchor" 517 391 baselig 1
AnchorPoint: "ligature below" 430 -24 baselig 1
AnchorPoint: "ligature anchor" 467 391 baselig 1
LayerCount: 3
Back
Fore
SplineSet
11 133 m 259,0,1
 11 213 11 213 29 261.5 c 128,-1,2
 47 310 47 310 96.5 335 c 128,-1,3
 146 360 146 360 184 360 c 256,4,5
 222 360 222 360 229.5 351 c 128,-1,6
 237 342 237 342 245 327 c 2,7,-1
 257 305 l 1,8,-1
 326 310 l 1,9,10
 395 314 395 314 409.5 320 c 128,-1,11
 424 326 424 326 464 326 c 3,12,13
 475 326 475 326 514.5 325 c 128,-1,14
 554 324 554 324 578 324 c 3,15,16
 581 324 581 324 592 324.5 c 128,-1,17
 603 325 603 325 612 325 c 3,18,19
 634 325 634 325 634 318 c 259,20,21
 634 312 634 312 605 302 c 0,22,23
 558 285 558 285 497.5 284 c 128,-1,24
 437 283 437 283 416 277 c 128,-1,25
 395 271 395 271 388 248 c 0,26,27
 373 197 373 197 373 158.5 c 128,-1,28
 373 120 373 120 379.5 94 c 128,-1,29
 386 68 386 68 407.5 42 c 128,-1,30
 429 16 429 16 462 16 c 0,31,32
 538 16 538 16 558 48 c 0,33,34
 569 65 569 65 574 65 c 0,35,36
 583 65 583 65 583 55 c 128,-1,37
 583 45 583 45 566 30.5 c 128,-1,38
 549 16 549 16 513 -2 c 0,39,40
 464 -26 464 -26 427 -26 c 256,41,42
 390 -26 390 -26 375.5 -17 c 128,-1,43
 361 -8 361 -8 337.5 25.5 c 128,-1,44
 314 59 314 59 307.5 59 c 128,-1,45
 301 59 301 59 285 48 c 0,46,47
 205 -12 205 -12 144 -12 c 256,48,49
 81 -12 81 -12 46 27 c 128,-1,50
 11 66 11 66 11 133 c 259,0,1
96 286 m 256,51,52
 92 272 92 272 114 276 c 0,53,54
 142 282 142 282 163.5 284.5 c 128,-1,55
 185 287 185 287 188.5 290.5 c 128,-1,56
 192 294 192 294 192 306 c 128,-1,57
 192 318 192 318 179.5 327.5 c 128,-1,58
 167 337 167 337 151.5 337 c 128,-1,59
 136 337 136 337 119 320 c 128,-1,60
 102 303 102 303 96 286 c 256,51,52
80 178 m 259,61,62
 80 114 80 114 114 72 c 0,63,64
 123 61 123 61 147.5 45 c 128,-1,65
 172 29 172 29 200 29 c 0,66,67
 255 29 255 29 286 77 c 0,68,69
 306 106 306 106 312 147 c 0,70,71
 326 230 326 230 335 245.5 c 128,-1,72
 344 261 344 261 344 265 c 0,73,74
 344 279 344 279 314 279 c 3,75,76
 238 279 238 279 174 263 c 128,-1,77
 110 247 110 247 98 242 c 128,-1,78
 86 237 86 237 83 223 c 128,-1,79
 80 209 80 209 80 178 c 259,61,62
EndSplineSet
Validated: 3073
Layer: 2
Substitution2: "Single Substitution no tag - 3-1" e_t.alt
LCarets2: 1 608
Ligature2: "two-element ligature in Latin" e t
EndChar

